<?xml version="1.0" encoding="UTF-8" standalone="no"?>
<!DOCTYPE svg PUBLIC "-//W3C//DTD SVG 1.1//EN"
 "http://www.w3.org/Graphics/SVG/1.1/DTD/svg11.dtd">
<!-- Generated by graphviz version 2.47.3 (20210619.1520)
 -->
<!-- Title: dependencies Pages: 1 -->
<svg width="499pt" height="247pt"
 viewBox="0.00 0.00 499.00 246.80" xmlns="http://www.w3.org/2000/svg" xmlns:xlink="http://www.w3.org/1999/xlink">
<g id="graph0" class="graph" transform="scale(1 1) rotate(0) translate(4 242.8)">
<title>dependencies</title>
<polygon fill="white" stroke="transparent" points="-4,4 -4,-242.8 495,-242.8 495,4 -4,4"/>
<text text-anchor="middle" x="245.5" y="-8.2" font-family="sans-serif" font-size="14.00">dependencies</text>
<g id="clust1" class="cluster">
<title>cluster_WaterUsageForecastsModule</title>
<polygon fill="none" stroke="black" stroke-dasharray="1,5" points="8,-32.8 8,-230.8 483,-230.8 483,-32.8 8,-32.8"/>
</g>
<g id="clust4" class="cluster">
<title>cluster_WaterUsageForecastsModule_imports</title>
<polygon fill="none" stroke="black" points="244,-40.8 244,-92.8 475,-92.8 475,-40.8 244,-40.8"/>
</g>
<g id="clust5" class="cluster">
<title>cluster_WaterUsageForecastsModule_exports</title>
<polygon fill="none" stroke="black" points="194,-170.8 194,-222.8 416,-222.8 416,-170.8 194,-170.8"/>
</g>
<g id="clust2" class="cluster">
<title>cluster_WaterUsageForecastsModule_declarations</title>
<polygon fill="none" stroke="black" points="16,-40.8 16,-92.8 236,-92.8 236,-40.8 16,-40.8"/>
</g>
<!-- WaterUsageForecastsComponent -->
<g id="node1" class="node">
<title>WaterUsageForecastsComponent</title>
<polygon fill="#ffffb3" stroke="black" points="227.87,-84.8 24.13,-84.8 24.13,-48.8 227.87,-48.8 227.87,-84.8"/>
<text text-anchor="middle" x="126" y="-62.6" font-family="Times,serif" font-size="14.00">WaterUsageForecastsComponent</text>
</g>
<!-- WaterUsageForecastsModule -->
<g id="node2" class="node">
<title>WaterUsageForecastsModule</title>
<polygon fill="#8dd3c7" stroke="black" points="395.59,-149.8 392.59,-153.8 371.59,-153.8 368.59,-149.8 214.41,-149.8 214.41,-113.8 395.59,-113.8 395.59,-149.8"/>
<text text-anchor="middle" x="305" y="-127.6" font-family="Times,serif" font-size="14.00">WaterUsageForecastsModule</text>
</g>
<!-- WaterUsageForecastsComponent&#45;&gt;WaterUsageForecastsModule -->
<g id="edge1" class="edge">
<title>WaterUsageForecastsComponent&#45;&gt;WaterUsageForecastsModule</title>
<path fill="none" stroke="black" d="M220.95,-84.91C220.95,-84.91 220.95,-103.79 220.95,-103.79"/>
<polygon fill="black" stroke="black" points="217.45,-103.79 220.95,-113.79 224.45,-103.79 217.45,-103.79"/>
</g>
<!-- WaterUsageForecastsComponent  -->
<g id="node5" class="node">
<title>WaterUsageForecastsComponent </title>
<polygon fill="#fb8072" stroke="black" points="408.37,-214.8 201.63,-214.8 201.63,-178.8 408.37,-178.8 408.37,-214.8"/>
<text text-anchor="middle" x="305" y="-192.6" font-family="Times,serif" font-size="14.00">WaterUsageForecastsComponent </text>
</g>
<!-- WaterUsageForecastsModule&#45;&gt;WaterUsageForecastsComponent  -->
<g id="edge4" class="edge">
<title>WaterUsageForecastsModule&#45;&gt;WaterUsageForecastsComponent </title>
<path fill="none" stroke="black" stroke-dasharray="5,2" d="M305,-149.91C305,-149.91 305,-168.79 305,-168.79"/>
<polygon fill="black" stroke="black" points="301.5,-168.79 305,-178.79 308.5,-168.79 301.5,-168.79"/>
</g>
<!-- ChartModule -->
<g id="node3" class="node">
<title>ChartModule</title>
<polygon fill="#8dd3c7" stroke="black" points="467.15,-84.8 464.15,-88.8 443.15,-88.8 440.15,-84.8 376.85,-84.8 376.85,-48.8 467.15,-48.8 467.15,-84.8"/>
<text text-anchor="middle" x="422" y="-62.6" font-family="Times,serif" font-size="14.00">ChartModule</text>
</g>
<!-- ChartModule&#45;&gt;WaterUsageForecastsModule -->
<g id="edge2" class="edge">
<title>ChartModule&#45;&gt;WaterUsageForecastsModule</title>
<path fill="none" stroke="black" d="M386.23,-84.91C386.23,-84.91 386.23,-103.79 386.23,-103.79"/>
<polygon fill="black" stroke="black" points="382.74,-103.79 386.23,-113.79 389.74,-103.79 382.74,-103.79"/>
</g>
<!-- WisdomModule -->
<g id="node4" class="node">
<title>WisdomModule</title>
<polygon fill="#8dd3c7" stroke="black" points="358.49,-84.8 355.49,-88.8 334.49,-88.8 331.49,-84.8 251.51,-84.8 251.51,-48.8 358.49,-48.8 358.49,-84.8"/>
<text text-anchor="middle" x="305" y="-62.6" font-family="Times,serif" font-size="14.00">WisdomModule</text>
</g>
<!-- WisdomModule&#45;&gt;WaterUsageForecastsModule -->
<g id="edge3" class="edge">
<title>WisdomModule&#45;&gt;WaterUsageForecastsModule</title>
<path fill="none" stroke="black" d="M305,-84.91C305,-84.91 305,-103.79 305,-103.79"/>
<polygon fill="black" stroke="black" points="301.5,-103.79 305,-113.79 308.5,-103.79 301.5,-103.79"/>
</g>
</g>
</svg>
