<?xml version="1.0" encoding="UTF-8" standalone="no"?>
<!DOCTYPE svg PUBLIC "-//W3C//DTD SVG 1.1//EN"
 "http://www.w3.org/Graphics/SVG/1.1/DTD/svg11.dtd">
<!-- Generated by graphviz version 5.0.0 (20220707.1540)
 -->
<!-- Title: dependencies Pages: 1 -->
<svg width="939pt" height="174pt"
 viewBox="0.00 0.00 939.00 173.80" xmlns="http://www.w3.org/2000/svg" xmlns:xlink="http://www.w3.org/1999/xlink">
<g id="graph0" class="graph" transform="scale(1 1) rotate(0) translate(4 169.8)">
<title>dependencies</title>
<polygon fill="white" stroke="transparent" points="-4,4 -4,-169.8 935,-169.8 935,4 -4,4"/>
<text text-anchor="middle" x="465.5" y="-8.2" font-family="sans-serif" font-size="14.00">dependencies</text>
<g id="clust1" class="cluster">
<title>cluster_WaterUsageForecastsModule</title>
<polygon fill="none" stroke="black" stroke-dasharray="1,5" points="8,-32.8 8,-157.8 923,-157.8 923,-32.8 8,-32.8"/>
</g>
<g id="clust7" class="cluster">
<title>cluster_WaterUsageForecastsModule_imports</title>
<polygon fill="none" stroke="black" points="793,-40.8 793,-92.8 915,-92.8 915,-40.8 793,-40.8"/>
</g>
<g id="clust2" class="cluster">
<title>cluster_WaterUsageForecastsModule_declarations</title>
<polygon fill="none" stroke="black" points="16,-40.8 16,-92.8 785,-92.8 785,-40.8 16,-40.8"/>
</g>
<!-- ConsumerDetailComponent -->
<g id="node1" class="node">
<title>ConsumerDetailComponent</title>
<polygon fill="#ffffb3" stroke="black" points="776.59,-84.8 603.41,-84.8 603.41,-48.8 776.59,-48.8 776.59,-84.8"/>
<text text-anchor="middle" x="690" y="-62.6" font-family="Times,serif" font-size="14.00">ConsumerDetailComponent</text>
</g>
<!-- WaterUsageForecastsModule -->
<g id="node5" class="node">
<title>WaterUsageForecastsModule</title>
<polygon fill="#8dd3c7" stroke="black" points="590.61,-149.8 587.61,-153.8 566.61,-153.8 563.61,-149.8 409.39,-149.8 409.39,-113.8 590.61,-113.8 590.61,-149.8"/>
<text text-anchor="middle" x="500" y="-127.6" font-family="Times,serif" font-size="14.00">WaterUsageForecastsModule</text>
</g>
<!-- ConsumerDetailComponent&#45;&gt;WaterUsageForecastsModule -->
<g id="edge1" class="edge">
<title>ConsumerDetailComponent&#45;&gt;WaterUsageForecastsModule</title>
<path fill="none" stroke="black" d="M690,-84.82C690,-102.17 690,-125.8 690,-125.8 690,-125.8 600.83,-125.8 600.83,-125.8"/>
<polygon fill="black" stroke="black" points="600.83,-122.3 590.83,-125.8 600.83,-129.3 600.83,-122.3"/>
</g>
<!-- MapSelectViewComponent -->
<g id="node2" class="node">
<title>MapSelectViewComponent</title>
<polygon fill="#ffffb3" stroke="black" points="585.53,-84.8 414.47,-84.8 414.47,-48.8 585.53,-48.8 585.53,-84.8"/>
<text text-anchor="middle" x="500" y="-62.6" font-family="Times,serif" font-size="14.00">MapSelectViewComponent</text>
</g>
<!-- MapSelectViewComponent&#45;&gt;WaterUsageForecastsModule -->
<g id="edge2" class="edge">
<title>MapSelectViewComponent&#45;&gt;WaterUsageForecastsModule</title>
<path fill="none" stroke="black" d="M500,-84.91C500,-84.91 500,-103.79 500,-103.79"/>
<polygon fill="black" stroke="black" points="496.5,-103.79 500,-113.79 503.5,-103.79 496.5,-103.79"/>
</g>
<!-- ResultDataViewComponent -->
<g id="node3" class="node">
<title>ResultDataViewComponent</title>
<polygon fill="#ffffb3" stroke="black" points="395.86,-84.8 222.14,-84.8 222.14,-48.8 395.86,-48.8 395.86,-84.8"/>
<text text-anchor="middle" x="309" y="-62.6" font-family="Times,serif" font-size="14.00">ResultDataViewComponent</text>
</g>
<!-- ResultDataViewComponent&#45;&gt;WaterUsageForecastsModule -->
<g id="edge3" class="edge">
<title>ResultDataViewComponent&#45;&gt;WaterUsageForecastsModule</title>
<path fill="none" stroke="black" d="M309,-84.82C309,-102.17 309,-125.8 309,-125.8 309,-125.8 399.25,-125.8 399.25,-125.8"/>
<polygon fill="black" stroke="black" points="399.25,-129.3 409.25,-125.8 399.25,-122.3 399.25,-129.3"/>
</g>
<!-- WaterRightDetailComponent -->
<g id="node4" class="node">
<title>WaterRightDetailComponent</title>
<polygon fill="#ffffb3" stroke="black" points="204.35,-84.8 23.65,-84.8 23.65,-48.8 204.35,-48.8 204.35,-84.8"/>
<text text-anchor="middle" x="114" y="-62.6" font-family="Times,serif" font-size="14.00">WaterRightDetailComponent</text>
</g>
<!-- WaterRightDetailComponent&#45;&gt;WaterUsageForecastsModule -->
<g id="edge4" class="edge">
<title>WaterRightDetailComponent&#45;&gt;WaterUsageForecastsModule</title>
<path fill="none" stroke="black" d="M114,-85.08C114,-106.12 114,-137.8 114,-137.8 114,-137.8 399.01,-137.8 399.01,-137.8"/>
<polygon fill="black" stroke="black" points="399.01,-141.3 409.01,-137.8 399.01,-134.3 399.01,-141.3"/>
</g>
<!-- WisdomModule -->
<g id="node6" class="node">
<title>WisdomModule</title>
<polygon fill="#8dd3c7" stroke="black" points="907.49,-84.8 904.49,-88.8 883.49,-88.8 880.49,-84.8 800.51,-84.8 800.51,-48.8 907.49,-48.8 907.49,-84.8"/>
<text text-anchor="middle" x="854" y="-62.6" font-family="Times,serif" font-size="14.00">WisdomModule</text>
</g>
<!-- WisdomModule&#45;&gt;WaterUsageForecastsModule -->
<g id="edge5" class="edge">
<title>WisdomModule&#45;&gt;WaterUsageForecastsModule</title>
<path fill="none" stroke="black" d="M854,-85.08C854,-106.12 854,-137.8 854,-137.8 854,-137.8 600.7,-137.8 600.7,-137.8"/>
<polygon fill="black" stroke="black" points="600.7,-134.3 590.7,-137.8 600.7,-141.3 600.7,-134.3"/>
</g>
</g>
</svg>
