<?xml version="1.0" encoding="UTF-8" standalone="no"?>
<!DOCTYPE svg PUBLIC "-//W3C//DTD SVG 1.1//EN"
 "http://www.w3.org/Graphics/SVG/1.1/DTD/svg11.dtd">
<!-- Generated by graphviz version 5.0.0 (20220707.1540)
 -->
<!-- Title: dependencies Pages: 1 -->
<svg width="1637pt" height="174pt"
 viewBox="0.00 0.00 1637.00 173.80" xmlns="http://www.w3.org/2000/svg" xmlns:xlink="http://www.w3.org/1999/xlink">
<g id="graph0" class="graph" transform="scale(1 1) rotate(0) translate(4 169.8)">
<title>dependencies</title>
<polygon fill="white" stroke="transparent" points="-4,4 -4,-169.8 1633,-169.8 1633,4 -4,4"/>
<text text-anchor="middle" x="814.5" y="-8.2" font-family="sans-serif" font-size="14.00">dependencies</text>
<g id="clust1" class="cluster">
<title>cluster_WaterUsageForecastsModule</title>
<polygon fill="none" stroke="black" stroke-dasharray="1,5" points="8,-32.8 8,-157.8 1621,-157.8 1621,-32.8 8,-32.8"/>
</g>
<g id="clust2" class="cluster">
<title>cluster_WaterUsageForecastsModule_declarations</title>
<polygon fill="none" stroke="black" points="146,-40.8 146,-92.8 1613,-92.8 1613,-40.8 146,-40.8"/>
</g>
<g id="clust10" class="cluster">
<title>cluster_WaterUsageForecastsModule_imports</title>
<polygon fill="none" stroke="black" points="16,-40.8 16,-92.8 138,-92.8 138,-40.8 16,-40.8"/>
</g>
<!-- ConsumerDetailComponent -->
<g id="node1" class="node">
<title>ConsumerDetailComponent</title>
<polygon fill="#ffffb3" stroke="black" points="1604.59,-84.8 1431.41,-84.8 1431.41,-48.8 1604.59,-48.8 1604.59,-84.8"/>
<text text-anchor="middle" x="1518" y="-62.6" font-family="Times,serif" font-size="14.00">ConsumerDetailComponent</text>
</g>
<!-- WaterUsageForecastsModule -->
<g id="node8" class="node">
<title>WaterUsageForecastsModule</title>
<polygon fill="#8dd3c7" stroke="black" points="901.61,-149.8 898.61,-153.8 877.61,-153.8 874.61,-149.8 720.39,-149.8 720.39,-113.8 901.61,-113.8 901.61,-149.8"/>
<text text-anchor="middle" x="811" y="-127.6" font-family="Times,serif" font-size="14.00">WaterUsageForecastsModule</text>
</g>
<!-- ConsumerDetailComponent&#45;&gt;WaterUsageForecastsModule -->
<g id="edge1" class="edge">
<title>ConsumerDetailComponent&#45;&gt;WaterUsageForecastsModule</title>
<path fill="none" stroke="black" d="M1518,-85.09C1518,-107.01 1518,-140.8 1518,-140.8 1518,-140.8 911.62,-140.8 911.62,-140.8"/>
<polygon fill="black" stroke="black" points="911.62,-137.3 901.62,-140.8 911.62,-144.3 911.62,-137.3"/>
</g>
<!-- MapSelectViewComponent -->
<g id="node2" class="node">
<title>MapSelectViewComponent</title>
<polygon fill="#ffffb3" stroke="black" points="1413.53,-84.8 1242.47,-84.8 1242.47,-48.8 1413.53,-48.8 1413.53,-84.8"/>
<text text-anchor="middle" x="1328" y="-62.6" font-family="Times,serif" font-size="14.00">MapSelectViewComponent</text>
</g>
<!-- MapSelectViewComponent&#45;&gt;WaterUsageForecastsModule -->
<g id="edge2" class="edge">
<title>MapSelectViewComponent&#45;&gt;WaterUsageForecastsModule</title>
<path fill="none" stroke="black" d="M1328,-84.91C1328,-104.14 1328,-131.8 1328,-131.8 1328,-131.8 911.65,-131.8 911.65,-131.8"/>
<polygon fill="black" stroke="black" points="911.65,-128.3 901.65,-131.8 911.65,-135.3 911.65,-128.3"/>
</g>
<!-- ProphetForecastResultDataComponent -->
<g id="node3" class="node">
<title>ProphetForecastResultDataComponent</title>
<polygon fill="#ffffb3" stroke="black" points="1224.02,-84.8 989.98,-84.8 989.98,-48.8 1224.02,-48.8 1224.02,-84.8"/>
<text text-anchor="middle" x="1107" y="-62.6" font-family="Times,serif" font-size="14.00">ProphetForecastResultDataComponent</text>
</g>
<!-- ProphetForecastResultDataComponent&#45;&gt;WaterUsageForecastsModule -->
<g id="edge3" class="edge">
<title>ProphetForecastResultDataComponent&#45;&gt;WaterUsageForecastsModule</title>
<path fill="none" stroke="black" d="M1107,-84.83C1107,-101.2 1107,-122.8 1107,-122.8 1107,-122.8 911.82,-122.8 911.82,-122.8"/>
<polygon fill="black" stroke="black" points="911.82,-119.3 901.82,-122.8 911.82,-126.3 911.82,-119.3"/>
</g>
<!-- ResultDataComponent -->
<g id="node4" class="node">
<title>ResultDataComponent</title>
<polygon fill="#ffffb3" stroke="black" points="971.54,-84.8 828.46,-84.8 828.46,-48.8 971.54,-48.8 971.54,-84.8"/>
<text text-anchor="middle" x="900" y="-62.6" font-family="Times,serif" font-size="14.00">ResultDataComponent</text>
</g>
<!-- ResultDataComponent&#45;&gt;WaterUsageForecastsModule -->
<g id="edge4" class="edge">
<title>ResultDataComponent&#45;&gt;WaterUsageForecastsModule</title>
<path fill="none" stroke="black" d="M865.02,-84.91C865.02,-84.91 865.02,-103.79 865.02,-103.79"/>
<polygon fill="black" stroke="black" points="861.52,-103.79 865.02,-113.79 868.52,-103.79 861.52,-103.79"/>
</g>
<!-- ResultDataViewComponent -->
<g id="node5" class="node">
<title>ResultDataViewComponent</title>
<polygon fill="#ffffb3" stroke="black" points="809.86,-84.8 636.14,-84.8 636.14,-48.8 809.86,-48.8 809.86,-84.8"/>
<text text-anchor="middle" x="723" y="-62.6" font-family="Times,serif" font-size="14.00">ResultDataViewComponent</text>
</g>
<!-- ResultDataViewComponent&#45;&gt;WaterUsageForecastsModule -->
<g id="edge5" class="edge">
<title>ResultDataViewComponent&#45;&gt;WaterUsageForecastsModule</title>
<path fill="none" stroke="black" d="M765.06,-84.91C765.06,-84.91 765.06,-103.79 765.06,-103.79"/>
<polygon fill="black" stroke="black" points="761.56,-103.79 765.06,-113.79 768.56,-103.79 761.56,-103.79"/>
</g>
<!-- WaterRightDetailComponent -->
<g id="node6" class="node">
<title>WaterRightDetailComponent</title>
<polygon fill="#ffffb3" stroke="black" points="618.35,-84.8 437.65,-84.8 437.65,-48.8 618.35,-48.8 618.35,-84.8"/>
<text text-anchor="middle" x="528" y="-62.6" font-family="Times,serif" font-size="14.00">WaterRightDetailComponent</text>
</g>
<!-- WaterRightDetailComponent&#45;&gt;WaterUsageForecastsModule -->
<g id="edge6" class="edge">
<title>WaterRightDetailComponent&#45;&gt;WaterUsageForecastsModule</title>
<path fill="none" stroke="black" d="M528,-84.83C528,-101.2 528,-122.8 528,-122.8 528,-122.8 710.29,-122.8 710.29,-122.8"/>
<polygon fill="black" stroke="black" points="710.29,-126.3 720.29,-122.8 710.29,-119.3 710.29,-126.3"/>
</g>
<!-- WaterUsageForecastsResultDataComponent -->
<g id="node7" class="node">
<title>WaterUsageForecastsResultDataComponent</title>
<polygon fill="#ffffb3" stroke="black" points="419.59,-84.8 154.41,-84.8 154.41,-48.8 419.59,-48.8 419.59,-84.8"/>
<text text-anchor="middle" x="287" y="-62.6" font-family="Times,serif" font-size="14.00">WaterUsageForecastsResultDataComponent</text>
</g>
<!-- WaterUsageForecastsResultDataComponent&#45;&gt;WaterUsageForecastsModule -->
<g id="edge7" class="edge">
<title>WaterUsageForecastsResultDataComponent&#45;&gt;WaterUsageForecastsModule</title>
<path fill="none" stroke="black" d="M287,-84.91C287,-104.14 287,-131.8 287,-131.8 287,-131.8 710.32,-131.8 710.32,-131.8"/>
<polygon fill="black" stroke="black" points="710.32,-135.3 720.32,-131.8 710.32,-128.3 710.32,-135.3"/>
</g>
<!-- WisdomModule -->
<g id="node9" class="node">
<title>WisdomModule</title>
<polygon fill="#8dd3c7" stroke="black" points="130.49,-84.8 127.49,-88.8 106.49,-88.8 103.49,-84.8 23.51,-84.8 23.51,-48.8 130.49,-48.8 130.49,-84.8"/>
<text text-anchor="middle" x="77" y="-62.6" font-family="Times,serif" font-size="14.00">WisdomModule</text>
</g>
<!-- WisdomModule&#45;&gt;WaterUsageForecastsModule -->
<g id="edge8" class="edge">
<title>WisdomModule&#45;&gt;WaterUsageForecastsModule</title>
<path fill="none" stroke="black" d="M77,-85.09C77,-107.01 77,-140.8 77,-140.8 77,-140.8 710.26,-140.8 710.26,-140.8"/>
<polygon fill="black" stroke="black" points="710.26,-144.3 720.26,-140.8 710.26,-137.3 710.26,-144.3"/>
</g>
</g>
</svg>
