<?xml version="1.0" encoding="UTF-8" standalone="no"?>
<!DOCTYPE svg PUBLIC "-//W3C//DTD SVG 1.1//EN"
 "http://www.w3.org/Graphics/SVG/1.1/DTD/svg11.dtd">
<!-- Generated by graphviz version 2.47.0 (20210316.0004)
 -->
<!-- Title: dependencies Pages: 1 -->
<svg width="1637pt" height="211pt"
 viewBox="0.00 0.00 1637.00 211.00" xmlns="http://www.w3.org/2000/svg" xmlns:xlink="http://www.w3.org/1999/xlink">
<g id="graph0" class="graph" transform="scale(1 1) rotate(0) translate(4 207)">
<title>dependencies</title>
<polygon fill="white" stroke="transparent" points="-4,4 -4,-207 1633,-207 1633,4 -4,4"/>
<text text-anchor="start" x="793.51" y="-42.4" font-family="Times-12" font-weight="bold" font-size="14.00">Legend</text>
<polygon fill="#ffffb3" stroke="transparent" points="580.5,-10 580.5,-30 600.5,-30 600.5,-10 580.5,-10"/>
<text text-anchor="start" x="604.13" y="-15.4" font-family="Times-12" font-size="14.00"> &#160;Declarations</text>
<polygon fill="#8dd3c7" stroke="transparent" points="693.5,-10 693.5,-30 713.5,-30 713.5,-10 693.5,-10"/>
<text text-anchor="start" x="717.23" y="-15.4" font-family="Times-12" font-size="14.00"> &#160;Module</text>
<polygon fill="#80b1d3" stroke="transparent" points="779.5,-10 779.5,-30 799.5,-30 799.5,-10 779.5,-10"/>
<text text-anchor="start" x="803.28" y="-15.4" font-family="Times-12" font-size="14.00"> &#160;Bootstrap</text>
<polygon fill="#fdb462" stroke="transparent" points="876.5,-10 876.5,-30 896.5,-30 896.5,-10 876.5,-10"/>
<text text-anchor="start" x="900.17" y="-15.4" font-family="Times-12" font-size="14.00"> &#160;Providers</text>
<polygon fill="#fb8072" stroke="transparent" points="972.5,-10 972.5,-30 992.5,-30 992.5,-10 972.5,-10"/>
<text text-anchor="start" x="996.23" y="-15.4" font-family="Times-12" font-size="14.00"> &#160;Exports</text>
<g id="clust1" class="cluster">
<title>cluster_WaterUsageForecastsModule</title>
<polygon fill="none" stroke="black" stroke-dasharray="1,5" points="8,-70 8,-195 1621,-195 1621,-70 8,-70"/>
</g>
<g id="clust10" class="cluster">
<title>cluster_WaterUsageForecastsModule_imports</title>
<polygon fill="none" stroke="black" points="1491,-78 1491,-130 1613,-130 1613,-78 1491,-78"/>
</g>
<g id="clust2" class="cluster">
<title>cluster_WaterUsageForecastsModule_declarations</title>
<polygon fill="none" stroke="black" points="16,-78 16,-130 1483,-130 1483,-78 16,-78"/>
</g>
<!-- ConsumerDetailComponent -->
<g id="node1" class="node">
<title>ConsumerDetailComponent</title>
<polygon fill="#ffffb3" stroke="black" points="1474.59,-122 1301.41,-122 1301.41,-86 1474.59,-86 1474.59,-122"/>
<text text-anchor="middle" x="1388" y="-99.8" font-family="Times,serif" font-size="14.00">ConsumerDetailComponent</text>
</g>
<!-- WaterUsageForecastsModule -->
<g id="node8" class="node">
<title>WaterUsageForecastsModule</title>
<polygon fill="#8dd3c7" stroke="black" points="963.59,-187 960.59,-191 939.59,-191 936.59,-187 782.41,-187 782.41,-151 963.59,-151 963.59,-187"/>
<text text-anchor="middle" x="873" y="-164.8" font-family="Times,serif" font-size="14.00">WaterUsageForecastsModule</text>
</g>
<!-- ConsumerDetailComponent&#45;&gt;WaterUsageForecastsModule -->
<g id="edge1" class="edge">
<title>ConsumerDetailComponent&#45;&gt;WaterUsageForecastsModule</title>
<path fill="none" stroke="black" d="M1388,-122.11C1388,-141.34 1388,-169 1388,-169 1388,-169 973.89,-169 973.89,-169"/>
<polygon fill="black" stroke="black" points="973.89,-165.5 963.89,-169 973.89,-172.5 973.89,-165.5"/>
</g>
<!-- MapSelectViewComponent -->
<g id="node2" class="node">
<title>MapSelectViewComponent</title>
<polygon fill="#ffffb3" stroke="black" points="1283.52,-122 1112.48,-122 1112.48,-86 1283.52,-86 1283.52,-122"/>
<text text-anchor="middle" x="1198" y="-99.8" font-family="Times,serif" font-size="14.00">MapSelectViewComponent</text>
</g>
<!-- MapSelectViewComponent&#45;&gt;WaterUsageForecastsModule -->
<g id="edge2" class="edge">
<title>MapSelectViewComponent&#45;&gt;WaterUsageForecastsModule</title>
<path fill="none" stroke="black" d="M1198,-122.03C1198,-138.4 1198,-160 1198,-160 1198,-160 973.96,-160 973.96,-160"/>
<polygon fill="black" stroke="black" points="973.96,-156.5 963.96,-160 973.96,-163.5 973.96,-156.5"/>
</g>
<!-- ProphetForecastResultDataComponent -->
<g id="node3" class="node">
<title>ProphetForecastResultDataComponent</title>
<polygon fill="#ffffb3" stroke="black" points="1094.01,-122 859.99,-122 859.99,-86 1094.01,-86 1094.01,-122"/>
<text text-anchor="middle" x="977" y="-99.8" font-family="Times,serif" font-size="14.00">ProphetForecastResultDataComponent</text>
</g>
<!-- ProphetForecastResultDataComponent&#45;&gt;WaterUsageForecastsModule -->
<g id="edge3" class="edge">
<title>ProphetForecastResultDataComponent&#45;&gt;WaterUsageForecastsModule</title>
<path fill="none" stroke="black" d="M911.77,-122.11C911.77,-122.11 911.77,-140.99 911.77,-140.99"/>
<polygon fill="black" stroke="black" points="908.27,-140.99 911.77,-150.99 915.27,-140.99 908.27,-140.99"/>
</g>
<!-- ResultDataComponent -->
<g id="node4" class="node">
<title>ResultDataComponent</title>
<polygon fill="#ffffb3" stroke="black" points="841.54,-122 698.46,-122 698.46,-86 841.54,-86 841.54,-122"/>
<text text-anchor="middle" x="770" y="-99.8" font-family="Times,serif" font-size="14.00">ResultDataComponent</text>
</g>
<!-- ResultDataComponent&#45;&gt;WaterUsageForecastsModule -->
<g id="edge4" class="edge">
<title>ResultDataComponent&#45;&gt;WaterUsageForecastsModule</title>
<path fill="none" stroke="black" d="M811.99,-122.11C811.99,-122.11 811.99,-140.99 811.99,-140.99"/>
<polygon fill="black" stroke="black" points="808.49,-140.99 811.99,-150.99 815.49,-140.99 808.49,-140.99"/>
</g>
<!-- ResultDataViewComponent -->
<g id="node5" class="node">
<title>ResultDataViewComponent</title>
<polygon fill="#ffffb3" stroke="black" points="679.85,-122 506.15,-122 506.15,-86 679.85,-86 679.85,-122"/>
<text text-anchor="middle" x="593" y="-99.8" font-family="Times,serif" font-size="14.00">ResultDataViewComponent</text>
</g>
<!-- ResultDataViewComponent&#45;&gt;WaterUsageForecastsModule -->
<g id="edge5" class="edge">
<title>ResultDataViewComponent&#45;&gt;WaterUsageForecastsModule</title>
<path fill="none" stroke="black" d="M593,-122.03C593,-138.4 593,-160 593,-160 593,-160 772.09,-160 772.09,-160"/>
<polygon fill="black" stroke="black" points="772.09,-163.5 782.09,-160 772.09,-156.5 772.09,-163.5"/>
</g>
<!-- WaterRightDetailComponent -->
<g id="node6" class="node">
<title>WaterRightDetailComponent</title>
<polygon fill="#ffffb3" stroke="black" points="488.35,-122 307.65,-122 307.65,-86 488.35,-86 488.35,-122"/>
<text text-anchor="middle" x="398" y="-99.8" font-family="Times,serif" font-size="14.00">WaterRightDetailComponent</text>
</g>
<!-- WaterRightDetailComponent&#45;&gt;WaterUsageForecastsModule -->
<g id="edge6" class="edge">
<title>WaterRightDetailComponent&#45;&gt;WaterUsageForecastsModule</title>
<path fill="none" stroke="black" d="M398,-122.11C398,-141.34 398,-169 398,-169 398,-169 772.26,-169 772.26,-169"/>
<polygon fill="black" stroke="black" points="772.26,-172.5 782.26,-169 772.26,-165.5 772.26,-172.5"/>
</g>
<!-- WaterUsageForecastsResultDataComponent -->
<g id="node7" class="node">
<title>WaterUsageForecastsResultDataComponent</title>
<polygon fill="#ffffb3" stroke="black" points="289.58,-122 24.42,-122 24.42,-86 289.58,-86 289.58,-122"/>
<text text-anchor="middle" x="157" y="-99.8" font-family="Times,serif" font-size="14.00">WaterUsageForecastsResultDataComponent</text>
</g>
<!-- WaterUsageForecastsResultDataComponent&#45;&gt;WaterUsageForecastsModule -->
<g id="edge7" class="edge">
<title>WaterUsageForecastsResultDataComponent&#45;&gt;WaterUsageForecastsModule</title>
<path fill="none" stroke="black" d="M157,-122.29C157,-144.21 157,-178 157,-178 157,-178 772.32,-178 772.32,-178"/>
<polygon fill="black" stroke="black" points="772.32,-181.5 782.32,-178 772.32,-174.5 772.32,-181.5"/>
</g>
<!-- WisdomModule -->
<g id="node9" class="node">
<title>WisdomModule</title>
<polygon fill="#8dd3c7" stroke="black" points="1605.49,-122 1602.49,-126 1581.49,-126 1578.49,-122 1498.51,-122 1498.51,-86 1605.49,-86 1605.49,-122"/>
<text text-anchor="middle" x="1552" y="-99.8" font-family="Times,serif" font-size="14.00">WisdomModule</text>
</g>
<!-- WisdomModule&#45;&gt;WaterUsageForecastsModule -->
<g id="edge8" class="edge">
<title>WisdomModule&#45;&gt;WaterUsageForecastsModule</title>
<path fill="none" stroke="black" d="M1552,-122.29C1552,-144.21 1552,-178 1552,-178 1552,-178 973.87,-178 973.87,-178"/>
<polygon fill="black" stroke="black" points="973.87,-174.5 963.87,-178 973.87,-181.5 973.87,-174.5"/>
</g>
</g>
</svg>
