<?xml version="1.0" encoding="UTF-8" standalone="no"?>
<!DOCTYPE svg PUBLIC "-//W3C//DTD SVG 1.1//EN"
 "http://www.w3.org/Graphics/SVG/1.1/DTD/svg11.dtd">
<!-- Generated by graphviz version 2.47.3 (20210619.1520)
 -->
<!-- Title: dependencies Pages: 1 -->
<svg width="881pt" height="247pt"
 viewBox="0.00 0.00 881.00 246.80" xmlns="http://www.w3.org/2000/svg" xmlns:xlink="http://www.w3.org/1999/xlink">
<g id="graph0" class="graph" transform="scale(1 1) rotate(0) translate(4 242.8)">
<title>dependencies</title>
<polygon fill="white" stroke="transparent" points="-4,4 -4,-242.8 877,-242.8 877,4 -4,4"/>
<text text-anchor="middle" x="436.5" y="-8.2" font-family="sans-serif" font-size="14.00">dependencies</text>
<g id="clust1" class="cluster">
<title>cluster_WaterUsageForecastsModule</title>
<polygon fill="none" stroke="black" stroke-dasharray="1,5" points="8,-32.8 8,-230.8 865,-230.8 865,-32.8 8,-32.8"/>
</g>
<g id="clust2" class="cluster">
<title>cluster_WaterUsageForecastsModule_declarations</title>
<polygon fill="none" stroke="black" points="255,-40.8 255,-92.8 857,-92.8 857,-40.8 255,-40.8"/>
</g>
<g id="clust6" class="cluster">
<title>cluster_WaterUsageForecastsModule_imports</title>
<polygon fill="none" stroke="black" points="16,-40.8 16,-92.8 247,-92.8 247,-40.8 16,-40.8"/>
</g>
<g id="clust7" class="cluster">
<title>cluster_WaterUsageForecastsModule_exports</title>
<polygon fill="none" stroke="black" points="254,-170.8 254,-222.8 476,-222.8 476,-170.8 254,-170.8"/>
</g>
<!-- MapSelectViewComponent -->
<g id="node1" class="node">
<title>MapSelectViewComponent</title>
<polygon fill="#ffffb3" stroke="black" points="848.52,-84.8 677.48,-84.8 677.48,-48.8 848.52,-48.8 848.52,-84.8"/>
<text text-anchor="middle" x="763" y="-62.6" font-family="Times,serif" font-size="14.00">MapSelectViewComponent</text>
</g>
<!-- WaterUsageForecastsModule -->
<g id="node4" class="node">
<title>WaterUsageForecastsModule</title>
<polygon fill="#8dd3c7" stroke="black" points="455.59,-149.8 452.59,-153.8 431.59,-153.8 428.59,-149.8 274.41,-149.8 274.41,-113.8 455.59,-113.8 455.59,-149.8"/>
<text text-anchor="middle" x="365" y="-127.6" font-family="Times,serif" font-size="14.00">WaterUsageForecastsModule</text>
</g>
<!-- MapSelectViewComponent&#45;&gt;WaterUsageForecastsModule -->
<g id="edge1" class="edge">
<title>MapSelectViewComponent&#45;&gt;WaterUsageForecastsModule</title>
<path fill="none" stroke="black" d="M763,-85.08C763,-106.12 763,-137.8 763,-137.8 763,-137.8 465.81,-137.8 465.81,-137.8"/>
<polygon fill="black" stroke="black" points="465.81,-134.3 455.81,-137.8 465.81,-141.3 465.81,-134.3"/>
</g>
<!-- ResultDataViewComponent -->
<g id="node2" class="node">
<title>ResultDataViewComponent</title>
<polygon fill="#ffffb3" stroke="black" points="658.85,-84.8 485.15,-84.8 485.15,-48.8 658.85,-48.8 658.85,-84.8"/>
<text text-anchor="middle" x="572" y="-62.6" font-family="Times,serif" font-size="14.00">ResultDataViewComponent</text>
</g>
<!-- ResultDataViewComponent&#45;&gt;WaterUsageForecastsModule -->
<g id="edge2" class="edge">
<title>ResultDataViewComponent&#45;&gt;WaterUsageForecastsModule</title>
<path fill="none" stroke="black" d="M572,-84.82C572,-102.17 572,-125.8 572,-125.8 572,-125.8 465.79,-125.8 465.79,-125.8"/>
<polygon fill="black" stroke="black" points="465.79,-122.3 455.79,-125.8 465.79,-129.3 465.79,-122.3"/>
</g>
<!-- WaterUsageForecastsComponent -->
<g id="node3" class="node">
<title>WaterUsageForecastsComponent</title>
<polygon fill="#ffffb3" stroke="black" points="466.87,-84.8 263.13,-84.8 263.13,-48.8 466.87,-48.8 466.87,-84.8"/>
<text text-anchor="middle" x="365" y="-62.6" font-family="Times,serif" font-size="14.00">WaterUsageForecastsComponent</text>
</g>
<!-- WaterUsageForecastsComponent&#45;&gt;WaterUsageForecastsModule -->
<g id="edge3" class="edge">
<title>WaterUsageForecastsComponent&#45;&gt;WaterUsageForecastsModule</title>
<path fill="none" stroke="black" d="M365,-84.91C365,-84.91 365,-103.79 365,-103.79"/>
<polygon fill="black" stroke="black" points="361.5,-103.79 365,-113.79 368.5,-103.79 361.5,-103.79"/>
</g>
<!-- WaterUsageForecastsComponent  -->
<g id="node7" class="node">
<title>WaterUsageForecastsComponent </title>
<polygon fill="#fb8072" stroke="black" points="468.37,-214.8 261.63,-214.8 261.63,-178.8 468.37,-178.8 468.37,-214.8"/>
<text text-anchor="middle" x="365" y="-192.6" font-family="Times,serif" font-size="14.00">WaterUsageForecastsComponent </text>
</g>
<!-- WaterUsageForecastsModule&#45;&gt;WaterUsageForecastsComponent  -->
<g id="edge6" class="edge">
<title>WaterUsageForecastsModule&#45;&gt;WaterUsageForecastsComponent </title>
<path fill="none" stroke="black" stroke-dasharray="5,2" d="M365,-149.91C365,-149.91 365,-168.79 365,-168.79"/>
<polygon fill="black" stroke="black" points="361.5,-168.79 365,-178.79 368.5,-168.79 361.5,-168.79"/>
</g>
<!-- ChartModule -->
<g id="node5" class="node">
<title>ChartModule</title>
<polygon fill="#8dd3c7" stroke="black" points="239.15,-84.8 236.15,-88.8 215.15,-88.8 212.15,-84.8 148.85,-84.8 148.85,-48.8 239.15,-48.8 239.15,-84.8"/>
<text text-anchor="middle" x="194" y="-62.6" font-family="Times,serif" font-size="14.00">ChartModule</text>
</g>
<!-- ChartModule&#45;&gt;WaterUsageForecastsModule -->
<g id="edge4" class="edge">
<title>ChartModule&#45;&gt;WaterUsageForecastsModule</title>
<path fill="none" stroke="black" d="M194,-84.82C194,-102.17 194,-125.8 194,-125.8 194,-125.8 264.24,-125.8 264.24,-125.8"/>
<polygon fill="black" stroke="black" points="264.24,-129.3 274.24,-125.8 264.24,-122.3 264.24,-129.3"/>
</g>
<!-- WisdomModule -->
<g id="node6" class="node">
<title>WisdomModule</title>
<polygon fill="#8dd3c7" stroke="black" points="130.49,-84.8 127.49,-88.8 106.49,-88.8 103.49,-84.8 23.51,-84.8 23.51,-48.8 130.49,-48.8 130.49,-84.8"/>
<text text-anchor="middle" x="77" y="-62.6" font-family="Times,serif" font-size="14.00">WisdomModule</text>
</g>
<!-- WisdomModule&#45;&gt;WaterUsageForecastsModule -->
<g id="edge5" class="edge">
<title>WisdomModule&#45;&gt;WaterUsageForecastsModule</title>
<path fill="none" stroke="black" d="M77,-85.08C77,-106.12 77,-137.8 77,-137.8 77,-137.8 264.27,-137.8 264.27,-137.8"/>
<polygon fill="black" stroke="black" points="264.27,-141.3 274.27,-137.8 264.27,-134.3 264.27,-141.3"/>
</g>
</g>
</svg>
