<?xml version="1.0" encoding="UTF-8" standalone="no"?>
<!DOCTYPE svg PUBLIC "-//W3C//DTD SVG 1.1//EN"
 "http://www.w3.org/Graphics/SVG/1.1/DTD/svg11.dtd">
<!-- Generated by graphviz version 5.0.0 (20220707.1540)
 -->
<!-- Title: dependencies Pages: 1 -->
<svg width="318pt" height="174pt"
 viewBox="0.00 0.00 318.00 173.80" xmlns="http://www.w3.org/2000/svg" xmlns:xlink="http://www.w3.org/1999/xlink">
<g id="graph0" class="graph" transform="scale(1 1) rotate(0) translate(4 169.8)">
<title>dependencies</title>
<polygon fill="white" stroke="transparent" points="-4,4 -4,-169.8 314,-169.8 314,4 -4,4"/>
<text text-anchor="middle" x="155" y="-8.2" font-family="sans-serif" font-size="14.00">dependencies</text>
<g id="clust1" class="cluster">
<title>cluster_AuthConfigModule</title>
<polygon fill="none" stroke="black" stroke-dasharray="1,5" points="8,-32.8 8,-157.8 302,-157.8 302,-32.8 8,-32.8"/>
</g>
<g id="clust4" class="cluster">
<title>cluster_AuthConfigModule_imports</title>
<polygon fill="none" stroke="black" points="172,-40.8 172,-92.8 294,-92.8 294,-40.8 172,-40.8"/>
</g>
<g id="clust2" class="cluster">
<title>cluster_AuthConfigModule_declarations</title>
<polygon fill="none" stroke="black" points="16,-40.8 16,-92.8 164,-92.8 164,-40.8 16,-40.8"/>
</g>
<!-- CallbackComponent -->
<g id="node1" class="node">
<title>CallbackComponent</title>
<polygon fill="#ffffb3" stroke="black" points="155.59,-84.8 24.41,-84.8 24.41,-48.8 155.59,-48.8 155.59,-84.8"/>
<text text-anchor="middle" x="90" y="-62.6" font-family="Times,serif" font-size="14.00">CallbackComponent</text>
</g>
<!-- AuthConfigModule -->
<g id="node2" class="node">
<title>AuthConfigModule</title>
<polygon fill="#8dd3c7" stroke="black" points="223.44,-149.8 220.44,-153.8 199.44,-153.8 196.44,-149.8 96.56,-149.8 96.56,-113.8 223.44,-113.8 223.44,-149.8"/>
<text text-anchor="middle" x="160" y="-127.6" font-family="Times,serif" font-size="14.00">AuthConfigModule</text>
</g>
<!-- CallbackComponent&#45;&gt;AuthConfigModule -->
<g id="edge1" class="edge">
<title>CallbackComponent&#45;&gt;AuthConfigModule</title>
<path fill="none" stroke="black" d="M126.16,-84.91C126.16,-84.91 126.16,-103.79 126.16,-103.79"/>
<polygon fill="black" stroke="black" points="122.66,-103.79 126.16,-113.79 129.66,-103.79 122.66,-103.79"/>
</g>
<!-- WisdomModule -->
<g id="node3" class="node">
<title>WisdomModule</title>
<polygon fill="#8dd3c7" stroke="black" points="286.49,-84.8 283.49,-88.8 262.49,-88.8 259.49,-84.8 179.51,-84.8 179.51,-48.8 286.49,-48.8 286.49,-84.8"/>
<text text-anchor="middle" x="233" y="-62.6" font-family="Times,serif" font-size="14.00">WisdomModule</text>
</g>
<!-- WisdomModule&#45;&gt;AuthConfigModule -->
<g id="edge2" class="edge">
<title>WisdomModule&#45;&gt;AuthConfigModule</title>
<path fill="none" stroke="black" d="M201.36,-84.91C201.36,-84.91 201.36,-103.79 201.36,-103.79"/>
<polygon fill="black" stroke="black" points="197.86,-103.79 201.36,-113.79 204.86,-103.79 197.86,-103.79"/>
</g>
</g>
</svg>
