<?xml version="1.0" encoding="UTF-8" standalone="no"?>
<!DOCTYPE svg PUBLIC "-//W3C//DTD SVG 1.1//EN"
 "http://www.w3.org/Graphics/SVG/1.1/DTD/svg11.dtd">
<!-- Generated by graphviz version 2.47.0 (20210316.0004)
 -->
<!-- Title: dependencies Pages: 1 -->
<svg width="504pt" height="211pt"
 viewBox="0.00 0.00 504.00 211.00" xmlns="http://www.w3.org/2000/svg" xmlns:xlink="http://www.w3.org/1999/xlink">
<g id="graph0" class="graph" transform="scale(1 1) rotate(0) translate(4 207)">
<title>dependencies</title>
<polygon fill="white" stroke="transparent" points="-4,4 -4,-207 500,-207 500,4 -4,4"/>
<text text-anchor="start" x="227.01" y="-42.4" font-family="Times-12" font-weight="bold" font-size="14.00">Legend</text>
<polygon fill="#ffffb3" stroke="transparent" points="14,-10 14,-30 34,-30 34,-10 14,-10"/>
<text text-anchor="start" x="37.63" y="-15.4" font-family="Times-12" font-size="14.00"> &#160;Declarations</text>
<polygon fill="#8dd3c7" stroke="transparent" points="127,-10 127,-30 147,-30 147,-10 127,-10"/>
<text text-anchor="start" x="150.73" y="-15.4" font-family="Times-12" font-size="14.00"> &#160;Module</text>
<polygon fill="#80b1d3" stroke="transparent" points="213,-10 213,-30 233,-30 233,-10 213,-10"/>
<text text-anchor="start" x="236.78" y="-15.4" font-family="Times-12" font-size="14.00"> &#160;Bootstrap</text>
<polygon fill="#fdb462" stroke="transparent" points="310,-10 310,-30 330,-30 330,-10 310,-10"/>
<text text-anchor="start" x="333.67" y="-15.4" font-family="Times-12" font-size="14.00"> &#160;Providers</text>
<polygon fill="#fb8072" stroke="transparent" points="406,-10 406,-30 426,-30 426,-10 406,-10"/>
<text text-anchor="start" x="429.73" y="-15.4" font-family="Times-12" font-size="14.00"> &#160;Exports</text>
<g id="clust1" class="cluster">
<title>cluster_AuthConfigModule</title>
<polygon fill="none" stroke="black" stroke-dasharray="1,5" points="101,-70 101,-195 395,-195 395,-70 101,-70"/>
</g>
<g id="clust4" class="cluster">
<title>cluster_AuthConfigModule_imports</title>
<polygon fill="none" stroke="black" points="265,-78 265,-130 387,-130 387,-78 265,-78"/>
</g>
<g id="clust2" class="cluster">
<title>cluster_AuthConfigModule_declarations</title>
<polygon fill="none" stroke="black" points="109,-78 109,-130 257,-130 257,-78 109,-78"/>
</g>
<!-- CallbackComponent -->
<g id="node1" class="node">
<title>CallbackComponent</title>
<polygon fill="#ffffb3" stroke="black" points="248.59,-122 117.41,-122 117.41,-86 248.59,-86 248.59,-122"/>
<text text-anchor="middle" x="183" y="-99.8" font-family="Times,serif" font-size="14.00">CallbackComponent</text>
</g>
<!-- AuthConfigModule -->
<g id="node2" class="node">
<title>AuthConfigModule</title>
<polygon fill="#8dd3c7" stroke="black" points="316.44,-187 313.44,-191 292.44,-191 289.44,-187 189.56,-187 189.56,-151 316.44,-151 316.44,-187"/>
<text text-anchor="middle" x="253" y="-164.8" font-family="Times,serif" font-size="14.00">AuthConfigModule</text>
</g>
<!-- CallbackComponent&#45;&gt;AuthConfigModule -->
<g id="edge1" class="edge">
<title>CallbackComponent&#45;&gt;AuthConfigModule</title>
<path fill="none" stroke="black" d="M219.16,-122.11C219.16,-122.11 219.16,-140.99 219.16,-140.99"/>
<polygon fill="black" stroke="black" points="215.66,-140.99 219.16,-150.99 222.66,-140.99 215.66,-140.99"/>
</g>
<!-- WisdomModule -->
<g id="node3" class="node">
<title>WisdomModule</title>
<polygon fill="#8dd3c7" stroke="black" points="379.49,-122 376.49,-126 355.49,-126 352.49,-122 272.51,-122 272.51,-86 379.49,-86 379.49,-122"/>
<text text-anchor="middle" x="326" y="-99.8" font-family="Times,serif" font-size="14.00">WisdomModule</text>
</g>
<!-- WisdomModule&#45;&gt;AuthConfigModule -->
<g id="edge2" class="edge">
<title>WisdomModule&#45;&gt;AuthConfigModule</title>
<path fill="none" stroke="black" d="M294.36,-122.11C294.36,-122.11 294.36,-140.99 294.36,-140.99"/>
<polygon fill="black" stroke="black" points="290.86,-140.99 294.36,-150.99 297.86,-140.99 290.86,-140.99"/>
</g>
</g>
</svg>
