<?xml version="1.0" encoding="UTF-8" standalone="no"?>
<!DOCTYPE svg PUBLIC "-//W3C//DTD SVG 1.1//EN"
 "http://www.w3.org/Graphics/SVG/1.1/DTD/svg11.dtd">
<!-- Generated by graphviz version 5.0.0 (20220707.1540)
 -->
<!-- Title: dependencies Pages: 1 -->
<svg width="816pt" height="247pt"
 viewBox="0.00 0.00 816.00 246.80" xmlns="http://www.w3.org/2000/svg" xmlns:xlink="http://www.w3.org/1999/xlink">
<g id="graph0" class="graph" transform="scale(1 1) rotate(0) translate(4 242.8)">
<title>dependencies</title>
<polygon fill="white" stroke="transparent" points="-4,4 -4,-242.8 812,-242.8 812,4 -4,4"/>
<text text-anchor="middle" x="404" y="-8.2" font-family="sans-serif" font-size="14.00">dependencies</text>
<g id="clust1" class="cluster">
<title>cluster_WisdomModule</title>
<polygon fill="none" stroke="black" stroke-dasharray="1,5" points="8,-32.8 8,-230.8 800,-230.8 800,-32.8 8,-32.8"/>
</g>
<g id="clust9" class="cluster">
<title>cluster_WisdomModule_exports</title>
<polygon fill="none" stroke="black" points="16,-170.8 16,-222.8 792,-222.8 792,-170.8 16,-170.8"/>
</g>
<g id="clust2" class="cluster">
<title>cluster_WisdomModule_declarations</title>
<polygon fill="none" stroke="black" points="24,-40.8 24,-92.8 784,-92.8 784,-40.8 24,-40.8"/>
</g>
<!-- BimComponent -->
<g id="node1" class="node">
<title>BimComponent</title>
<polygon fill="#ffffb3" stroke="black" points="775.95,-84.8 670.05,-84.8 670.05,-48.8 775.95,-48.8 775.95,-84.8"/>
<text text-anchor="middle" x="723" y="-62.6" font-family="Times,serif" font-size="14.00">BimComponent</text>
</g>
<!-- WisdomModule -->
<g id="node6" class="node">
<title>WisdomModule</title>
<polygon fill="#8dd3c7" stroke="black" points="442.49,-149.8 439.49,-153.8 418.49,-153.8 415.49,-149.8 335.51,-149.8 335.51,-113.8 442.49,-113.8 442.49,-149.8"/>
<text text-anchor="middle" x="389" y="-127.6" font-family="Times,serif" font-size="14.00">WisdomModule</text>
</g>
<!-- BimComponent&#45;&gt;WisdomModule -->
<g id="edge1" class="edge">
<title>BimComponent&#45;&gt;WisdomModule</title>
<path fill="none" stroke="black" d="M742.32,-85.07C742.32,-103.36 742.32,-128.8 742.32,-128.8 742.32,-128.8 452.66,-128.8 452.66,-128.8"/>
<polygon fill="black" stroke="black" points="452.66,-125.3 442.66,-128.8 452.66,-132.3 452.66,-125.3"/>
</g>
<!-- BreadcrumbsComponent -->
<g id="node2" class="node">
<title>BreadcrumbsComponent</title>
<polygon fill="#ffffb3" stroke="black" points="651.97,-84.8 496.03,-84.8 496.03,-48.8 651.97,-48.8 651.97,-84.8"/>
<text text-anchor="middle" x="574" y="-62.6" font-family="Times,serif" font-size="14.00">BreadcrumbsComponent</text>
</g>
<!-- BreadcrumbsComponent&#45;&gt;WisdomModule -->
<g id="edge2" class="edge">
<title>BreadcrumbsComponent&#45;&gt;WisdomModule</title>
<path fill="none" stroke="black" d="M600.75,-84.81C600.75,-100.85 600.75,-121.8 600.75,-121.8 600.75,-121.8 452.71,-121.8 452.71,-121.8"/>
<polygon fill="black" stroke="black" points="452.71,-118.3 442.71,-121.8 452.71,-125.3 452.71,-118.3"/>
</g>
<!-- BulmaIsToggleableDirective -->
<g id="node3" class="node">
<title>BulmaIsToggleableDirective</title>
<polygon fill="#ffffb3" stroke="black" points="478.5,-84.8 299.5,-84.8 299.5,-48.8 478.5,-48.8 478.5,-84.8"/>
<text text-anchor="middle" x="389" y="-62.6" font-family="Times,serif" font-size="14.00">BulmaIsToggleableDirective</text>
</g>
<!-- BulmaIsToggleableDirective&#45;&gt;WisdomModule -->
<g id="edge3" class="edge">
<title>BulmaIsToggleableDirective&#45;&gt;WisdomModule</title>
<path fill="none" stroke="black" d="M389,-84.91C389,-84.91 389,-103.79 389,-103.79"/>
<polygon fill="black" stroke="black" points="385.5,-103.79 389,-113.79 392.5,-103.79 385.5,-103.79"/>
</g>
<!-- IonIconComponent -->
<g id="node4" class="node">
<title>IonIconComponent</title>
<polygon fill="#ffffb3" stroke="black" points="281.37,-84.8 156.63,-84.8 156.63,-48.8 281.37,-48.8 281.37,-84.8"/>
<text text-anchor="middle" x="219" y="-62.6" font-family="Times,serif" font-size="14.00">IonIconComponent</text>
</g>
<!-- IonIconComponent&#45;&gt;WisdomModule -->
<g id="edge4" class="edge">
<title>IonIconComponent&#45;&gt;WisdomModule</title>
<path fill="none" stroke="black" d="M238.98,-84.81C238.98,-100.85 238.98,-121.8 238.98,-121.8 238.98,-121.8 325.26,-121.8 325.26,-121.8"/>
<polygon fill="black" stroke="black" points="325.26,-125.3 335.26,-121.8 325.26,-118.3 325.26,-125.3"/>
</g>
<!-- MapComponent -->
<g id="node5" class="node">
<title>MapComponent</title>
<polygon fill="#ffffb3" stroke="black" points="138.49,-84.8 31.51,-84.8 31.51,-48.8 138.49,-48.8 138.49,-84.8"/>
<text text-anchor="middle" x="85" y="-62.6" font-family="Times,serif" font-size="14.00">MapComponent</text>
</g>
<!-- MapComponent&#45;&gt;WisdomModule -->
<g id="edge5" class="edge">
<title>MapComponent&#45;&gt;WisdomModule</title>
<path fill="none" stroke="black" d="M100,-85.07C100,-103.36 100,-128.8 100,-128.8 100,-128.8 325.32,-128.8 325.32,-128.8"/>
<polygon fill="black" stroke="black" points="325.32,-132.3 335.32,-128.8 325.32,-125.3 325.32,-132.3"/>
</g>
<!-- BimComponent  -->
<g id="node7" class="node">
<title>BimComponent </title>
<polygon fill="#fb8072" stroke="black" points="784.45,-214.8 675.55,-214.8 675.55,-178.8 784.45,-178.8 784.45,-214.8"/>
<text text-anchor="middle" x="730" y="-192.6" font-family="Times,serif" font-size="14.00">BimComponent </text>
</g>
<!-- WisdomModule&#45;&gt;BimComponent  -->
<g id="edge6" class="edge">
<title>WisdomModule&#45;&gt;BimComponent </title>
<path fill="none" stroke="black" stroke-dasharray="5,2" d="M442.55,-135.8C533.62,-135.8 708.93,-135.8 708.93,-135.8 708.93,-135.8 708.93,-168.5 708.93,-168.5"/>
<polygon fill="black" stroke="black" points="705.43,-168.5 708.93,-178.5 712.43,-168.5 705.43,-168.5"/>
</g>
<!-- BreadcrumbsComponent  -->
<g id="node8" class="node">
<title>BreadcrumbsComponent </title>
<polygon fill="#fb8072" stroke="black" points="657.97,-214.8 498.03,-214.8 498.03,-178.8 657.97,-178.8 657.97,-214.8"/>
<text text-anchor="middle" x="578" y="-192.6" font-family="Times,serif" font-size="14.00">BreadcrumbsComponent </text>
</g>
<!-- WisdomModule&#45;&gt;BreadcrumbsComponent  -->
<g id="edge7" class="edge">
<title>WisdomModule&#45;&gt;BreadcrumbsComponent </title>
<path fill="none" stroke="black" stroke-dasharray="5,2" d="M442.89,-142.8C489.52,-142.8 549.5,-142.8 549.5,-142.8 549.5,-142.8 549.5,-168.52 549.5,-168.52"/>
<polygon fill="black" stroke="black" points="546,-168.52 549.5,-178.52 553,-168.52 546,-168.52"/>
</g>
<!-- BulmaIsToggleableDirective  -->
<g id="node9" class="node">
<title>BulmaIsToggleableDirective </title>
<polygon fill="#fb8072" stroke="black" points="480,-214.8 298,-214.8 298,-178.8 480,-178.8 480,-214.8"/>
<text text-anchor="middle" x="389" y="-192.6" font-family="Times,serif" font-size="14.00">BulmaIsToggleableDirective </text>
</g>
<!-- WisdomModule&#45;&gt;BulmaIsToggleableDirective  -->
<g id="edge8" class="edge">
<title>WisdomModule&#45;&gt;BulmaIsToggleableDirective </title>
<path fill="none" stroke="black" stroke-dasharray="5,2" d="M389,-149.91C389,-149.91 389,-168.79 389,-168.79"/>
<polygon fill="black" stroke="black" points="385.5,-168.79 389,-178.79 392.5,-168.79 385.5,-168.79"/>
</g>
<!-- IonIconComponent  -->
<g id="node10" class="node">
<title>IonIconComponent </title>
<polygon fill="#fb8072" stroke="black" points="280.37,-214.8 151.63,-214.8 151.63,-178.8 280.37,-178.8 280.37,-214.8"/>
<text text-anchor="middle" x="216" y="-192.6" font-family="Times,serif" font-size="14.00">IonIconComponent </text>
</g>
<!-- WisdomModule&#45;&gt;IonIconComponent  -->
<g id="edge9" class="edge">
<title>WisdomModule&#45;&gt;IonIconComponent </title>
<path fill="none" stroke="black" stroke-dasharray="5,2" d="M335.48,-142.8C278.91,-142.8 197.77,-142.8 197.77,-142.8 197.77,-142.8 197.77,-168.52 197.77,-168.52"/>
<polygon fill="black" stroke="black" points="194.27,-168.52 197.77,-178.52 201.27,-168.52 194.27,-168.52"/>
</g>
<!-- MapComponent  -->
<g id="node11" class="node">
<title>MapComponent </title>
<polygon fill="#fb8072" stroke="black" points="134.49,-214.8 23.51,-214.8 23.51,-178.8 134.49,-178.8 134.49,-214.8"/>
<text text-anchor="middle" x="79" y="-192.6" font-family="Times,serif" font-size="14.00">MapComponent </text>
</g>
<!-- WisdomModule&#45;&gt;MapComponent  -->
<g id="edge10" class="edge">
<title>WisdomModule&#45;&gt;MapComponent </title>
<path fill="none" stroke="black" stroke-dasharray="5,2" d="M335.26,-135.8C243.34,-135.8 65.75,-135.8 65.75,-135.8 65.75,-135.8 65.75,-168.5 65.75,-168.5"/>
<polygon fill="black" stroke="black" points="62.25,-168.5 65.75,-178.5 69.25,-168.5 62.25,-168.5"/>
</g>
</g>
</svg>
