<?xml version="1.0" encoding="UTF-8" standalone="no"?>
<!DOCTYPE svg PUBLIC "-//W3C//DTD SVG 1.1//EN"
 "http://www.w3.org/Graphics/SVG/1.1/DTD/svg11.dtd">
<!-- Generated by graphviz version 2.47.3 (20210619.1520)
 -->
<!-- Title: dependencies Pages: 1 -->
<svg width="690pt" height="247pt"
 viewBox="0.00 0.00 690.00 246.80" xmlns="http://www.w3.org/2000/svg" xmlns:xlink="http://www.w3.org/1999/xlink">
<g id="graph0" class="graph" transform="scale(1 1) rotate(0) translate(4 242.8)">
<title>dependencies</title>
<polygon fill="white" stroke="transparent" points="-4,4 -4,-242.8 686,-242.8 686,4 -4,4"/>
<text text-anchor="middle" x="341" y="-8.2" font-family="sans-serif" font-size="14.00">dependencies</text>
<g id="clust1" class="cluster">
<title>cluster_WisdomModule</title>
<polygon fill="none" stroke="black" stroke-dasharray="1,5" points="8,-32.8 8,-230.8 674,-230.8 674,-32.8 8,-32.8"/>
</g>
<g id="clust2" class="cluster">
<title>cluster_WisdomModule_declarations</title>
<polygon fill="none" stroke="black" points="24,-40.8 24,-92.8 660,-92.8 660,-40.8 24,-40.8"/>
</g>
<g id="clust8" class="cluster">
<title>cluster_WisdomModule_exports</title>
<polygon fill="none" stroke="black" points="16,-170.8 16,-222.8 666,-222.8 666,-170.8 16,-170.8"/>
</g>
<!-- BreadcrumbsComponent -->
<g id="node1" class="node">
<title>BreadcrumbsComponent</title>
<polygon fill="#ffffb3" stroke="black" points="651.97,-84.8 496.03,-84.8 496.03,-48.8 651.97,-48.8 651.97,-84.8"/>
<text text-anchor="middle" x="574" y="-62.6" font-family="Times,serif" font-size="14.00">BreadcrumbsComponent</text>
</g>
<!-- WisdomModule -->
<g id="node5" class="node">
<title>WisdomModule</title>
<polygon fill="#8dd3c7" stroke="black" points="274.49,-149.8 271.49,-153.8 250.49,-153.8 247.49,-149.8 167.51,-149.8 167.51,-113.8 274.49,-113.8 274.49,-149.8"/>
<text text-anchor="middle" x="221" y="-127.6" font-family="Times,serif" font-size="14.00">WisdomModule</text>
</g>
<!-- BreadcrumbsComponent&#45;&gt;WisdomModule -->
<g id="edge1" class="edge">
<title>BreadcrumbsComponent&#45;&gt;WisdomModule</title>
<path fill="none" stroke="black" d="M600.74,-85.07C600.74,-103.36 600.74,-128.8 600.74,-128.8 600.74,-128.8 284.6,-128.8 284.6,-128.8"/>
<polygon fill="black" stroke="black" points="284.6,-125.3 274.6,-128.8 284.6,-132.3 284.6,-125.3"/>
</g>
<!-- BulmaIsToggleableDirective -->
<g id="node2" class="node">
<title>BulmaIsToggleableDirective</title>
<polygon fill="#ffffb3" stroke="black" points="478.5,-84.8 299.5,-84.8 299.5,-48.8 478.5,-48.8 478.5,-84.8"/>
<text text-anchor="middle" x="389" y="-62.6" font-family="Times,serif" font-size="14.00">BulmaIsToggleableDirective</text>
</g>
<!-- BulmaIsToggleableDirective&#45;&gt;WisdomModule -->
<g id="edge2" class="edge">
<title>BulmaIsToggleableDirective&#45;&gt;WisdomModule</title>
<path fill="none" stroke="black" d="M418.75,-84.81C418.75,-100.85 418.75,-121.8 418.75,-121.8 418.75,-121.8 284.51,-121.8 284.51,-121.8"/>
<polygon fill="black" stroke="black" points="284.51,-118.3 274.51,-121.8 284.51,-125.3 284.51,-118.3"/>
</g>
<!-- IonIconComponent -->
<g id="node3" class="node">
<title>IonIconComponent</title>
<polygon fill="#ffffb3" stroke="black" points="281.37,-84.8 156.63,-84.8 156.63,-48.8 281.37,-48.8 281.37,-84.8"/>
<text text-anchor="middle" x="219" y="-62.6" font-family="Times,serif" font-size="14.00">IonIconComponent</text>
</g>
<!-- IonIconComponent&#45;&gt;WisdomModule -->
<g id="edge3" class="edge">
<title>IonIconComponent&#45;&gt;WisdomModule</title>
<path fill="none" stroke="black" d="M221,-84.91C221,-84.91 221,-103.79 221,-103.79"/>
<polygon fill="black" stroke="black" points="217.5,-103.79 221,-113.79 224.5,-103.79 217.5,-103.79"/>
</g>
<!-- MapComponent -->
<g id="node4" class="node">
<title>MapComponent</title>
<polygon fill="#ffffb3" stroke="black" points="138.49,-84.8 31.51,-84.8 31.51,-48.8 138.49,-48.8 138.49,-84.8"/>
<text text-anchor="middle" x="85" y="-62.6" font-family="Times,serif" font-size="14.00">MapComponent</text>
</g>
<!-- MapComponent&#45;&gt;WisdomModule -->
<g id="edge4" class="edge">
<title>MapComponent&#45;&gt;WisdomModule</title>
<path fill="none" stroke="black" d="M100,-84.82C100,-102.17 100,-125.8 100,-125.8 100,-125.8 157.22,-125.8 157.22,-125.8"/>
<polygon fill="black" stroke="black" points="157.22,-129.3 167.22,-125.8 157.22,-122.3 157.22,-129.3"/>
</g>
<!-- BreadcrumbsComponent  -->
<g id="node6" class="node">
<title>BreadcrumbsComponent </title>
<polygon fill="#fb8072" stroke="black" points="657.97,-214.8 498.03,-214.8 498.03,-178.8 657.97,-178.8 657.97,-214.8"/>
<text text-anchor="middle" x="578" y="-192.6" font-family="Times,serif" font-size="14.00">BreadcrumbsComponent </text>
</g>
<!-- WisdomModule&#45;&gt;BreadcrumbsComponent  -->
<g id="edge5" class="edge">
<title>WisdomModule&#45;&gt;BreadcrumbsComponent </title>
<path fill="none" stroke="black" stroke-dasharray="5,2" d="M274.51,-135.8C367.6,-135.8 549.51,-135.8 549.51,-135.8 549.51,-135.8 549.51,-168.5 549.51,-168.5"/>
<polygon fill="black" stroke="black" points="546.01,-168.5 549.51,-178.5 553.01,-168.5 546.01,-168.5"/>
</g>
<!-- BulmaIsToggleableDirective  -->
<g id="node7" class="node">
<title>BulmaIsToggleableDirective </title>
<polygon fill="#fb8072" stroke="black" points="480,-214.8 298,-214.8 298,-178.8 480,-178.8 480,-214.8"/>
<text text-anchor="middle" x="389" y="-192.6" font-family="Times,serif" font-size="14.00">BulmaIsToggleableDirective </text>
</g>
<!-- WisdomModule&#45;&gt;BulmaIsToggleableDirective  -->
<g id="edge6" class="edge">
<title>WisdomModule&#45;&gt;BulmaIsToggleableDirective </title>
<path fill="none" stroke="black" stroke-dasharray="5,2" d="M274.85,-142.8C313.67,-142.8 359.25,-142.8 359.25,-142.8 359.25,-142.8 359.25,-168.52 359.25,-168.52"/>
<polygon fill="black" stroke="black" points="355.75,-168.52 359.25,-178.52 362.75,-168.52 355.75,-168.52"/>
</g>
<!-- IonIconComponent  -->
<g id="node8" class="node">
<title>IonIconComponent </title>
<polygon fill="#fb8072" stroke="black" points="280.37,-214.8 151.63,-214.8 151.63,-178.8 280.37,-178.8 280.37,-214.8"/>
<text text-anchor="middle" x="216" y="-192.6" font-family="Times,serif" font-size="14.00">IonIconComponent </text>
</g>
<!-- WisdomModule&#45;&gt;IonIconComponent  -->
<g id="edge7" class="edge">
<title>WisdomModule&#45;&gt;IonIconComponent </title>
<path fill="none" stroke="black" stroke-dasharray="5,2" d="M221,-149.91C221,-149.91 221,-168.79 221,-168.79"/>
<polygon fill="black" stroke="black" points="217.5,-168.79 221,-178.79 224.5,-168.79 217.5,-168.79"/>
</g>
<!-- MapComponent  -->
<g id="node9" class="node">
<title>MapComponent </title>
<polygon fill="#fb8072" stroke="black" points="134.49,-214.8 23.51,-214.8 23.51,-178.8 134.49,-178.8 134.49,-214.8"/>
<text text-anchor="middle" x="79" y="-192.6" font-family="Times,serif" font-size="14.00">MapComponent </text>
</g>
<!-- WisdomModule&#45;&gt;MapComponent  -->
<g id="edge8" class="edge">
<title>WisdomModule&#45;&gt;MapComponent </title>
<path fill="none" stroke="black" stroke-dasharray="5,2" d="M167.14,-137.8C122.3,-137.8 65.75,-137.8 65.75,-137.8 65.75,-137.8 65.75,-168.78 65.75,-168.78"/>
<polygon fill="black" stroke="black" points="62.25,-168.78 65.75,-178.78 69.25,-168.78 62.25,-168.78"/>
</g>
</g>
</svg>
