<?xml version="1.0" encoding="UTF-8" standalone="no"?>
<!DOCTYPE svg PUBLIC "-//W3C//DTD SVG 1.1//EN"
 "http://www.w3.org/Graphics/SVG/1.1/DTD/svg11.dtd">
<!-- Generated by graphviz version 2.47.3 (20210619.1520)
 -->
<!-- Title: dependencies Pages: 1 -->
<svg width="384pt" height="247pt"
 viewBox="0.00 0.00 384.00 246.80" xmlns="http://www.w3.org/2000/svg" xmlns:xlink="http://www.w3.org/1999/xlink">
<g id="graph0" class="graph" transform="scale(1 1) rotate(0) translate(4 242.8)">
<title>dependencies</title>
<polygon fill="white" stroke="transparent" points="-4,4 -4,-242.8 380,-242.8 380,4 -4,4"/>
<text text-anchor="middle" x="188" y="-8.2" font-family="sans-serif" font-size="14.00">dependencies</text>
<g id="clust1" class="cluster">
<title>cluster_WisdomModule</title>
<polygon fill="none" stroke="black" stroke-dasharray="1,5" points="8,-32.8 8,-230.8 368,-230.8 368,-32.8 8,-32.8"/>
</g>
<g id="clust6" class="cluster">
<title>cluster_WisdomModule_exports</title>
<polygon fill="none" stroke="black" points="16,-170.8 16,-222.8 360,-222.8 360,-170.8 16,-170.8"/>
</g>
<g id="clust2" class="cluster">
<title>cluster_WisdomModule_declarations</title>
<polygon fill="none" stroke="black" points="20,-40.8 20,-92.8 357,-92.8 357,-40.8 20,-40.8"/>
</g>
<!-- BulmaIsToggleableDirective -->
<g id="node1" class="node">
<title>BulmaIsToggleableDirective</title>
<polygon fill="#ffffb3" stroke="black" points="349.5,-84.8 170.5,-84.8 170.5,-48.8 349.5,-48.8 349.5,-84.8"/>
<text text-anchor="middle" x="260" y="-62.6" font-family="Times,serif" font-size="14.00">BulmaIsToggleableDirective</text>
</g>
<!-- WisdomModule -->
<g id="node3" class="node">
<title>WisdomModule</title>
<polygon fill="#8dd3c7" stroke="black" points="144.49,-149.8 141.49,-153.8 120.49,-153.8 117.49,-149.8 37.51,-149.8 37.51,-113.8 144.49,-113.8 144.49,-149.8"/>
<text text-anchor="middle" x="91" y="-127.6" font-family="Times,serif" font-size="14.00">WisdomModule</text>
</g>
<!-- BulmaIsToggleableDirective&#45;&gt;WisdomModule -->
<g id="edge1" class="edge">
<title>BulmaIsToggleableDirective&#45;&gt;WisdomModule</title>
<path fill="none" stroke="black" d="M289.75,-84.82C289.75,-102.17 289.75,-125.8 289.75,-125.8 289.75,-125.8 154.52,-125.8 154.52,-125.8"/>
<polygon fill="black" stroke="black" points="154.52,-122.3 144.52,-125.8 154.52,-129.3 154.52,-122.3"/>
</g>
<!-- IonIconComponent -->
<g id="node2" class="node">
<title>IonIconComponent</title>
<polygon fill="#ffffb3" stroke="black" points="152.37,-84.8 27.63,-84.8 27.63,-48.8 152.37,-48.8 152.37,-84.8"/>
<text text-anchor="middle" x="90" y="-62.6" font-family="Times,serif" font-size="14.00">IonIconComponent</text>
</g>
<!-- IonIconComponent&#45;&gt;WisdomModule -->
<g id="edge2" class="edge">
<title>IonIconComponent&#45;&gt;WisdomModule</title>
<path fill="none" stroke="black" d="M91,-84.91C91,-84.91 91,-103.79 91,-103.79"/>
<polygon fill="black" stroke="black" points="87.5,-103.79 91,-113.79 94.5,-103.79 87.5,-103.79"/>
</g>
<!-- BulmaIsToggleableDirective  -->
<g id="node4" class="node">
<title>BulmaIsToggleableDirective </title>
<polygon fill="#fb8072" stroke="black" points="352,-214.8 170,-214.8 170,-178.8 352,-178.8 352,-214.8"/>
<text text-anchor="middle" x="261" y="-192.6" font-family="Times,serif" font-size="14.00">BulmaIsToggleableDirective </text>
</g>
<!-- WisdomModule&#45;&gt;BulmaIsToggleableDirective  -->
<g id="edge3" class="edge">
<title>WisdomModule&#45;&gt;BulmaIsToggleableDirective </title>
<path fill="none" stroke="black" stroke-dasharray="5,2" d="M144.84,-137.8C184.02,-137.8 230.25,-137.8 230.25,-137.8 230.25,-137.8 230.25,-168.78 230.25,-168.78"/>
<polygon fill="black" stroke="black" points="226.75,-168.78 230.25,-178.78 233.75,-168.78 226.75,-168.78"/>
</g>
<!-- IonIconComponent  -->
<g id="node5" class="node">
<title>IonIconComponent </title>
<polygon fill="#fb8072" stroke="black" points="152.37,-214.8 23.63,-214.8 23.63,-178.8 152.37,-178.8 152.37,-214.8"/>
<text text-anchor="middle" x="88" y="-192.6" font-family="Times,serif" font-size="14.00">IonIconComponent </text>
</g>
<!-- WisdomModule&#45;&gt;IonIconComponent  -->
<g id="edge4" class="edge">
<title>WisdomModule&#45;&gt;IonIconComponent </title>
<path fill="none" stroke="black" stroke-dasharray="5,2" d="M91,-149.91C91,-149.91 91,-168.79 91,-168.79"/>
<polygon fill="black" stroke="black" points="87.5,-168.79 91,-178.79 94.5,-168.79 87.5,-168.79"/>
</g>
</g>
</svg>
