<?xml version="1.0" encoding="UTF-8" standalone="no"?>
<!DOCTYPE svg PUBLIC "-//W3C//DTD SVG 1.1//EN"
 "http://www.w3.org/Graphics/SVG/1.1/DTD/svg11.dtd">
<!-- Generated by graphviz version 2.47.3 (20210619.1520)
 -->
<!-- Title: dependencies Pages: 1 -->
<svg width="624pt" height="247pt"
 viewBox="0.00 0.00 624.00 246.80" xmlns="http://www.w3.org/2000/svg" xmlns:xlink="http://www.w3.org/1999/xlink">
<g id="graph0" class="graph" transform="scale(1 1) rotate(0) translate(4 242.8)">
<title>dependencies</title>
<polygon fill="white" stroke="transparent" points="-4,4 -4,-242.8 620,-242.8 620,4 -4,4"/>
<text text-anchor="middle" x="308" y="-8.2" font-family="sans-serif" font-size="14.00">dependencies</text>
<g id="clust1" class="cluster">
<title>cluster_WisdomModule</title>
<polygon fill="none" stroke="black" stroke-dasharray="1,5" points="8,-32.8 8,-230.8 608,-230.8 608,-32.8 8,-32.8"/>
</g>
<g id="clust2" class="cluster">
<title>cluster_WisdomModule_declarations</title>
<polygon fill="none" stroke="black" points="79,-40.8 79,-92.8 541,-92.8 541,-40.8 79,-40.8"/>
</g>
<g id="clust7" class="cluster">
<title>cluster_WisdomModule_exports</title>
<polygon fill="none" stroke="black" points="16,-170.8 16,-222.8 600,-222.8 600,-170.8 16,-170.8"/>
</g>
<!-- BulmaIsToggleableDirective -->
<g id="node1" class="node">
<title>BulmaIsToggleableDirective</title>
<polygon fill="#ffffb3" stroke="black" points="533.5,-84.8 354.5,-84.8 354.5,-48.8 533.5,-48.8 533.5,-84.8"/>
<text text-anchor="middle" x="444" y="-62.6" font-family="Times,serif" font-size="14.00">BulmaIsToggleableDirective</text>
</g>
<!-- WisdomModule -->
<g id="node4" class="node">
<title>WisdomModule</title>
<polygon fill="#8dd3c7" stroke="black" points="327.49,-149.8 324.49,-153.8 303.49,-153.8 300.49,-149.8 220.51,-149.8 220.51,-113.8 327.49,-113.8 327.49,-149.8"/>
<text text-anchor="middle" x="274" y="-127.6" font-family="Times,serif" font-size="14.00">WisdomModule</text>
</g>
<!-- BulmaIsToggleableDirective&#45;&gt;WisdomModule -->
<g id="edge1" class="edge">
<title>BulmaIsToggleableDirective&#45;&gt;WisdomModule</title>
<path fill="none" stroke="black" d="M373.41,-84.82C373.41,-102.17 373.41,-125.8 373.41,-125.8 373.41,-125.8 337.78,-125.8 337.78,-125.8"/>
<polygon fill="black" stroke="black" points="337.78,-122.3 327.78,-125.8 337.78,-129.3 337.78,-122.3"/>
</g>
<!-- IonIconComponent -->
<g id="node2" class="node">
<title>IonIconComponent</title>
<polygon fill="#ffffb3" stroke="black" points="336.37,-84.8 211.63,-84.8 211.63,-48.8 336.37,-48.8 336.37,-84.8"/>
<text text-anchor="middle" x="274" y="-62.6" font-family="Times,serif" font-size="14.00">IonIconComponent</text>
</g>
<!-- IonIconComponent&#45;&gt;WisdomModule -->
<g id="edge2" class="edge">
<title>IonIconComponent&#45;&gt;WisdomModule</title>
<path fill="none" stroke="black" d="M274,-84.91C274,-84.91 274,-103.79 274,-103.79"/>
<polygon fill="black" stroke="black" points="270.5,-103.79 274,-113.79 277.5,-103.79 270.5,-103.79"/>
</g>
<!-- MapComponent -->
<g id="node3" class="node">
<title>MapComponent</title>
<polygon fill="#ffffb3" stroke="black" points="193.49,-84.8 86.51,-84.8 86.51,-48.8 193.49,-48.8 193.49,-84.8"/>
<text text-anchor="middle" x="140" y="-62.6" font-family="Times,serif" font-size="14.00">MapComponent</text>
</g>
<!-- MapComponent&#45;&gt;WisdomModule -->
<g id="edge3" class="edge">
<title>MapComponent&#45;&gt;WisdomModule</title>
<path fill="none" stroke="black" d="M172.66,-84.82C172.66,-102.17 172.66,-125.8 172.66,-125.8 172.66,-125.8 210.36,-125.8 210.36,-125.8"/>
<polygon fill="black" stroke="black" points="210.36,-129.3 220.36,-125.8 210.36,-122.3 210.36,-129.3"/>
</g>
<!-- BulmaIsToggleableDirective  -->
<g id="node5" class="node">
<title>BulmaIsToggleableDirective </title>
<polygon fill="#fb8072" stroke="black" points="592,-214.8 410,-214.8 410,-178.8 592,-178.8 592,-214.8"/>
<text text-anchor="middle" x="501" y="-192.6" font-family="Times,serif" font-size="14.00">BulmaIsToggleableDirective </text>
</g>
<!-- WisdomModule&#45;&gt;BulmaIsToggleableDirective  -->
<g id="edge4" class="edge">
<title>WisdomModule&#45;&gt;BulmaIsToggleableDirective </title>
<path fill="none" stroke="black" stroke-dasharray="5,2" d="M327.74,-137.8C386.26,-137.8 471.62,-137.8 471.62,-137.8 471.62,-137.8 471.62,-168.78 471.62,-168.78"/>
<polygon fill="black" stroke="black" points="468.13,-168.78 471.62,-178.78 475.13,-168.78 468.13,-168.78"/>
</g>
<!-- ChartModule  -->
<g id="node6" class="node">
<title>ChartModule </title>
<polygon fill="#fb8072" stroke="black" points="392.15,-214.8 297.85,-214.8 297.85,-178.8 392.15,-178.8 392.15,-214.8"/>
<text text-anchor="middle" x="345" y="-192.6" font-family="Times,serif" font-size="14.00">ChartModule </text>
</g>
<!-- WisdomModule&#45;&gt;ChartModule  -->
<g id="edge5" class="edge">
<title>WisdomModule&#45;&gt;ChartModule </title>
<path fill="none" stroke="black" stroke-dasharray="5,2" d="M312.71,-149.91C312.71,-149.91 312.71,-168.79 312.71,-168.79"/>
<polygon fill="black" stroke="black" points="309.21,-168.79 312.71,-178.79 316.21,-168.79 309.21,-168.79"/>
</g>
<!-- IonIconComponent  -->
<g id="node7" class="node">
<title>IonIconComponent </title>
<polygon fill="#fb8072" stroke="black" points="280.37,-214.8 151.63,-214.8 151.63,-178.8 280.37,-178.8 280.37,-214.8"/>
<text text-anchor="middle" x="216" y="-192.6" font-family="Times,serif" font-size="14.00">IonIconComponent </text>
</g>
<!-- WisdomModule&#45;&gt;IonIconComponent  -->
<g id="edge6" class="edge">
<title>WisdomModule&#45;&gt;IonIconComponent </title>
<path fill="none" stroke="black" stroke-dasharray="5,2" d="M250.34,-149.91C250.34,-149.91 250.34,-168.79 250.34,-168.79"/>
<polygon fill="black" stroke="black" points="246.84,-168.79 250.34,-178.79 253.84,-168.79 246.84,-168.79"/>
</g>
<!-- MapComponent  -->
<g id="node8" class="node">
<title>MapComponent </title>
<polygon fill="#fb8072" stroke="black" points="134.49,-214.8 23.51,-214.8 23.51,-178.8 134.49,-178.8 134.49,-214.8"/>
<text text-anchor="middle" x="79" y="-192.6" font-family="Times,serif" font-size="14.00">MapComponent </text>
</g>
<!-- WisdomModule&#45;&gt;MapComponent  -->
<g id="edge7" class="edge">
<title>WisdomModule&#45;&gt;MapComponent </title>
<path fill="none" stroke="black" stroke-dasharray="5,2" d="M220.42,-137.8C172.7,-137.8 110.38,-137.8 110.38,-137.8 110.38,-137.8 110.38,-168.78 110.38,-168.78"/>
<polygon fill="black" stroke="black" points="106.88,-168.78 110.38,-178.78 113.88,-168.78 106.88,-168.78"/>
</g>
</g>
</svg>
