<?xml version="1.0" encoding="UTF-8" standalone="no"?>
<!DOCTYPE svg PUBLIC "-//W3C//DTD SVG 1.1//EN"
 "http://www.w3.org/Graphics/SVG/1.1/DTD/svg11.dtd">
<!-- Generated by graphviz version 2.47.0 (20210316.0004)
 -->
<!-- Title: dependencies Pages: 1 -->
<svg width="1291pt" height="284pt"
 viewBox="0.00 0.00 1291.00 284.00" xmlns="http://www.w3.org/2000/svg" xmlns:xlink="http://www.w3.org/1999/xlink">
<g id="graph0" class="graph" transform="scale(1 1) rotate(0) translate(4 280)">
<title>dependencies</title>
<polygon fill="white" stroke="transparent" points="-4,4 -4,-280 1287,-280 1287,4 -4,4"/>
<text text-anchor="start" x="620.51" y="-42.4" font-family="Times-12" font-weight="bold" font-size="14.00">Legend</text>
<polygon fill="#ffffb3" stroke="transparent" points="407.5,-10 407.5,-30 427.5,-30 427.5,-10 407.5,-10"/>
<text text-anchor="start" x="431.13" y="-15.4" font-family="Times-12" font-size="14.00"> &#160;Declarations</text>
<polygon fill="#8dd3c7" stroke="transparent" points="520.5,-10 520.5,-30 540.5,-30 540.5,-10 520.5,-10"/>
<text text-anchor="start" x="544.23" y="-15.4" font-family="Times-12" font-size="14.00"> &#160;Module</text>
<polygon fill="#80b1d3" stroke="transparent" points="606.5,-10 606.5,-30 626.5,-30 626.5,-10 606.5,-10"/>
<text text-anchor="start" x="630.28" y="-15.4" font-family="Times-12" font-size="14.00"> &#160;Bootstrap</text>
<polygon fill="#fdb462" stroke="transparent" points="703.5,-10 703.5,-30 723.5,-30 723.5,-10 703.5,-10"/>
<text text-anchor="start" x="727.17" y="-15.4" font-family="Times-12" font-size="14.00"> &#160;Providers</text>
<polygon fill="#fb8072" stroke="transparent" points="799.5,-10 799.5,-30 819.5,-30 819.5,-10 799.5,-10"/>
<text text-anchor="start" x="823.23" y="-15.4" font-family="Times-12" font-size="14.00"> &#160;Exports</text>
<g id="clust1" class="cluster">
<title>cluster_WisdomModule</title>
<polygon fill="none" stroke="black" stroke-dasharray="1,5" points="8,-70 8,-268 1275,-268 1275,-70 8,-70"/>
</g>
<g id="clust2" class="cluster">
<title>cluster_WisdomModule_declarations</title>
<polygon fill="none" stroke="black" points="33,-78 33,-130 1256,-130 1256,-78 33,-78"/>
</g>
<g id="clust12" class="cluster">
<title>cluster_WisdomModule_exports</title>
<polygon fill="none" stroke="black" points="16,-208 16,-260 1267,-260 1267,-208 16,-208"/>
</g>
<!-- BreadcrumbsComponent -->
<g id="node1" class="node">
<title>BreadcrumbsComponent</title>
<polygon fill="#ffffb3" stroke="black" points="1247.97,-122 1092.03,-122 1092.03,-86 1247.97,-86 1247.97,-122"/>
<text text-anchor="middle" x="1170" y="-99.8" font-family="Times,serif" font-size="14.00">BreadcrumbsComponent</text>
</g>
<!-- WisdomModule -->
<g id="node9" class="node">
<title>WisdomModule</title>
<polygon fill="#8dd3c7" stroke="black" points="544.49,-187 541.49,-191 520.49,-191 517.49,-187 437.51,-187 437.51,-151 544.49,-151 544.49,-187"/>
<text text-anchor="middle" x="491" y="-164.8" font-family="Times,serif" font-size="14.00">WisdomModule</text>
</g>
<!-- BreadcrumbsComponent&#45;&gt;WisdomModule -->
<g id="edge1" class="edge">
<title>BreadcrumbsComponent&#45;&gt;WisdomModule</title>
<path fill="none" stroke="black" d="M1095.64,-122.22C1095.64,-140.83 1095.64,-167 1095.64,-167 1095.64,-167 554.66,-167 554.66,-167"/>
<polygon fill="black" stroke="black" points="554.66,-163.5 544.66,-167 554.66,-170.5 554.66,-163.5"/>
</g>
<!-- BulmaCalendarDirective -->
<g id="node2" class="node">
<title>BulmaCalendarDirective</title>
<polygon fill="#ffffb3" stroke="black" points="1073.95,-122 918.05,-122 918.05,-86 1073.95,-86 1073.95,-122"/>
<text text-anchor="middle" x="996" y="-99.8" font-family="Times,serif" font-size="14.00">BulmaCalendarDirective</text>
</g>
<!-- BulmaCalendarDirective&#45;&gt;WisdomModule -->
<g id="edge2" class="edge">
<title>BulmaCalendarDirective&#45;&gt;WisdomModule</title>
<path fill="none" stroke="black" d="M1023.41,-122.02C1023.41,-139.37 1023.41,-163 1023.41,-163 1023.41,-163 554.98,-163 554.98,-163"/>
<polygon fill="black" stroke="black" points="554.98,-159.5 544.98,-163 554.98,-166.5 554.98,-159.5"/>
</g>
<!-- BulmaIsToggleableDirective -->
<g id="node3" class="node">
<title>BulmaIsToggleableDirective</title>
<polygon fill="#ffffb3" stroke="black" points="900.5,-122 721.5,-122 721.5,-86 900.5,-86 900.5,-122"/>
<text text-anchor="middle" x="811" y="-99.8" font-family="Times,serif" font-size="14.00">BulmaIsToggleableDirective</text>
</g>
<!-- BulmaIsToggleableDirective&#45;&gt;WisdomModule -->
<g id="edge3" class="edge">
<title>BulmaIsToggleableDirective&#45;&gt;WisdomModule</title>
<path fill="none" stroke="black" d="M840.83,-122.01C840.83,-138.05 840.83,-159 840.83,-159 840.83,-159 554.51,-159 554.51,-159"/>
<polygon fill="black" stroke="black" points="554.51,-155.5 544.51,-159 554.51,-162.5 554.51,-155.5"/>
</g>
<!-- DragDropComponent -->
<g id="node4" class="node">
<title>DragDropComponent</title>
<polygon fill="#ffffb3" stroke="black" points="704.08,-122 565.92,-122 565.92,-86 704.08,-86 704.08,-122"/>
<text text-anchor="middle" x="635" y="-99.8" font-family="Times,serif" font-size="14.00">DragDropComponent</text>
</g>
<!-- DragDropComponent&#45;&gt;WisdomModule -->
<g id="edge4" class="edge">
<title>DragDropComponent&#45;&gt;WisdomModule</title>
<path fill="none" stroke="black" d="M611.9,-122.12C611.9,-136.78 611.9,-155 611.9,-155 611.9,-155 554.73,-155 554.73,-155"/>
<polygon fill="black" stroke="black" points="554.73,-151.5 544.73,-155 554.73,-158.5 554.73,-151.5"/>
</g>
<!-- DragDropDirective -->
<g id="node5" class="node">
<title>DragDropDirective</title>
<polygon fill="#ffffb3" stroke="black" points="548.33,-122 423.67,-122 423.67,-86 548.33,-86 548.33,-122"/>
<text text-anchor="middle" x="486" y="-99.8" font-family="Times,serif" font-size="14.00">DragDropDirective</text>
</g>
<!-- DragDropDirective&#45;&gt;WisdomModule -->
<g id="edge5" class="edge">
<title>DragDropDirective&#45;&gt;WisdomModule</title>
<path fill="none" stroke="black" d="M491,-122.11C491,-122.11 491,-140.99 491,-140.99"/>
<polygon fill="black" stroke="black" points="487.5,-140.99 491,-150.99 494.5,-140.99 487.5,-140.99"/>
</g>
<!-- IfcComponent -->
<g id="node6" class="node">
<title>IfcComponent</title>
<polygon fill="#ffffb3" stroke="black" points="405.37,-122 308.63,-122 308.63,-86 405.37,-86 405.37,-122"/>
<text text-anchor="middle" x="357" y="-99.8" font-family="Times,serif" font-size="14.00">IfcComponent</text>
</g>
<!-- IfcComponent&#45;&gt;WisdomModule -->
<g id="edge6" class="edge">
<title>IfcComponent&#45;&gt;WisdomModule</title>
<path fill="none" stroke="black" d="M401.81,-122.24C401.81,-137.57 401.81,-157 401.81,-157 401.81,-157 427.32,-157 427.32,-157"/>
<polygon fill="black" stroke="black" points="427.32,-160.5 437.32,-157 427.32,-153.5 427.32,-160.5"/>
</g>
<!-- IonIconComponent -->
<g id="node7" class="node">
<title>IonIconComponent</title>
<polygon fill="#ffffb3" stroke="black" points="290.37,-122 165.63,-122 165.63,-86 290.37,-86 290.37,-122"/>
<text text-anchor="middle" x="228" y="-99.8" font-family="Times,serif" font-size="14.00">IonIconComponent</text>
</g>
<!-- IonIconComponent&#45;&gt;WisdomModule -->
<g id="edge7" class="edge">
<title>IonIconComponent&#45;&gt;WisdomModule</title>
<path fill="none" stroke="black" d="M285.31,-122.03C285.31,-139.06 285.31,-162 285.31,-162 285.31,-162 427.49,-162 427.49,-162"/>
<polygon fill="black" stroke="black" points="427.49,-165.5 437.49,-162 427.49,-158.5 427.49,-165.5"/>
</g>
<!-- MapComponent -->
<g id="node8" class="node">
<title>MapComponent</title>
<polygon fill="#ffffb3" stroke="black" points="147.49,-122 40.51,-122 40.51,-86 147.49,-86 147.49,-122"/>
<text text-anchor="middle" x="94" y="-99.8" font-family="Times,serif" font-size="14.00">MapComponent</text>
</g>
<!-- MapComponent&#45;&gt;WisdomModule -->
<g id="edge8" class="edge">
<title>MapComponent&#45;&gt;WisdomModule</title>
<path fill="none" stroke="black" d="M140.87,-122.22C140.87,-140.83 140.87,-167 140.87,-167 140.87,-167 427.44,-167 427.44,-167"/>
<polygon fill="black" stroke="black" points="427.44,-170.5 437.44,-167 427.44,-163.5 427.44,-170.5"/>
</g>
<!-- BreadcrumbsComponent  -->
<g id="node10" class="node">
<title>BreadcrumbsComponent </title>
<polygon fill="#fb8072" stroke="black" points="1258.97,-252 1099.03,-252 1099.03,-216 1258.97,-216 1258.97,-252"/>
<text text-anchor="middle" x="1179" y="-229.8" font-family="Times,serif" font-size="14.00">BreadcrumbsComponent </text>
</g>
<!-- WisdomModule&#45;&gt;BreadcrumbsComponent  -->
<g id="edge9" class="edge">
<title>WisdomModule&#45;&gt;BreadcrumbsComponent </title>
<path fill="none" stroke="black" stroke-dasharray="5,2" d="M544.56,-171C705.49,-171 1173.62,-171 1173.62,-171 1173.62,-171 1173.62,-205.78 1173.62,-205.78"/>
<polygon fill="black" stroke="black" points="1170.13,-205.78 1173.62,-215.78 1177.13,-205.78 1170.13,-205.78"/>
</g>
<!-- BulmaCalendarDirective  -->
<g id="node11" class="node">
<title>BulmaCalendarDirective </title>
<polygon fill="#fb8072" stroke="black" points="1081.95,-252 922.05,-252 922.05,-216 1081.95,-216 1081.95,-252"/>
<text text-anchor="middle" x="1002" y="-229.8" font-family="Times,serif" font-size="14.00">BulmaCalendarDirective </text>
</g>
<!-- WisdomModule&#45;&gt;BulmaCalendarDirective  -->
<g id="edge10" class="edge">
<title>WisdomModule&#45;&gt;BulmaCalendarDirective </title>
<path fill="none" stroke="black" stroke-dasharray="5,2" d="M544.87,-175C670.61,-175 972.84,-175 972.84,-175 972.84,-175 972.84,-205.98 972.84,-205.98"/>
<polygon fill="black" stroke="black" points="969.34,-205.98 972.84,-215.98 976.34,-205.98 969.34,-205.98"/>
</g>
<!-- BulmaIsToggleableDirective  -->
<g id="node12" class="node">
<title>BulmaIsToggleableDirective </title>
<polygon fill="#fb8072" stroke="black" points="904,-252 722,-252 722,-216 904,-216 904,-252"/>
<text text-anchor="middle" x="813" y="-229.8" font-family="Times,serif" font-size="14.00">BulmaIsToggleableDirective </text>
</g>
<!-- WisdomModule&#45;&gt;BulmaIsToggleableDirective  -->
<g id="edge11" class="edge">
<title>WisdomModule&#45;&gt;BulmaIsToggleableDirective </title>
<path fill="none" stroke="black" stroke-dasharray="5,2" d="M544.61,-179C628.52,-179 781.42,-179 781.42,-179 781.42,-179 781.42,-205.99 781.42,-205.99"/>
<polygon fill="black" stroke="black" points="777.92,-205.99 781.42,-215.99 784.92,-205.99 777.92,-205.99"/>
</g>
<!-- DragDropComponent  -->
<g id="node13" class="node">
<title>DragDropComponent </title>
<polygon fill="#fb8072" stroke="black" points="703.58,-252 562.42,-252 562.42,-216 703.58,-216 703.58,-252"/>
<text text-anchor="middle" x="633" y="-229.8" font-family="Times,serif" font-size="14.00">DragDropComponent </text>
</g>
<!-- WisdomModule&#45;&gt;DragDropComponent  -->
<g id="edge12" class="edge">
<title>WisdomModule&#45;&gt;DragDropComponent </title>
<path fill="none" stroke="black" stroke-dasharray="5,2" d="M544.71,-183C593.48,-183 657.85,-183 657.85,-183 657.85,-183 657.85,-205.88 657.85,-205.88"/>
<polygon fill="black" stroke="black" points="654.35,-205.88 657.85,-215.88 661.35,-205.88 654.35,-205.88"/>
</g>
<!-- DragDropDirective  -->
<g id="node14" class="node">
<title>DragDropDirective </title>
<polygon fill="#fb8072" stroke="black" points="544.33,-252 415.67,-252 415.67,-216 544.33,-216 544.33,-252"/>
<text text-anchor="middle" x="480" y="-229.8" font-family="Times,serif" font-size="14.00">DragDropDirective </text>
</g>
<!-- WisdomModule&#45;&gt;DragDropDirective  -->
<g id="edge13" class="edge">
<title>WisdomModule&#45;&gt;DragDropDirective </title>
<path fill="none" stroke="black" stroke-dasharray="5,2" d="M490.84,-187.11C490.84,-187.11 490.84,-205.99 490.84,-205.99"/>
<polygon fill="black" stroke="black" points="487.34,-205.99 490.84,-215.99 494.34,-205.99 487.34,-205.99"/>
</g>
<!-- IfcComponent  -->
<g id="node15" class="node">
<title>IfcComponent </title>
<polygon fill="#fb8072" stroke="black" points="398.37,-252 297.63,-252 297.63,-216 398.37,-216 398.37,-252"/>
<text text-anchor="middle" x="348" y="-229.8" font-family="Times,serif" font-size="14.00">IfcComponent </text>
</g>
<!-- WisdomModule&#45;&gt;IfcComponent  -->
<g id="edge14" class="edge">
<title>WisdomModule&#45;&gt;IfcComponent </title>
<path fill="none" stroke="black" stroke-dasharray="5,2" d="M437.4,-182C398.75,-182 353.38,-182 353.38,-182 353.38,-182 353.38,-205.81 353.38,-205.81"/>
<polygon fill="black" stroke="black" points="349.88,-205.81 353.38,-215.81 356.88,-205.81 349.88,-205.81"/>
</g>
<!-- IonIconComponent  -->
<g id="node16" class="node">
<title>IonIconComponent </title>
<polygon fill="#fb8072" stroke="black" points="280.37,-252 151.63,-252 151.63,-216 280.37,-216 280.37,-252"/>
<text text-anchor="middle" x="216" y="-229.8" font-family="Times,serif" font-size="14.00">IonIconComponent </text>
</g>
<!-- WisdomModule&#45;&gt;IonIconComponent  -->
<g id="edge15" class="edge">
<title>WisdomModule&#45;&gt;IonIconComponent </title>
<path fill="none" stroke="black" stroke-dasharray="5,2" d="M437.39,-177C359.14,-177 222.88,-177 222.88,-177 222.88,-177 222.88,-205.96 222.88,-205.96"/>
<polygon fill="black" stroke="black" points="219.38,-205.96 222.88,-215.96 226.38,-205.96 219.38,-205.96"/>
</g>
<!-- MapComponent  -->
<g id="node17" class="node">
<title>MapComponent </title>
<polygon fill="#fb8072" stroke="black" points="134.49,-252 23.51,-252 23.51,-216 134.49,-216 134.49,-252"/>
<text text-anchor="middle" x="79" y="-229.8" font-family="Times,serif" font-size="14.00">MapComponent </text>
</g>
<!-- WisdomModule&#45;&gt;MapComponent  -->
<g id="edge16" class="edge">
<title>WisdomModule&#45;&gt;MapComponent </title>
<path fill="none" stroke="black" stroke-dasharray="5,2" d="M437.4,-172C327.61,-172 87.38,-172 87.38,-172 87.38,-172 87.38,-205.73 87.38,-205.73"/>
<polygon fill="black" stroke="black" points="83.88,-205.73 87.38,-215.73 90.88,-205.73 83.88,-205.73"/>
</g>
</g>
</svg>
