<?xml version="1.0" encoding="UTF-8" standalone="no"?>
<!DOCTYPE svg PUBLIC "-//W3C//DTD SVG 1.1//EN"
 "http://www.w3.org/Graphics/SVG/1.1/DTD/svg11.dtd">
<!-- Generated by graphviz version 2.47.3 (20210619.1520)
 -->
<!-- Title: dependencies Pages: 1 -->
<svg width="2369pt" height="247pt"
 viewBox="0.00 0.00 2369.00 246.80" xmlns="http://www.w3.org/2000/svg" xmlns:xlink="http://www.w3.org/1999/xlink">
<g id="graph0" class="graph" transform="scale(1 1) rotate(0) translate(4 242.8)">
<title>dependencies</title>
<polygon fill="white" stroke="transparent" points="-4,4 -4,-242.8 2365,-242.8 2365,4 -4,4"/>
<text text-anchor="middle" x="1180.5" y="-8.2" font-family="sans-serif" font-size="14.00">dependencies</text>
<g id="clust1" class="cluster">
<title>cluster_AppModule</title>
<polygon fill="none" stroke="black" stroke-dasharray="1,5" points="8,-32.8 8,-230.8 2353,-230.8 2353,-32.8 8,-32.8"/>
</g>
<g id="clust12" class="cluster">
<title>cluster_AppModule_bootstrap</title>
<polygon fill="none" stroke="black" points="1007,-170.8 1007,-222.8 1131,-222.8 1131,-170.8 1007,-170.8"/>
</g>
<g id="clust13" class="cluster">
<title>cluster_AppModule_providers</title>
<polygon fill="none" stroke="black" points="1264,-40.8 1264,-92.8 2345,-92.8 2345,-40.8 1264,-40.8"/>
</g>
<g id="clust2" class="cluster">
<title>cluster_AppModule_declarations</title>
<polygon fill="none" stroke="black" points="293,-40.8 293,-92.8 1256,-92.8 1256,-40.8 293,-40.8"/>
</g>
<g id="clust10" class="cluster">
<title>cluster_AppModule_imports</title>
<polygon fill="none" stroke="black" points="16,-40.8 16,-92.8 285,-92.8 285,-40.8 16,-40.8"/>
</g>
<!-- AppComponent -->
<g id="node1" class="node">
<title>AppComponent</title>
<polygon fill="#ffffb3" stroke="black" points="1247.94,-84.8 1142.06,-84.8 1142.06,-48.8 1247.94,-48.8 1247.94,-84.8"/>
<text text-anchor="middle" x="1195" y="-62.6" font-family="Times,serif" font-size="14.00">AppComponent</text>
</g>
<!-- AppModule -->
<g id="node8" class="node">
<title>AppModule</title>
<polygon fill="#8dd3c7" stroke="black" points="1110.66,-149.8 1107.66,-153.8 1086.66,-153.8 1083.66,-149.8 1027.34,-149.8 1027.34,-113.8 1110.66,-113.8 1110.66,-149.8"/>
<text text-anchor="middle" x="1069" y="-127.6" font-family="Times,serif" font-size="14.00">AppModule</text>
</g>
<!-- AppComponent&#45;&gt;AppModule -->
<g id="edge1" class="edge">
<title>AppComponent&#45;&gt;AppModule</title>
<path fill="none" stroke="black" d="M1195,-84.99C1195,-99.98 1195,-118.8 1195,-118.8 1195,-118.8 1120.96,-118.8 1120.96,-118.8"/>
<polygon fill="black" stroke="black" points="1120.96,-115.3 1110.96,-118.8 1120.96,-122.3 1120.96,-115.3"/>
</g>
<!-- ErrorComponent -->
<g id="node2" class="node">
<title>ErrorComponent</title>
<polygon fill="#ffffb3" stroke="black" points="1124.37,-84.8 1013.63,-84.8 1013.63,-48.8 1124.37,-48.8 1124.37,-84.8"/>
<text text-anchor="middle" x="1069" y="-62.6" font-family="Times,serif" font-size="14.00">ErrorComponent</text>
</g>
<!-- ErrorComponent&#45;&gt;AppModule -->
<g id="edge2" class="edge">
<title>ErrorComponent&#45;&gt;AppModule</title>
<path fill="none" stroke="black" d="M1069,-84.91C1069,-84.91 1069,-103.79 1069,-103.79"/>
<polygon fill="black" stroke="black" points="1065.5,-103.79 1069,-113.79 1072.5,-103.79 1065.5,-103.79"/>
</g>
<!-- FrameComponent -->
<g id="node3" class="node">
<title>FrameComponent</title>
<polygon fill="#ffffb3" stroke="black" points="995.6,-84.8 878.4,-84.8 878.4,-48.8 995.6,-48.8 995.6,-84.8"/>
<text text-anchor="middle" x="937" y="-62.6" font-family="Times,serif" font-size="14.00">FrameComponent</text>
</g>
<!-- FrameComponent&#45;&gt;AppModule -->
<g id="edge3" class="edge">
<title>FrameComponent&#45;&gt;AppModule</title>
<path fill="none" stroke="black" d="M937,-84.99C937,-99.98 937,-118.8 937,-118.8 937,-118.8 1017.23,-118.8 1017.23,-118.8"/>
<polygon fill="black" stroke="black" points="1017.23,-122.3 1027.23,-118.8 1017.23,-115.3 1017.23,-122.3"/>
</g>
<!-- LangSelectorDirective -->
<g id="node4" class="node">
<title>LangSelectorDirective</title>
<polygon fill="#ffffb3" stroke="black" points="860.22,-84.8 717.78,-84.8 717.78,-48.8 860.22,-48.8 860.22,-84.8"/>
<text text-anchor="middle" x="789" y="-62.6" font-family="Times,serif" font-size="14.00">LangSelectorDirective</text>
</g>
<!-- LangSelectorDirective&#45;&gt;AppModule -->
<g id="edge4" class="edge">
<title>LangSelectorDirective&#45;&gt;AppModule</title>
<path fill="none" stroke="black" d="M789,-84.83C789,-101.2 789,-122.8 789,-122.8 789,-122.8 1017.08,-122.8 1017.08,-122.8"/>
<polygon fill="black" stroke="black" points="1017.08,-126.3 1027.08,-122.8 1017.08,-119.3 1017.08,-126.3"/>
</g>
<!-- LoaderComponent -->
<g id="node5" class="node">
<title>LoaderComponent</title>
<polygon fill="#ffffb3" stroke="black" points="699.47,-84.8 578.53,-84.8 578.53,-48.8 699.47,-48.8 699.47,-84.8"/>
<text text-anchor="middle" x="639" y="-62.6" font-family="Times,serif" font-size="14.00">LoaderComponent</text>
</g>
<!-- LoaderComponent&#45;&gt;AppModule -->
<g id="edge5" class="edge">
<title>LoaderComponent&#45;&gt;AppModule</title>
<path fill="none" stroke="black" d="M639,-85.1C639,-103.07 639,-127.8 639,-127.8 639,-127.8 1016.99,-127.8 1016.99,-127.8"/>
<polygon fill="black" stroke="black" points="1016.99,-131.3 1026.99,-127.8 1016.99,-124.3 1016.99,-131.3"/>
</g>
<!-- LoginComponent -->
<g id="node6" class="node">
<title>LoginComponent</title>
<polygon fill="#ffffb3" stroke="black" points="560.28,-84.8 445.72,-84.8 445.72,-48.8 560.28,-48.8 560.28,-84.8"/>
<text text-anchor="middle" x="503" y="-62.6" font-family="Times,serif" font-size="14.00">LoginComponent</text>
</g>
<!-- LoginComponent&#45;&gt;AppModule -->
<g id="edge6" class="edge">
<title>LoginComponent&#45;&gt;AppModule</title>
<path fill="none" stroke="black" d="M503,-84.91C503,-104.14 503,-131.8 503,-131.8 503,-131.8 1016.92,-131.8 1016.92,-131.8"/>
<polygon fill="black" stroke="black" points="1016.92,-135.3 1026.92,-131.8 1016.92,-128.3 1016.92,-135.3"/>
</g>
<!-- SideBarComponent -->
<g id="node7" class="node">
<title>SideBarComponent</title>
<polygon fill="#ffffb3" stroke="black" points="427.43,-84.8 300.57,-84.8 300.57,-48.8 427.43,-48.8 427.43,-84.8"/>
<text text-anchor="middle" x="364" y="-62.6" font-family="Times,serif" font-size="14.00">SideBarComponent</text>
</g>
<!-- SideBarComponent&#45;&gt;AppModule -->
<g id="edge7" class="edge">
<title>SideBarComponent&#45;&gt;AppModule</title>
<path fill="none" stroke="black" d="M364,-84.83C364,-105.57 364,-136.8 364,-136.8 364,-136.8 1017.27,-136.8 1017.27,-136.8"/>
<polygon fill="black" stroke="black" points="1017.27,-140.3 1027.27,-136.8 1017.27,-133.3 1017.27,-140.3"/>
</g>
<!-- AppComponent  -->
<g id="node11" class="node">
<title>AppComponent </title>
<polygon fill="#80b1d3" stroke="black" points="1123.44,-214.8 1014.56,-214.8 1014.56,-178.8 1123.44,-178.8 1123.44,-214.8"/>
<text text-anchor="middle" x="1069" y="-192.6" font-family="Times,serif" font-size="14.00">AppComponent </text>
</g>
<!-- AppModule&#45;&gt;AppComponent  -->
<g id="edge10" class="edge">
<title>AppModule&#45;&gt;AppComponent </title>
<path fill="none" stroke="black" stroke-dasharray="1,5" d="M1069,-149.91C1069,-149.91 1069,-168.79 1069,-168.79"/>
<polygon fill="black" stroke="black" points="1065.5,-168.79 1069,-178.79 1072.5,-168.79 1065.5,-168.79"/>
</g>
<!-- AppRoutingModule -->
<g id="node9" class="node">
<title>AppRoutingModule</title>
<polygon fill="#8dd3c7" stroke="black" points="277.27,-84.8 274.27,-88.8 253.27,-88.8 250.27,-84.8 148.73,-84.8 148.73,-48.8 277.27,-48.8 277.27,-84.8"/>
<text text-anchor="middle" x="213" y="-62.6" font-family="Times,serif" font-size="14.00">AppRoutingModule</text>
</g>
<!-- AppRoutingModule&#45;&gt;AppModule -->
<g id="edge8" class="edge">
<title>AppRoutingModule&#45;&gt;AppModule</title>
<path fill="none" stroke="black" d="M213,-85.09C213,-107.01 213,-140.8 213,-140.8 213,-140.8 1017.13,-140.8 1017.13,-140.8"/>
<polygon fill="black" stroke="black" points="1017.13,-144.3 1027.13,-140.8 1017.13,-137.3 1017.13,-144.3"/>
</g>
<!-- WisdomModule -->
<g id="node10" class="node">
<title>WisdomModule</title>
<polygon fill="#8dd3c7" stroke="black" points="130.49,-84.8 127.49,-88.8 106.49,-88.8 103.49,-84.8 23.51,-84.8 23.51,-48.8 130.49,-48.8 130.49,-84.8"/>
<text text-anchor="middle" x="77" y="-62.6" font-family="Times,serif" font-size="14.00">WisdomModule</text>
</g>
<!-- WisdomModule&#45;&gt;AppModule -->
<g id="edge9" class="edge">
<title>WisdomModule&#45;&gt;AppModule</title>
<path fill="none" stroke="black" d="M77,-85.12C77,-108.46 77,-145.8 77,-145.8 77,-145.8 1017.32,-145.8 1017.32,-145.8"/>
<polygon fill="black" stroke="black" points="1017.32,-149.3 1027.32,-145.8 1017.32,-142.3 1017.32,-149.3"/>
</g>
<!-- AuthInterceptor -->
<g id="node12" class="node">
<title>AuthInterceptor</title>
<ellipse fill="#fdb462" stroke="black" cx="2264" cy="-66.8" rx="72.91" ry="18"/>
<text text-anchor="middle" x="2264" y="-62.6" font-family="Times,serif" font-size="14.00">AuthInterceptor</text>
</g>
<!-- AuthInterceptor&#45;&gt;AppModule -->
<g id="edge11" class="edge">
<title>AuthInterceptor&#45;&gt;AppModule</title>
<path fill="none" stroke="black" d="M2264,-85.12C2264,-108.46 2264,-145.8 2264,-145.8 2264,-145.8 1120.83,-145.8 1120.83,-145.8"/>
<polygon fill="black" stroke="black" points="1120.83,-142.3 1110.83,-145.8 1120.83,-149.3 1120.83,-142.3"/>
</g>
<!-- BaseUrlInterceptor -->
<g id="node13" class="node">
<title>BaseUrlInterceptor</title>
<ellipse fill="#fdb462" stroke="black" cx="2088" cy="-66.8" rx="85.07" ry="18"/>
<text text-anchor="middle" x="2088" y="-62.6" font-family="Times,serif" font-size="14.00">BaseUrlInterceptor</text>
</g>
<!-- BaseUrlInterceptor&#45;&gt;AppModule -->
<g id="edge12" class="edge">
<title>BaseUrlInterceptor&#45;&gt;AppModule</title>
<path fill="none" stroke="black" d="M2088,-85.09C2088,-107.01 2088,-140.8 2088,-140.8 2088,-140.8 1120.85,-140.8 1120.85,-140.8"/>
<polygon fill="black" stroke="black" points="1120.85,-137.3 1110.85,-140.8 1120.85,-144.3 1120.85,-137.3"/>
</g>
<!-- CacheInterceptor -->
<g id="node14" class="node">
<title>CacheInterceptor</title>
<ellipse fill="#fdb462" stroke="black" cx="1907" cy="-66.8" rx="77.55" ry="18"/>
<text text-anchor="middle" x="1907" y="-62.6" font-family="Times,serif" font-size="14.00">CacheInterceptor</text>
</g>
<!-- CacheInterceptor&#45;&gt;AppModule -->
<g id="edge13" class="edge">
<title>CacheInterceptor&#45;&gt;AppModule</title>
<path fill="none" stroke="black" d="M1907,-84.83C1907,-105.57 1907,-136.8 1907,-136.8 1907,-136.8 1120.84,-136.8 1120.84,-136.8"/>
<polygon fill="black" stroke="black" points="1120.84,-133.3 1110.84,-136.8 1120.84,-140.3 1120.84,-133.3"/>
</g>
<!-- ErrorInterceptor -->
<g id="node15" class="node">
<title>ErrorInterceptor</title>
<ellipse fill="#fdb462" stroke="black" cx="1738" cy="-66.8" rx="73.53" ry="18"/>
<text text-anchor="middle" x="1738" y="-62.6" font-family="Times,serif" font-size="14.00">ErrorInterceptor</text>
</g>
<!-- ErrorInterceptor&#45;&gt;AppModule -->
<g id="edge14" class="edge">
<title>ErrorInterceptor&#45;&gt;AppModule</title>
<path fill="none" stroke="black" d="M1738,-84.91C1738,-104.14 1738,-131.8 1738,-131.8 1738,-131.8 1120.85,-131.8 1120.85,-131.8"/>
<polygon fill="black" stroke="black" points="1120.85,-128.3 1110.85,-131.8 1120.85,-135.3 1120.85,-128.3"/>
</g>
<!-- LoaderInterceptor -->
<g id="node16" class="node">
<title>LoaderInterceptor</title>
<ellipse fill="#fdb462" stroke="black" cx="1565" cy="-66.8" rx="80.98" ry="18"/>
<text text-anchor="middle" x="1565" y="-62.6" font-family="Times,serif" font-size="14.00">LoaderInterceptor</text>
</g>
<!-- LoaderInterceptor&#45;&gt;AppModule -->
<g id="edge15" class="edge">
<title>LoaderInterceptor&#45;&gt;AppModule</title>
<path fill="none" stroke="black" d="M1565,-85.1C1565,-103.07 1565,-127.8 1565,-127.8 1565,-127.8 1120.86,-127.8 1120.86,-127.8"/>
<polygon fill="black" stroke="black" points="1120.86,-124.3 1110.86,-127.8 1120.86,-131.3 1120.86,-124.3"/>
</g>
<!-- SanitizeUrlInterceptor -->
<g id="node17" class="node">
<title>SanitizeUrlInterceptor</title>
<ellipse fill="#fdb462" stroke="black" cx="1369" cy="-66.8" rx="97.24" ry="18"/>
<text text-anchor="middle" x="1369" y="-62.6" font-family="Times,serif" font-size="14.00">SanitizeUrlInterceptor</text>
</g>
<!-- SanitizeUrlInterceptor&#45;&gt;AppModule -->
<g id="edge16" class="edge">
<title>SanitizeUrlInterceptor&#45;&gt;AppModule</title>
<path fill="none" stroke="black" d="M1369,-84.83C1369,-101.2 1369,-122.8 1369,-122.8 1369,-122.8 1120.71,-122.8 1120.71,-122.8"/>
<polygon fill="black" stroke="black" points="1120.71,-119.3 1110.71,-122.8 1120.71,-126.3 1120.71,-119.3"/>
</g>
</g>
</svg>
