<?xml version="1.0" encoding="UTF-8" standalone="no"?>
<!DOCTYPE svg PUBLIC "-//W3C//DTD SVG 1.1//EN"
 "http://www.w3.org/Graphics/SVG/1.1/DTD/svg11.dtd">
<!-- Generated by graphviz version 2.47.3 (20210619.1520)
 -->
<!-- Title: dependencies Pages: 1 -->
<svg width="2203pt" height="247pt"
 viewBox="0.00 0.00 2203.00 246.80" xmlns="http://www.w3.org/2000/svg" xmlns:xlink="http://www.w3.org/1999/xlink">
<g id="graph0" class="graph" transform="scale(1 1) rotate(0) translate(4 242.8)">
<title>dependencies</title>
<polygon fill="white" stroke="transparent" points="-4,4 -4,-242.8 2199,-242.8 2199,4 -4,4"/>
<text text-anchor="middle" x="1097.5" y="-8.2" font-family="sans-serif" font-size="14.00">dependencies</text>
<g id="clust1" class="cluster">
<title>cluster_AppModule</title>
<polygon fill="none" stroke="black" stroke-dasharray="1,5" points="8,-32.8 8,-230.8 2187,-230.8 2187,-32.8 8,-32.8"/>
</g>
<g id="clust2" class="cluster">
<title>cluster_AppModule_declarations</title>
<polygon fill="none" stroke="black" points="1216,-40.8 1216,-92.8 2179,-92.8 2179,-40.8 1216,-40.8"/>
</g>
<g id="clust10" class="cluster">
<title>cluster_AppModule_imports</title>
<polygon fill="none" stroke="black" points="939,-40.8 939,-92.8 1208,-92.8 1208,-40.8 939,-40.8"/>
</g>
<g id="clust12" class="cluster">
<title>cluster_AppModule_bootstrap</title>
<polygon fill="none" stroke="black" points="1149,-170.8 1149,-222.8 1273,-222.8 1273,-170.8 1149,-170.8"/>
</g>
<g id="clust13" class="cluster">
<title>cluster_AppModule_providers</title>
<polygon fill="none" stroke="black" points="16,-40.8 16,-92.8 931,-92.8 931,-40.8 16,-40.8"/>
</g>
<!-- AppComponent -->
<g id="node1" class="node">
<title>AppComponent</title>
<polygon fill="#ffffb3" stroke="black" points="2170.94,-84.8 2065.06,-84.8 2065.06,-48.8 2170.94,-48.8 2170.94,-84.8"/>
<text text-anchor="middle" x="2118" y="-62.6" font-family="Times,serif" font-size="14.00">AppComponent</text>
</g>
<!-- AppModule -->
<g id="node8" class="node">
<title>AppModule</title>
<polygon fill="#8dd3c7" stroke="black" points="1252.66,-149.8 1249.66,-153.8 1228.66,-153.8 1225.66,-149.8 1169.34,-149.8 1169.34,-113.8 1252.66,-113.8 1252.66,-149.8"/>
<text text-anchor="middle" x="1211" y="-127.6" font-family="Times,serif" font-size="14.00">AppModule</text>
</g>
<!-- AppComponent&#45;&gt;AppModule -->
<g id="edge1" class="edge">
<title>AppComponent&#45;&gt;AppModule</title>
<path fill="none" stroke="black" d="M2118,-84.89C2118,-107.93 2118,-144.8 2118,-144.8 2118,-144.8 1262.93,-144.8 1262.93,-144.8"/>
<polygon fill="black" stroke="black" points="1262.93,-141.3 1252.93,-144.8 1262.93,-148.3 1262.93,-141.3"/>
</g>
<!-- ErrorComponent -->
<g id="node2" class="node">
<title>ErrorComponent</title>
<polygon fill="#ffffb3" stroke="black" points="2047.37,-84.8 1936.63,-84.8 1936.63,-48.8 2047.37,-48.8 2047.37,-84.8"/>
<text text-anchor="middle" x="1992" y="-62.6" font-family="Times,serif" font-size="14.00">ErrorComponent</text>
</g>
<!-- ErrorComponent&#45;&gt;AppModule -->
<g id="edge2" class="edge">
<title>ErrorComponent&#45;&gt;AppModule</title>
<path fill="none" stroke="black" d="M1992,-84.84C1992,-106.46 1992,-139.8 1992,-139.8 1992,-139.8 1262.71,-139.8 1262.71,-139.8"/>
<polygon fill="black" stroke="black" points="1262.71,-136.3 1252.71,-139.8 1262.71,-143.3 1262.71,-136.3"/>
</g>
<!-- FrameComponent -->
<g id="node3" class="node">
<title>FrameComponent</title>
<polygon fill="#ffffb3" stroke="black" points="1918.6,-84.8 1801.4,-84.8 1801.4,-48.8 1918.6,-48.8 1918.6,-84.8"/>
<text text-anchor="middle" x="1860" y="-62.6" font-family="Times,serif" font-size="14.00">FrameComponent</text>
</g>
<!-- FrameComponent&#45;&gt;AppModule -->
<g id="edge3" class="edge">
<title>FrameComponent&#45;&gt;AppModule</title>
<path fill="none" stroke="black" d="M1860,-85.02C1860,-105.17 1860,-134.8 1860,-134.8 1860,-134.8 1263.08,-134.8 1263.08,-134.8"/>
<polygon fill="black" stroke="black" points="1263.08,-131.3 1253.08,-134.8 1263.08,-138.3 1263.08,-131.3"/>
</g>
<!-- LangSelectorDirective -->
<g id="node4" class="node">
<title>LangSelectorDirective</title>
<polygon fill="#ffffb3" stroke="black" points="1783.22,-84.8 1640.78,-84.8 1640.78,-48.8 1783.22,-48.8 1783.22,-84.8"/>
<text text-anchor="middle" x="1712" y="-62.6" font-family="Times,serif" font-size="14.00">LangSelectorDirective</text>
</g>
<!-- LangSelectorDirective&#45;&gt;AppModule -->
<g id="edge4" class="edge">
<title>LangSelectorDirective&#45;&gt;AppModule</title>
<path fill="none" stroke="black" d="M1712,-85.02C1712,-103.63 1712,-129.8 1712,-129.8 1712,-129.8 1262.85,-129.8 1262.85,-129.8"/>
<polygon fill="black" stroke="black" points="1262.85,-126.3 1252.85,-129.8 1262.85,-133.3 1262.85,-126.3"/>
</g>
<!-- LoaderComponent -->
<g id="node5" class="node">
<title>LoaderComponent</title>
<polygon fill="#ffffb3" stroke="black" points="1622.47,-84.8 1501.53,-84.8 1501.53,-48.8 1622.47,-48.8 1622.47,-84.8"/>
<text text-anchor="middle" x="1562" y="-62.6" font-family="Times,serif" font-size="14.00">LoaderComponent</text>
</g>
<!-- LoaderComponent&#45;&gt;AppModule -->
<g id="edge5" class="edge">
<title>LoaderComponent&#45;&gt;AppModule</title>
<path fill="none" stroke="black" d="M1562,-84.83C1562,-101.86 1562,-124.8 1562,-124.8 1562,-124.8 1262.99,-124.8 1262.99,-124.8"/>
<polygon fill="black" stroke="black" points="1262.99,-121.3 1252.99,-124.8 1262.99,-128.3 1262.99,-121.3"/>
</g>
<!-- LoginComponent -->
<g id="node6" class="node">
<title>LoginComponent</title>
<polygon fill="#ffffb3" stroke="black" points="1483.28,-84.8 1368.72,-84.8 1368.72,-48.8 1483.28,-48.8 1483.28,-84.8"/>
<text text-anchor="middle" x="1426" y="-62.6" font-family="Times,serif" font-size="14.00">LoginComponent</text>
</g>
<!-- LoginComponent&#45;&gt;AppModule -->
<g id="edge6" class="edge">
<title>LoginComponent&#45;&gt;AppModule</title>
<path fill="none" stroke="black" d="M1426,-85.04C1426,-100.37 1426,-119.8 1426,-119.8 1426,-119.8 1262.71,-119.8 1262.71,-119.8"/>
<polygon fill="black" stroke="black" points="1262.71,-116.3 1252.71,-119.8 1262.71,-123.3 1262.71,-116.3"/>
</g>
<!-- SideBarComponent -->
<g id="node7" class="node">
<title>SideBarComponent</title>
<polygon fill="#ffffb3" stroke="black" points="1350.43,-84.8 1223.57,-84.8 1223.57,-48.8 1350.43,-48.8 1350.43,-84.8"/>
<text text-anchor="middle" x="1287" y="-62.6" font-family="Times,serif" font-size="14.00">SideBarComponent</text>
</g>
<!-- SideBarComponent&#45;&gt;AppModule -->
<g id="edge7" class="edge">
<title>SideBarComponent&#45;&gt;AppModule</title>
<path fill="none" stroke="black" d="M1238.31,-84.91C1238.31,-84.91 1238.31,-103.79 1238.31,-103.79"/>
<polygon fill="black" stroke="black" points="1234.81,-103.79 1238.31,-113.79 1241.81,-103.79 1234.81,-103.79"/>
</g>
<!-- AppComponent  -->
<g id="node11" class="node">
<title>AppComponent </title>
<polygon fill="#80b1d3" stroke="black" points="1265.44,-214.8 1156.56,-214.8 1156.56,-178.8 1265.44,-178.8 1265.44,-214.8"/>
<text text-anchor="middle" x="1211" y="-192.6" font-family="Times,serif" font-size="14.00">AppComponent </text>
</g>
<!-- AppModule&#45;&gt;AppComponent  -->
<g id="edge10" class="edge">
<title>AppModule&#45;&gt;AppComponent </title>
<path fill="none" stroke="black" stroke-dasharray="1,5" d="M1211,-149.91C1211,-149.91 1211,-168.79 1211,-168.79"/>
<polygon fill="black" stroke="black" points="1207.5,-168.79 1211,-178.79 1214.5,-168.79 1207.5,-168.79"/>
</g>
<!-- AppRoutingModule -->
<g id="node9" class="node">
<title>AppRoutingModule</title>
<polygon fill="#8dd3c7" stroke="black" points="1200.27,-84.8 1197.27,-88.8 1176.27,-88.8 1173.27,-84.8 1071.73,-84.8 1071.73,-48.8 1200.27,-48.8 1200.27,-84.8"/>
<text text-anchor="middle" x="1136" y="-62.6" font-family="Times,serif" font-size="14.00">AppRoutingModule</text>
</g>
<!-- AppRoutingModule&#45;&gt;AppModule -->
<g id="edge8" class="edge">
<title>AppRoutingModule&#45;&gt;AppModule</title>
<path fill="none" stroke="black" d="M1184.78,-84.91C1184.78,-84.91 1184.78,-103.79 1184.78,-103.79"/>
<polygon fill="black" stroke="black" points="1181.28,-103.79 1184.78,-113.79 1188.28,-103.79 1181.28,-103.79"/>
</g>
<!-- WisdomModule -->
<g id="node10" class="node">
<title>WisdomModule</title>
<polygon fill="#8dd3c7" stroke="black" points="1053.49,-84.8 1050.49,-88.8 1029.49,-88.8 1026.49,-84.8 946.51,-84.8 946.51,-48.8 1053.49,-48.8 1053.49,-84.8"/>
<text text-anchor="middle" x="1000" y="-62.6" font-family="Times,serif" font-size="14.00">WisdomModule</text>
</g>
<!-- WisdomModule&#45;&gt;AppModule -->
<g id="edge9" class="edge">
<title>WisdomModule&#45;&gt;AppModule</title>
<path fill="none" stroke="black" d="M1000,-85.04C1000,-100.37 1000,-119.8 1000,-119.8 1000,-119.8 1159.31,-119.8 1159.31,-119.8"/>
<polygon fill="black" stroke="black" points="1159.31,-123.3 1169.31,-119.8 1159.31,-116.3 1159.31,-123.3"/>
</g>
<!-- AuthInterceptor -->
<g id="node12" class="node">
<title>AuthInterceptor</title>
<ellipse fill="#fdb462" stroke="black" cx="850" cy="-66.8" rx="72.91" ry="18"/>
<text text-anchor="middle" x="850" y="-62.6" font-family="Times,serif" font-size="14.00">AuthInterceptor</text>
</g>
<!-- AuthInterceptor&#45;&gt;AppModule -->
<g id="edge11" class="edge">
<title>AuthInterceptor&#45;&gt;AppModule</title>
<path fill="none" stroke="black" d="M850,-84.83C850,-101.86 850,-124.8 850,-124.8 850,-124.8 1159.24,-124.8 1159.24,-124.8"/>
<polygon fill="black" stroke="black" points="1159.24,-128.3 1169.24,-124.8 1159.24,-121.3 1159.24,-128.3"/>
</g>
<!-- BaseUrlInterceptor -->
<g id="node13" class="node">
<title>BaseUrlInterceptor</title>
<ellipse fill="#fdb462" stroke="black" cx="674" cy="-66.8" rx="85.07" ry="18"/>
<text text-anchor="middle" x="674" y="-62.6" font-family="Times,serif" font-size="14.00">BaseUrlInterceptor</text>
</g>
<!-- BaseUrlInterceptor&#45;&gt;AppModule -->
<g id="edge12" class="edge">
<title>BaseUrlInterceptor&#45;&gt;AppModule</title>
<path fill="none" stroke="black" d="M674,-85.02C674,-103.63 674,-129.8 674,-129.8 674,-129.8 1159.31,-129.8 1159.31,-129.8"/>
<polygon fill="black" stroke="black" points="1159.31,-133.3 1169.31,-129.8 1159.31,-126.3 1159.31,-133.3"/>
</g>
<!-- CacheInterceptor -->
<g id="node14" class="node">
<title>CacheInterceptor</title>
<ellipse fill="#fdb462" stroke="black" cx="493" cy="-66.8" rx="77.55" ry="18"/>
<text text-anchor="middle" x="493" y="-62.6" font-family="Times,serif" font-size="14.00">CacheInterceptor</text>
</g>
<!-- CacheInterceptor&#45;&gt;AppModule -->
<g id="edge13" class="edge">
<title>CacheInterceptor&#45;&gt;AppModule</title>
<path fill="none" stroke="black" d="M493,-85.02C493,-105.17 493,-134.8 493,-134.8 493,-134.8 1159.29,-134.8 1159.29,-134.8"/>
<polygon fill="black" stroke="black" points="1159.29,-138.3 1169.29,-134.8 1159.29,-131.3 1159.29,-138.3"/>
</g>
<!-- LoaderInterceptor -->
<g id="node15" class="node">
<title>LoaderInterceptor</title>
<ellipse fill="#fdb462" stroke="black" cx="317" cy="-66.8" rx="80.98" ry="18"/>
<text text-anchor="middle" x="317" y="-62.6" font-family="Times,serif" font-size="14.00">LoaderInterceptor</text>
</g>
<!-- LoaderInterceptor&#45;&gt;AppModule -->
<g id="edge14" class="edge">
<title>LoaderInterceptor&#45;&gt;AppModule</title>
<path fill="none" stroke="black" d="M317,-84.84C317,-106.46 317,-139.8 317,-139.8 317,-139.8 1159.08,-139.8 1159.08,-139.8"/>
<polygon fill="black" stroke="black" points="1159.08,-143.3 1169.08,-139.8 1159.08,-136.3 1159.08,-143.3"/>
</g>
<!-- SanitizeUrlInterceptor -->
<g id="node16" class="node">
<title>SanitizeUrlInterceptor</title>
<ellipse fill="#fdb462" stroke="black" cx="121" cy="-66.8" rx="97.24" ry="18"/>
<text text-anchor="middle" x="121" y="-62.6" font-family="Times,serif" font-size="14.00">SanitizeUrlInterceptor</text>
</g>
<!-- SanitizeUrlInterceptor&#45;&gt;AppModule -->
<g id="edge15" class="edge">
<title>SanitizeUrlInterceptor&#45;&gt;AppModule</title>
<path fill="none" stroke="black" d="M121,-84.89C121,-107.93 121,-144.8 121,-144.8 121,-144.8 1159.27,-144.8 1159.27,-144.8"/>
<polygon fill="black" stroke="black" points="1159.27,-148.3 1169.27,-144.8 1159.27,-141.3 1159.27,-148.3"/>
</g>
</g>
</svg>
