<?xml version="1.0" encoding="UTF-8" standalone="no"?>
<!DOCTYPE svg PUBLIC "-//W3C//DTD SVG 1.1//EN"
 "http://www.w3.org/Graphics/SVG/1.1/DTD/svg11.dtd">
<!-- Generated by graphviz version 2.47.3 (20210619.1520)
 -->
<!-- Title: dependencies Pages: 1 -->
<svg width="1370pt" height="247pt"
 viewBox="0.00 0.00 1370.00 246.80" xmlns="http://www.w3.org/2000/svg" xmlns:xlink="http://www.w3.org/1999/xlink">
<g id="graph0" class="graph" transform="scale(1 1) rotate(0) translate(4 242.8)">
<title>dependencies</title>
<polygon fill="white" stroke="transparent" points="-4,4 -4,-242.8 1366,-242.8 1366,4 -4,4"/>
<text text-anchor="middle" x="681" y="-8.2" font-family="sans-serif" font-size="14.00">dependencies</text>
<g id="clust1" class="cluster">
<title>cluster_AppModule</title>
<polygon fill="none" stroke="black" stroke-dasharray="1,5" points="8,-32.8 8,-230.8 1354,-230.8 1354,-32.8 8,-32.8"/>
</g>
<g id="clust11" class="cluster">
<title>cluster_AppModule_providers</title>
<polygon fill="none" stroke="black" points="996,-40.8 996,-92.8 1346,-92.8 1346,-40.8 996,-40.8"/>
</g>
<g id="clust10" class="cluster">
<title>cluster_AppModule_bootstrap</title>
<polygon fill="none" stroke="black" points="588,-170.8 588,-222.8 712,-222.8 712,-170.8 588,-170.8"/>
</g>
<g id="clust8" class="cluster">
<title>cluster_AppModule_imports</title>
<polygon fill="none" stroke="black" points="719,-40.8 719,-92.8 988,-92.8 988,-40.8 719,-40.8"/>
</g>
<g id="clust2" class="cluster">
<title>cluster_AppModule_declarations</title>
<polygon fill="none" stroke="black" points="16,-40.8 16,-92.8 711,-92.8 711,-40.8 16,-40.8"/>
</g>
<!-- AppComponent -->
<g id="node1" class="node">
<title>AppComponent</title>
<polygon fill="#ffffb3" stroke="black" points="702.94,-84.8 597.06,-84.8 597.06,-48.8 702.94,-48.8 702.94,-84.8"/>
<text text-anchor="middle" x="650" y="-62.6" font-family="Times,serif" font-size="14.00">AppComponent</text>
</g>
<!-- AppModule -->
<g id="node6" class="node">
<title>AppModule</title>
<polygon fill="#8dd3c7" stroke="black" points="691.66,-149.8 688.66,-153.8 667.66,-153.8 664.66,-149.8 608.34,-149.8 608.34,-113.8 691.66,-113.8 691.66,-149.8"/>
<text text-anchor="middle" x="650" y="-127.6" font-family="Times,serif" font-size="14.00">AppModule</text>
</g>
<!-- AppComponent&#45;&gt;AppModule -->
<g id="edge1" class="edge">
<title>AppComponent&#45;&gt;AppModule</title>
<path fill="none" stroke="black" d="M650,-84.91C650,-84.91 650,-103.79 650,-103.79"/>
<polygon fill="black" stroke="black" points="646.5,-103.79 650,-113.79 653.5,-103.79 646.5,-103.79"/>
</g>
<!-- FrameComponent -->
<g id="node2" class="node">
<title>FrameComponent</title>
<polygon fill="#ffffb3" stroke="black" points="579.6,-84.8 462.4,-84.8 462.4,-48.8 579.6,-48.8 579.6,-84.8"/>
<text text-anchor="middle" x="521" y="-62.6" font-family="Times,serif" font-size="14.00">FrameComponent</text>
</g>
<!-- FrameComponent&#45;&gt;AppModule -->
<g id="edge2" class="edge">
<title>FrameComponent&#45;&gt;AppModule</title>
<path fill="none" stroke="black" d="M521,-84.81C521,-100.85 521,-121.8 521,-121.8 521,-121.8 598.12,-121.8 598.12,-121.8"/>
<polygon fill="black" stroke="black" points="598.12,-125.3 608.12,-121.8 598.12,-118.3 598.12,-125.3"/>
</g>
<!-- LangSelectorDirective -->
<g id="node3" class="node">
<title>LangSelectorDirective</title>
<polygon fill="#ffffb3" stroke="black" points="444.22,-84.8 301.78,-84.8 301.78,-48.8 444.22,-48.8 444.22,-84.8"/>
<text text-anchor="middle" x="373" y="-62.6" font-family="Times,serif" font-size="14.00">LangSelectorDirective</text>
</g>
<!-- LangSelectorDirective&#45;&gt;AppModule -->
<g id="edge3" class="edge">
<title>LangSelectorDirective&#45;&gt;AppModule</title>
<path fill="none" stroke="black" d="M373,-85.07C373,-103.36 373,-128.8 373,-128.8 373,-128.8 598.23,-128.8 598.23,-128.8"/>
<polygon fill="black" stroke="black" points="598.23,-132.3 608.23,-128.8 598.23,-125.3 598.23,-132.3"/>
</g>
<!-- LoginComponent -->
<g id="node4" class="node">
<title>LoginComponent</title>
<polygon fill="#ffffb3" stroke="black" points="283.28,-84.8 168.72,-84.8 168.72,-48.8 283.28,-48.8 283.28,-84.8"/>
<text text-anchor="middle" x="226" y="-62.6" font-family="Times,serif" font-size="14.00">LoginComponent</text>
</g>
<!-- LoginComponent&#45;&gt;AppModule -->
<g id="edge4" class="edge">
<title>LoginComponent&#45;&gt;AppModule</title>
<path fill="none" stroke="black" d="M226,-84.93C226,-105.37 226,-135.8 226,-135.8 226,-135.8 598.18,-135.8 598.18,-135.8"/>
<polygon fill="black" stroke="black" points="598.18,-139.3 608.18,-135.8 598.18,-132.3 598.18,-139.3"/>
</g>
<!-- SideBarComponent -->
<g id="node5" class="node">
<title>SideBarComponent</title>
<polygon fill="#ffffb3" stroke="black" points="150.43,-84.8 23.57,-84.8 23.57,-48.8 150.43,-48.8 150.43,-84.8"/>
<text text-anchor="middle" x="87" y="-62.6" font-family="Times,serif" font-size="14.00">SideBarComponent</text>
</g>
<!-- SideBarComponent&#45;&gt;AppModule -->
<g id="edge5" class="edge">
<title>SideBarComponent&#45;&gt;AppModule</title>
<path fill="none" stroke="black" d="M87,-84.81C87,-107.29 87,-142.8 87,-142.8 87,-142.8 598.14,-142.8 598.14,-142.8"/>
<polygon fill="black" stroke="black" points="598.14,-146.3 608.14,-142.8 598.14,-139.3 598.14,-146.3"/>
</g>
<!-- AppComponent  -->
<g id="node9" class="node">
<title>AppComponent </title>
<polygon fill="#80b1d3" stroke="black" points="704.44,-214.8 595.56,-214.8 595.56,-178.8 704.44,-178.8 704.44,-214.8"/>
<text text-anchor="middle" x="650" y="-192.6" font-family="Times,serif" font-size="14.00">AppComponent </text>
</g>
<!-- AppModule&#45;&gt;AppComponent  -->
<g id="edge8" class="edge">
<title>AppModule&#45;&gt;AppComponent </title>
<path fill="none" stroke="black" stroke-dasharray="1,5" d="M650,-149.91C650,-149.91 650,-168.79 650,-168.79"/>
<polygon fill="black" stroke="black" points="646.5,-168.79 650,-178.79 653.5,-168.79 646.5,-168.79"/>
</g>
<!-- AppRoutingModule -->
<g id="node7" class="node">
<title>AppRoutingModule</title>
<polygon fill="#8dd3c7" stroke="black" points="980.27,-84.8 977.27,-88.8 956.27,-88.8 953.27,-84.8 851.73,-84.8 851.73,-48.8 980.27,-48.8 980.27,-84.8"/>
<text text-anchor="middle" x="916" y="-62.6" font-family="Times,serif" font-size="14.00">AppRoutingModule</text>
</g>
<!-- AppRoutingModule&#45;&gt;AppModule -->
<g id="edge6" class="edge">
<title>AppRoutingModule&#45;&gt;AppModule</title>
<path fill="none" stroke="black" d="M916,-85.07C916,-103.36 916,-128.8 916,-128.8 916,-128.8 701.86,-128.8 701.86,-128.8"/>
<polygon fill="black" stroke="black" points="701.86,-125.3 691.86,-128.8 701.86,-132.3 701.86,-125.3"/>
</g>
<!-- WisdomModule -->
<g id="node8" class="node">
<title>WisdomModule</title>
<polygon fill="#8dd3c7" stroke="black" points="833.49,-84.8 830.49,-88.8 809.49,-88.8 806.49,-84.8 726.51,-84.8 726.51,-48.8 833.49,-48.8 833.49,-84.8"/>
<text text-anchor="middle" x="780" y="-62.6" font-family="Times,serif" font-size="14.00">WisdomModule</text>
</g>
<!-- WisdomModule&#45;&gt;AppModule -->
<g id="edge7" class="edge">
<title>WisdomModule&#45;&gt;AppModule</title>
<path fill="none" stroke="black" d="M780,-84.81C780,-100.85 780,-121.8 780,-121.8 780,-121.8 701.85,-121.8 701.85,-121.8"/>
<polygon fill="black" stroke="black" points="701.85,-118.3 691.85,-121.8 701.85,-125.3 701.85,-118.3"/>
</g>
<!-- AuthInterceptor -->
<g id="node10" class="node">
<title>AuthInterceptor</title>
<ellipse fill="#fdb462" stroke="black" cx="1265" cy="-66.8" rx="72.91" ry="18"/>
<text text-anchor="middle" x="1265" y="-62.6" font-family="Times,serif" font-size="14.00">AuthInterceptor</text>
</g>
<!-- AuthInterceptor&#45;&gt;AppModule -->
<g id="edge9" class="edge">
<title>AuthInterceptor&#45;&gt;AppModule</title>
<path fill="none" stroke="black" d="M1265,-84.81C1265,-107.29 1265,-142.8 1265,-142.8 1265,-142.8 701.79,-142.8 701.79,-142.8"/>
<polygon fill="black" stroke="black" points="701.79,-139.3 691.79,-142.8 701.79,-146.3 701.79,-139.3"/>
</g>
<!-- BaseUrlInterceptor -->
<g id="node11" class="node">
<title>BaseUrlInterceptor</title>
<ellipse fill="#fdb462" stroke="black" cx="1089" cy="-66.8" rx="85.07" ry="18"/>
<text text-anchor="middle" x="1089" y="-62.6" font-family="Times,serif" font-size="14.00">BaseUrlInterceptor</text>
</g>
<!-- BaseUrlInterceptor&#45;&gt;AppModule -->
<g id="edge10" class="edge">
<title>BaseUrlInterceptor&#45;&gt;AppModule</title>
<path fill="none" stroke="black" d="M1089,-84.93C1089,-105.37 1089,-135.8 1089,-135.8 1089,-135.8 701.7,-135.8 701.7,-135.8"/>
<polygon fill="black" stroke="black" points="701.7,-132.3 691.7,-135.8 701.7,-139.3 701.7,-132.3"/>
</g>
</g>
</svg>
