<?xml version="1.0" encoding="UTF-8" standalone="no"?>
<!DOCTYPE svg PUBLIC "-//W3C//DTD SVG 1.1//EN"
 "http://www.w3.org/Graphics/SVG/1.1/DTD/svg11.dtd">
<!-- Generated by graphviz version 5.0.0 (20220707.1540)
 -->
<!-- Title: dependencies Pages: 1 -->
<svg width="2547pt" height="247pt"
 viewBox="0.00 0.00 2547.00 246.80" xmlns="http://www.w3.org/2000/svg" xmlns:xlink="http://www.w3.org/1999/xlink">
<g id="graph0" class="graph" transform="scale(1 1) rotate(0) translate(4 242.8)">
<title>dependencies</title>
<polygon fill="white" stroke="transparent" points="-4,4 -4,-242.8 2543,-242.8 2543,4 -4,4"/>
<text text-anchor="middle" x="1269.5" y="-8.2" font-family="sans-serif" font-size="14.00">dependencies</text>
<g id="clust1" class="cluster">
<title>cluster_AppModule</title>
<polygon fill="none" stroke="black" stroke-dasharray="1,5" points="8,-32.8 8,-230.8 2531,-230.8 2531,-32.8 8,-32.8"/>
</g>
<g id="clust2" class="cluster">
<title>cluster_AppModule_declarations</title>
<polygon fill="none" stroke="black" points="1527,-40.8 1527,-92.8 2523,-92.8 2523,-40.8 1527,-40.8"/>
</g>
<g id="clust10" class="cluster">
<title>cluster_AppModule_imports</title>
<polygon fill="none" stroke="black" points="1105,-40.8 1105,-92.8 1519,-92.8 1519,-40.8 1105,-40.8"/>
</g>
<g id="clust12" class="cluster">
<title>cluster_AppModule_bootstrap</title>
<polygon fill="none" stroke="black" points="1312,-170.8 1312,-222.8 1436,-222.8 1436,-170.8 1312,-170.8"/>
</g>
<g id="clust13" class="cluster">
<title>cluster_AppModule_providers</title>
<polygon fill="none" stroke="black" points="16,-40.8 16,-92.8 1097,-92.8 1097,-40.8 16,-40.8"/>
</g>
<!-- AppComponent -->
<g id="node1" class="node">
<title>AppComponent</title>
<polygon fill="#ffffb3" stroke="black" points="2514.94,-84.8 2409.06,-84.8 2409.06,-48.8 2514.94,-48.8 2514.94,-84.8"/>
<text text-anchor="middle" x="2462" y="-62.6" font-family="Times,serif" font-size="14.00">AppComponent</text>
</g>
<!-- AppModule -->
<g id="node8" class="node">
<title>AppModule</title>
<polygon fill="#8dd3c7" stroke="black" points="1415.66,-149.8 1412.66,-153.8 1391.66,-153.8 1388.66,-149.8 1332.34,-149.8 1332.34,-113.8 1415.66,-113.8 1415.66,-149.8"/>
<text text-anchor="middle" x="1374" y="-127.6" font-family="Times,serif" font-size="14.00">AppModule</text>
</g>
<!-- AppComponent&#45;&gt;AppModule -->
<g id="edge1" class="edge">
<title>AppComponent&#45;&gt;AppModule</title>
<path fill="none" stroke="black" d="M2462,-85.12C2462,-108.46 2462,-145.8 2462,-145.8 2462,-145.8 1425.98,-145.8 1425.98,-145.8"/>
<polygon fill="black" stroke="black" points="1425.98,-142.3 1415.98,-145.8 1425.98,-149.3 1425.98,-142.3"/>
</g>
<!-- ErrorComponent -->
<g id="node2" class="node">
<title>ErrorComponent</title>
<polygon fill="#ffffb3" stroke="black" points="2391.37,-84.8 2280.63,-84.8 2280.63,-48.8 2391.37,-48.8 2391.37,-84.8"/>
<text text-anchor="middle" x="2336" y="-62.6" font-family="Times,serif" font-size="14.00">ErrorComponent</text>
</g>
<!-- ErrorComponent&#45;&gt;AppModule -->
<g id="edge2" class="edge">
<title>ErrorComponent&#45;&gt;AppModule</title>
<path fill="none" stroke="black" d="M2336,-85.09C2336,-107.01 2336,-140.8 2336,-140.8 2336,-140.8 1425.95,-140.8 1425.95,-140.8"/>
<polygon fill="black" stroke="black" points="1425.95,-137.3 1415.95,-140.8 1425.95,-144.3 1425.95,-137.3"/>
</g>
<!-- FrameComponent -->
<g id="node3" class="node">
<title>FrameComponent</title>
<polygon fill="#ffffb3" stroke="black" points="2262.6,-84.8 2145.4,-84.8 2145.4,-48.8 2262.6,-48.8 2262.6,-84.8"/>
<text text-anchor="middle" x="2204" y="-62.6" font-family="Times,serif" font-size="14.00">FrameComponent</text>
</g>
<!-- FrameComponent&#45;&gt;AppModule -->
<g id="edge3" class="edge">
<title>FrameComponent&#45;&gt;AppModule</title>
<path fill="none" stroke="black" d="M2204,-84.83C2204,-105.57 2204,-136.8 2204,-136.8 2204,-136.8 1425.73,-136.8 1425.73,-136.8"/>
<polygon fill="black" stroke="black" points="1425.73,-133.3 1415.73,-136.8 1425.73,-140.3 1425.73,-133.3"/>
</g>
<!-- LangSelectorDirective -->
<g id="node4" class="node">
<title>LangSelectorDirective</title>
<polygon fill="#ffffb3" stroke="black" points="2127.22,-84.8 1984.78,-84.8 1984.78,-48.8 2127.22,-48.8 2127.22,-84.8"/>
<text text-anchor="middle" x="2056" y="-62.6" font-family="Times,serif" font-size="14.00">LangSelectorDirective</text>
</g>
<!-- LangSelectorDirective&#45;&gt;AppModule -->
<g id="edge4" class="edge">
<title>LangSelectorDirective&#45;&gt;AppModule</title>
<path fill="none" stroke="black" d="M2056,-84.91C2056,-104.14 2056,-131.8 2056,-131.8 2056,-131.8 1425.89,-131.8 1425.89,-131.8"/>
<polygon fill="black" stroke="black" points="1425.89,-128.3 1415.89,-131.8 1425.89,-135.3 1425.89,-128.3"/>
</g>
<!-- LoaderComponent -->
<g id="node5" class="node">
<title>LoaderComponent</title>
<polygon fill="#ffffb3" stroke="black" points="1966.47,-84.8 1845.53,-84.8 1845.53,-48.8 1966.47,-48.8 1966.47,-84.8"/>
<text text-anchor="middle" x="1906" y="-62.6" font-family="Times,serif" font-size="14.00">LoaderComponent</text>
</g>
<!-- LoaderComponent&#45;&gt;AppModule -->
<g id="edge5" class="edge">
<title>LoaderComponent&#45;&gt;AppModule</title>
<path fill="none" stroke="black" d="M1906,-85.1C1906,-103.07 1906,-127.8 1906,-127.8 1906,-127.8 1425.75,-127.8 1425.75,-127.8"/>
<polygon fill="black" stroke="black" points="1425.75,-124.3 1415.75,-127.8 1425.75,-131.3 1425.75,-124.3"/>
</g>
<!-- SideBarComponent -->
<g id="node6" class="node">
<title>SideBarComponent</title>
<polygon fill="#ffffb3" stroke="black" points="1827.44,-84.8 1700.56,-84.8 1700.56,-48.8 1827.44,-48.8 1827.44,-84.8"/>
<text text-anchor="middle" x="1764" y="-62.6" font-family="Times,serif" font-size="14.00">SideBarComponent</text>
</g>
<!-- SideBarComponent&#45;&gt;AppModule -->
<g id="edge6" class="edge">
<title>SideBarComponent&#45;&gt;AppModule</title>
<path fill="none" stroke="black" d="M1764,-84.83C1764,-101.2 1764,-122.8 1764,-122.8 1764,-122.8 1425.74,-122.8 1425.74,-122.8"/>
<polygon fill="black" stroke="black" points="1425.74,-119.3 1415.74,-122.8 1425.74,-126.3 1425.74,-119.3"/>
</g>
<!-- UserPopoutComponent -->
<g id="node7" class="node">
<title>UserPopoutComponent</title>
<polygon fill="#ffffb3" stroke="black" points="1682.94,-84.8 1535.06,-84.8 1535.06,-48.8 1682.94,-48.8 1682.94,-84.8"/>
<text text-anchor="middle" x="1609" y="-62.6" font-family="Times,serif" font-size="14.00">UserPopoutComponent</text>
</g>
<!-- UserPopoutComponent&#45;&gt;AppModule -->
<g id="edge7" class="edge">
<title>UserPopoutComponent&#45;&gt;AppModule</title>
<path fill="none" stroke="black" d="M1609,-84.99C1609,-99.98 1609,-118.8 1609,-118.8 1609,-118.8 1425.74,-118.8 1425.74,-118.8"/>
<polygon fill="black" stroke="black" points="1425.74,-115.3 1415.74,-118.8 1425.74,-122.3 1425.74,-115.3"/>
</g>
<!-- AppComponent  -->
<g id="node12" class="node">
<title>AppComponent </title>
<polygon fill="#80b1d3" stroke="black" points="1428.44,-214.8 1319.56,-214.8 1319.56,-178.8 1428.44,-178.8 1428.44,-214.8"/>
<text text-anchor="middle" x="1374" y="-192.6" font-family="Times,serif" font-size="14.00">AppComponent </text>
</g>
<!-- AppModule&#45;&gt;AppComponent  -->
<g id="edge11" class="edge">
<title>AppModule&#45;&gt;AppComponent </title>
<path fill="none" stroke="black" stroke-dasharray="1,5" d="M1374,-149.91C1374,-149.91 1374,-168.79 1374,-168.79"/>
<polygon fill="black" stroke="black" points="1370.5,-168.79 1374,-178.79 1377.5,-168.79 1370.5,-168.79"/>
</g>
<!-- AppRoutingModule -->
<g id="node9" class="node">
<title>AppRoutingModule</title>
<polygon fill="#8dd3c7" stroke="black" points="1511.28,-84.8 1508.28,-88.8 1487.28,-88.8 1484.28,-84.8 1382.72,-84.8 1382.72,-48.8 1511.28,-48.8 1511.28,-84.8"/>
<text text-anchor="middle" x="1447" y="-62.6" font-family="Times,serif" font-size="14.00">AppRoutingModule</text>
</g>
<!-- AppRoutingModule&#45;&gt;AppModule -->
<g id="edge8" class="edge">
<title>AppRoutingModule&#45;&gt;AppModule</title>
<path fill="none" stroke="black" d="M1399.22,-84.91C1399.22,-84.91 1399.22,-103.79 1399.22,-103.79"/>
<polygon fill="black" stroke="black" points="1395.72,-103.79 1399.22,-113.79 1402.72,-103.79 1395.72,-103.79"/>
</g>
<!-- AuthConfigModule -->
<g id="node10" class="node">
<title>AuthConfigModule</title>
<polygon fill="#8dd3c7" stroke="black" points="1364.44,-84.8 1361.44,-88.8 1340.44,-88.8 1337.44,-84.8 1237.56,-84.8 1237.56,-48.8 1364.44,-48.8 1364.44,-84.8"/>
<text text-anchor="middle" x="1301" y="-62.6" font-family="Times,serif" font-size="14.00">AuthConfigModule</text>
</g>
<!-- AuthConfigModule&#45;&gt;AppModule -->
<g id="edge9" class="edge">
<title>AuthConfigModule&#45;&gt;AppModule</title>
<path fill="none" stroke="black" d="M1348.19,-84.91C1348.19,-84.91 1348.19,-103.79 1348.19,-103.79"/>
<polygon fill="black" stroke="black" points="1344.69,-103.79 1348.19,-113.79 1351.69,-103.79 1344.69,-103.79"/>
</g>
<!-- WisdomModule -->
<g id="node11" class="node">
<title>WisdomModule</title>
<polygon fill="#8dd3c7" stroke="black" points="1219.49,-84.8 1216.49,-88.8 1195.49,-88.8 1192.49,-84.8 1112.51,-84.8 1112.51,-48.8 1219.49,-48.8 1219.49,-84.8"/>
<text text-anchor="middle" x="1166" y="-62.6" font-family="Times,serif" font-size="14.00">WisdomModule</text>
</g>
<!-- WisdomModule&#45;&gt;AppModule -->
<g id="edge10" class="edge">
<title>WisdomModule&#45;&gt;AppModule</title>
<path fill="none" stroke="black" d="M1166,-84.99C1166,-99.98 1166,-118.8 1166,-118.8 1166,-118.8 1321.91,-118.8 1321.91,-118.8"/>
<polygon fill="black" stroke="black" points="1321.91,-122.3 1331.91,-118.8 1321.91,-115.3 1321.91,-122.3"/>
</g>
<!-- AuthInterceptor -->
<g id="node13" class="node">
<title>AuthInterceptor</title>
<ellipse fill="#fdb462" stroke="black" cx="1016" cy="-66.8" rx="72.92" ry="18"/>
<text text-anchor="middle" x="1016" y="-62.6" font-family="Times,serif" font-size="14.00">AuthInterceptor</text>
</g>
<!-- AuthInterceptor&#45;&gt;AppModule -->
<g id="edge12" class="edge">
<title>AuthInterceptor&#45;&gt;AppModule</title>
<path fill="none" stroke="black" d="M1016,-84.83C1016,-101.2 1016,-122.8 1016,-122.8 1016,-122.8 1322.23,-122.8 1322.23,-122.8"/>
<polygon fill="black" stroke="black" points="1322.23,-126.3 1332.23,-122.8 1322.23,-119.3 1322.23,-126.3"/>
</g>
<!-- BaseUrlInterceptor -->
<g id="node14" class="node">
<title>BaseUrlInterceptor</title>
<ellipse fill="#fdb462" stroke="black" cx="840" cy="-66.8" rx="85.08" ry="18"/>
<text text-anchor="middle" x="840" y="-62.6" font-family="Times,serif" font-size="14.00">BaseUrlInterceptor</text>
</g>
<!-- BaseUrlInterceptor&#45;&gt;AppModule -->
<g id="edge13" class="edge">
<title>BaseUrlInterceptor&#45;&gt;AppModule</title>
<path fill="none" stroke="black" d="M840,-85.1C840,-103.07 840,-127.8 840,-127.8 840,-127.8 1322.1,-127.8 1322.1,-127.8"/>
<polygon fill="black" stroke="black" points="1322.1,-131.3 1332.1,-127.8 1322.1,-124.3 1322.1,-131.3"/>
</g>
<!-- CacheInterceptor -->
<g id="node15" class="node">
<title>CacheInterceptor</title>
<ellipse fill="#fdb462" stroke="black" cx="659" cy="-66.8" rx="77.54" ry="18"/>
<text text-anchor="middle" x="659" y="-62.6" font-family="Times,serif" font-size="14.00">CacheInterceptor</text>
</g>
<!-- CacheInterceptor&#45;&gt;AppModule -->
<g id="edge14" class="edge">
<title>CacheInterceptor&#45;&gt;AppModule</title>
<path fill="none" stroke="black" d="M659,-84.91C659,-104.14 659,-131.8 659,-131.8 659,-131.8 1322.21,-131.8 1322.21,-131.8"/>
<polygon fill="black" stroke="black" points="1322.21,-135.3 1332.21,-131.8 1322.21,-128.3 1322.21,-135.3"/>
</g>
<!-- ErrorInterceptor -->
<g id="node16" class="node">
<title>ErrorInterceptor</title>
<ellipse fill="#fdb462" stroke="black" cx="490" cy="-66.8" rx="73.54" ry="18"/>
<text text-anchor="middle" x="490" y="-62.6" font-family="Times,serif" font-size="14.00">ErrorInterceptor</text>
</g>
<!-- ErrorInterceptor&#45;&gt;AppModule -->
<g id="edge15" class="edge">
<title>ErrorInterceptor&#45;&gt;AppModule</title>
<path fill="none" stroke="black" d="M490,-84.83C490,-105.57 490,-136.8 490,-136.8 490,-136.8 1322.25,-136.8 1322.25,-136.8"/>
<polygon fill="black" stroke="black" points="1322.25,-140.3 1332.25,-136.8 1322.25,-133.3 1322.25,-140.3"/>
</g>
<!-- LoaderInterceptor -->
<g id="node17" class="node">
<title>LoaderInterceptor</title>
<ellipse fill="#fdb462" stroke="black" cx="317" cy="-66.8" rx="80.98" ry="18"/>
<text text-anchor="middle" x="317" y="-62.6" font-family="Times,serif" font-size="14.00">LoaderInterceptor</text>
</g>
<!-- LoaderInterceptor&#45;&gt;AppModule -->
<g id="edge16" class="edge">
<title>LoaderInterceptor&#45;&gt;AppModule</title>
<path fill="none" stroke="black" d="M317,-85.09C317,-107.01 317,-140.8 317,-140.8 317,-140.8 1322.24,-140.8 1322.24,-140.8"/>
<polygon fill="black" stroke="black" points="1322.24,-144.3 1332.24,-140.8 1322.24,-137.3 1322.24,-144.3"/>
</g>
<!-- SanitizeUrlInterceptor -->
<g id="node18" class="node">
<title>SanitizeUrlInterceptor</title>
<ellipse fill="#fdb462" stroke="black" cx="121" cy="-66.8" rx="97.25" ry="18"/>
<text text-anchor="middle" x="121" y="-62.6" font-family="Times,serif" font-size="14.00">SanitizeUrlInterceptor</text>
</g>
<!-- SanitizeUrlInterceptor&#45;&gt;AppModule -->
<g id="edge17" class="edge">
<title>SanitizeUrlInterceptor&#45;&gt;AppModule</title>
<path fill="none" stroke="black" d="M121,-85.12C121,-108.46 121,-145.8 121,-145.8 121,-145.8 1322.31,-145.8 1322.31,-145.8"/>
<polygon fill="black" stroke="black" points="1322.31,-149.3 1332.31,-145.8 1322.31,-142.3 1322.31,-149.3"/>
</g>
</g>
</svg>
