<?xml version="1.0" encoding="UTF-8" standalone="no"?>
<!DOCTYPE svg PUBLIC "-//W3C//DTD SVG 1.1//EN"
 "http://www.w3.org/Graphics/SVG/1.1/DTD/svg11.dtd">
<!-- Generated by graphviz version 5.0.0 (20220707.1540)
 -->
<!-- Title: dependencies Pages: 1 -->
<svg width="2369pt" height="247pt"
 viewBox="0.00 0.00 2369.00 246.80" xmlns="http://www.w3.org/2000/svg" xmlns:xlink="http://www.w3.org/1999/xlink">
<g id="graph0" class="graph" transform="scale(1 1) rotate(0) translate(4 242.8)">
<title>dependencies</title>
<polygon fill="white" stroke="transparent" points="-4,4 -4,-242.8 2365,-242.8 2365,4 -4,4"/>
<text text-anchor="middle" x="1180.5" y="-8.2" font-family="sans-serif" font-size="14.00">dependencies</text>
<g id="clust1" class="cluster">
<title>cluster_AppModule</title>
<polygon fill="none" stroke="black" stroke-dasharray="1,5" points="8,-32.8 8,-230.8 2353,-230.8 2353,-32.8 8,-32.8"/>
</g>
<g id="clust12" class="cluster">
<title>cluster_AppModule_bootstrap</title>
<polygon fill="none" stroke="black" points="986,-170.8 986,-222.8 1110,-222.8 1110,-170.8 986,-170.8"/>
</g>
<g id="clust13" class="cluster">
<title>cluster_AppModule_providers</title>
<polygon fill="none" stroke="black" points="1264,-40.8 1264,-92.8 2345,-92.8 2345,-40.8 1264,-40.8"/>
</g>
<g id="clust10" class="cluster">
<title>cluster_AppModule_imports</title>
<polygon fill="none" stroke="black" points="987,-40.8 987,-92.8 1256,-92.8 1256,-40.8 987,-40.8"/>
</g>
<g id="clust2" class="cluster">
<title>cluster_AppModule_declarations</title>
<polygon fill="none" stroke="black" points="16,-40.8 16,-92.8 979,-92.8 979,-40.8 16,-40.8"/>
</g>
<!-- AppComponent -->
<g id="node1" class="node">
<title>AppComponent</title>
<polygon fill="#ffffb3" stroke="black" points="970.94,-84.8 865.06,-84.8 865.06,-48.8 970.94,-48.8 970.94,-84.8"/>
<text text-anchor="middle" x="918" y="-62.6" font-family="Times,serif" font-size="14.00">AppComponent</text>
</g>
<!-- AppModule -->
<g id="node8" class="node">
<title>AppModule</title>
<polygon fill="#8dd3c7" stroke="black" points="1089.66,-149.8 1086.66,-153.8 1065.66,-153.8 1062.66,-149.8 1006.34,-149.8 1006.34,-113.8 1089.66,-113.8 1089.66,-149.8"/>
<text text-anchor="middle" x="1048" y="-127.6" font-family="Times,serif" font-size="14.00">AppModule</text>
</g>
<!-- AppComponent&#45;&gt;AppModule -->
<g id="edge1" class="edge">
<title>AppComponent&#45;&gt;AppModule</title>
<path fill="none" stroke="black" d="M918,-84.99C918,-99.98 918,-118.8 918,-118.8 918,-118.8 996.15,-118.8 996.15,-118.8"/>
<polygon fill="black" stroke="black" points="996.15,-122.3 1006.15,-118.8 996.15,-115.3 996.15,-122.3"/>
</g>
<!-- ErrorComponent -->
<g id="node2" class="node">
<title>ErrorComponent</title>
<polygon fill="#ffffb3" stroke="black" points="847.37,-84.8 736.63,-84.8 736.63,-48.8 847.37,-48.8 847.37,-84.8"/>
<text text-anchor="middle" x="792" y="-62.6" font-family="Times,serif" font-size="14.00">ErrorComponent</text>
</g>
<!-- ErrorComponent&#45;&gt;AppModule -->
<g id="edge2" class="edge">
<title>ErrorComponent&#45;&gt;AppModule</title>
<path fill="none" stroke="black" d="M792,-84.83C792,-101.2 792,-122.8 792,-122.8 792,-122.8 996.3,-122.8 996.3,-122.8"/>
<polygon fill="black" stroke="black" points="996.3,-126.3 1006.3,-122.8 996.3,-119.3 996.3,-126.3"/>
</g>
<!-- FrameComponent -->
<g id="node3" class="node">
<title>FrameComponent</title>
<polygon fill="#ffffb3" stroke="black" points="718.6,-84.8 601.4,-84.8 601.4,-48.8 718.6,-48.8 718.6,-84.8"/>
<text text-anchor="middle" x="660" y="-62.6" font-family="Times,serif" font-size="14.00">FrameComponent</text>
</g>
<!-- FrameComponent&#45;&gt;AppModule -->
<g id="edge3" class="edge">
<title>FrameComponent&#45;&gt;AppModule</title>
<path fill="none" stroke="black" d="M660,-85.1C660,-103.07 660,-127.8 660,-127.8 660,-127.8 996.11,-127.8 996.11,-127.8"/>
<polygon fill="black" stroke="black" points="996.11,-131.3 1006.11,-127.8 996.11,-124.3 996.11,-131.3"/>
</g>
<!-- LangSelectorDirective -->
<g id="node4" class="node">
<title>LangSelectorDirective</title>
<polygon fill="#ffffb3" stroke="black" points="583.22,-84.8 440.78,-84.8 440.78,-48.8 583.22,-48.8 583.22,-84.8"/>
<text text-anchor="middle" x="512" y="-62.6" font-family="Times,serif" font-size="14.00">LangSelectorDirective</text>
</g>
<!-- LangSelectorDirective&#45;&gt;AppModule -->
<g id="edge4" class="edge">
<title>LangSelectorDirective&#45;&gt;AppModule</title>
<path fill="none" stroke="black" d="M512,-84.91C512,-104.14 512,-131.8 512,-131.8 512,-131.8 995.94,-131.8 995.94,-131.8"/>
<polygon fill="black" stroke="black" points="995.94,-135.3 1005.94,-131.8 995.94,-128.3 995.94,-135.3"/>
</g>
<!-- LoaderComponent -->
<g id="node5" class="node">
<title>LoaderComponent</title>
<polygon fill="#ffffb3" stroke="black" points="422.47,-84.8 301.53,-84.8 301.53,-48.8 422.47,-48.8 422.47,-84.8"/>
<text text-anchor="middle" x="362" y="-62.6" font-family="Times,serif" font-size="14.00">LoaderComponent</text>
</g>
<!-- LoaderComponent&#45;&gt;AppModule -->
<g id="edge5" class="edge">
<title>LoaderComponent&#45;&gt;AppModule</title>
<path fill="none" stroke="black" d="M362,-84.83C362,-105.57 362,-136.8 362,-136.8 362,-136.8 996.12,-136.8 996.12,-136.8"/>
<polygon fill="black" stroke="black" points="996.12,-140.3 1006.12,-136.8 996.12,-133.3 996.12,-140.3"/>
</g>
<!-- LoginComponent -->
<g id="node6" class="node">
<title>LoginComponent</title>
<polygon fill="#ffffb3" stroke="black" points="283.27,-84.8 168.73,-84.8 168.73,-48.8 283.27,-48.8 283.27,-84.8"/>
<text text-anchor="middle" x="226" y="-62.6" font-family="Times,serif" font-size="14.00">LoginComponent</text>
</g>
<!-- LoginComponent&#45;&gt;AppModule -->
<g id="edge6" class="edge">
<title>LoginComponent&#45;&gt;AppModule</title>
<path fill="none" stroke="black" d="M226,-85.09C226,-107.01 226,-140.8 226,-140.8 226,-140.8 996.11,-140.8 996.11,-140.8"/>
<polygon fill="black" stroke="black" points="996.11,-144.3 1006.11,-140.8 996.11,-137.3 996.11,-144.3"/>
</g>
<!-- SideBarComponent -->
<g id="node7" class="node">
<title>SideBarComponent</title>
<polygon fill="#ffffb3" stroke="black" points="150.44,-84.8 23.56,-84.8 23.56,-48.8 150.44,-48.8 150.44,-84.8"/>
<text text-anchor="middle" x="87" y="-62.6" font-family="Times,serif" font-size="14.00">SideBarComponent</text>
</g>
<!-- SideBarComponent&#45;&gt;AppModule -->
<g id="edge7" class="edge">
<title>SideBarComponent&#45;&gt;AppModule</title>
<path fill="none" stroke="black" d="M87,-85.12C87,-108.46 87,-145.8 87,-145.8 87,-145.8 996.09,-145.8 996.09,-145.8"/>
<polygon fill="black" stroke="black" points="996.09,-149.3 1006.09,-145.8 996.09,-142.3 996.09,-149.3"/>
</g>
<!-- AppComponent  -->
<g id="node11" class="node">
<title>AppComponent </title>
<polygon fill="#80b1d3" stroke="black" points="1102.44,-214.8 993.56,-214.8 993.56,-178.8 1102.44,-178.8 1102.44,-214.8"/>
<text text-anchor="middle" x="1048" y="-192.6" font-family="Times,serif" font-size="14.00">AppComponent </text>
</g>
<!-- AppModule&#45;&gt;AppComponent  -->
<g id="edge10" class="edge">
<title>AppModule&#45;&gt;AppComponent </title>
<path fill="none" stroke="black" stroke-dasharray="1,5" d="M1048,-149.91C1048,-149.91 1048,-168.79 1048,-168.79"/>
<polygon fill="black" stroke="black" points="1044.5,-168.79 1048,-178.79 1051.5,-168.79 1044.5,-168.79"/>
</g>
<!-- AppRoutingModule -->
<g id="node9" class="node">
<title>AppRoutingModule</title>
<polygon fill="#8dd3c7" stroke="black" points="1248.28,-84.8 1245.28,-88.8 1224.28,-88.8 1221.28,-84.8 1119.72,-84.8 1119.72,-48.8 1248.28,-48.8 1248.28,-84.8"/>
<text text-anchor="middle" x="1184" y="-62.6" font-family="Times,serif" font-size="14.00">AppRoutingModule</text>
</g>
<!-- AppRoutingModule&#45;&gt;AppModule -->
<g id="edge8" class="edge">
<title>AppRoutingModule&#45;&gt;AppModule</title>
<path fill="none" stroke="black" d="M1184,-84.99C1184,-99.98 1184,-118.8 1184,-118.8 1184,-118.8 1099.91,-118.8 1099.91,-118.8"/>
<polygon fill="black" stroke="black" points="1099.91,-115.3 1089.91,-118.8 1099.91,-122.3 1099.91,-115.3"/>
</g>
<!-- WisdomModule -->
<g id="node10" class="node">
<title>WisdomModule</title>
<polygon fill="#8dd3c7" stroke="black" points="1101.49,-84.8 1098.49,-88.8 1077.49,-88.8 1074.49,-84.8 994.51,-84.8 994.51,-48.8 1101.49,-48.8 1101.49,-84.8"/>
<text text-anchor="middle" x="1048" y="-62.6" font-family="Times,serif" font-size="14.00">WisdomModule</text>
</g>
<!-- WisdomModule&#45;&gt;AppModule -->
<g id="edge9" class="edge">
<title>WisdomModule&#45;&gt;AppModule</title>
<path fill="none" stroke="black" d="M1048,-84.91C1048,-84.91 1048,-103.79 1048,-103.79"/>
<polygon fill="black" stroke="black" points="1044.5,-103.79 1048,-113.79 1051.5,-103.79 1044.5,-103.79"/>
</g>
<!-- AuthInterceptor -->
<g id="node12" class="node">
<title>AuthInterceptor</title>
<ellipse fill="#fdb462" stroke="black" cx="2264" cy="-66.8" rx="72.92" ry="18"/>
<text text-anchor="middle" x="2264" y="-62.6" font-family="Times,serif" font-size="14.00">AuthInterceptor</text>
</g>
<!-- AuthInterceptor&#45;&gt;AppModule -->
<g id="edge11" class="edge">
<title>AuthInterceptor&#45;&gt;AppModule</title>
<path fill="none" stroke="black" d="M2264,-85.12C2264,-108.46 2264,-145.8 2264,-145.8 2264,-145.8 1099.86,-145.8 1099.86,-145.8"/>
<polygon fill="black" stroke="black" points="1099.86,-142.3 1089.86,-145.8 1099.86,-149.3 1099.86,-142.3"/>
</g>
<!-- BaseUrlInterceptor -->
<g id="node13" class="node">
<title>BaseUrlInterceptor</title>
<ellipse fill="#fdb462" stroke="black" cx="2088" cy="-66.8" rx="85.08" ry="18"/>
<text text-anchor="middle" x="2088" y="-62.6" font-family="Times,serif" font-size="14.00">BaseUrlInterceptor</text>
</g>
<!-- BaseUrlInterceptor&#45;&gt;AppModule -->
<g id="edge12" class="edge">
<title>BaseUrlInterceptor&#45;&gt;AppModule</title>
<path fill="none" stroke="black" d="M2088,-85.09C2088,-107.01 2088,-140.8 2088,-140.8 2088,-140.8 1099.73,-140.8 1099.73,-140.8"/>
<polygon fill="black" stroke="black" points="1099.73,-137.3 1089.73,-140.8 1099.73,-144.3 1099.73,-137.3"/>
</g>
<!-- CacheInterceptor -->
<g id="node14" class="node">
<title>CacheInterceptor</title>
<ellipse fill="#fdb462" stroke="black" cx="1907" cy="-66.8" rx="77.54" ry="18"/>
<text text-anchor="middle" x="1907" y="-62.6" font-family="Times,serif" font-size="14.00">CacheInterceptor</text>
</g>
<!-- CacheInterceptor&#45;&gt;AppModule -->
<g id="edge13" class="edge">
<title>CacheInterceptor&#45;&gt;AppModule</title>
<path fill="none" stroke="black" d="M1907,-84.83C1907,-105.57 1907,-136.8 1907,-136.8 1907,-136.8 1099.72,-136.8 1099.72,-136.8"/>
<polygon fill="black" stroke="black" points="1099.72,-133.3 1089.72,-136.8 1099.72,-140.3 1099.72,-133.3"/>
</g>
<!-- ErrorInterceptor -->
<g id="node15" class="node">
<title>ErrorInterceptor</title>
<ellipse fill="#fdb462" stroke="black" cx="1738" cy="-66.8" rx="73.54" ry="18"/>
<text text-anchor="middle" x="1738" y="-62.6" font-family="Times,serif" font-size="14.00">ErrorInterceptor</text>
</g>
<!-- ErrorInterceptor&#45;&gt;AppModule -->
<g id="edge14" class="edge">
<title>ErrorInterceptor&#45;&gt;AppModule</title>
<path fill="none" stroke="black" d="M1738,-84.91C1738,-104.14 1738,-131.8 1738,-131.8 1738,-131.8 1099.87,-131.8 1099.87,-131.8"/>
<polygon fill="black" stroke="black" points="1099.87,-128.3 1089.87,-131.8 1099.87,-135.3 1099.87,-128.3"/>
</g>
<!-- LoaderInterceptor -->
<g id="node16" class="node">
<title>LoaderInterceptor</title>
<ellipse fill="#fdb462" stroke="black" cx="1565" cy="-66.8" rx="80.98" ry="18"/>
<text text-anchor="middle" x="1565" y="-62.6" font-family="Times,serif" font-size="14.00">LoaderInterceptor</text>
</g>
<!-- LoaderInterceptor&#45;&gt;AppModule -->
<g id="edge15" class="edge">
<title>LoaderInterceptor&#45;&gt;AppModule</title>
<path fill="none" stroke="black" d="M1565,-85.1C1565,-103.07 1565,-127.8 1565,-127.8 1565,-127.8 1099.87,-127.8 1099.87,-127.8"/>
<polygon fill="black" stroke="black" points="1099.87,-124.3 1089.87,-127.8 1099.87,-131.3 1099.87,-124.3"/>
</g>
<!-- SanitizeUrlInterceptor -->
<g id="node17" class="node">
<title>SanitizeUrlInterceptor</title>
<ellipse fill="#fdb462" stroke="black" cx="1369" cy="-66.8" rx="97.25" ry="18"/>
<text text-anchor="middle" x="1369" y="-62.6" font-family="Times,serif" font-size="14.00">SanitizeUrlInterceptor</text>
</g>
<!-- SanitizeUrlInterceptor&#45;&gt;AppModule -->
<g id="edge16" class="edge">
<title>SanitizeUrlInterceptor&#45;&gt;AppModule</title>
<path fill="none" stroke="black" d="M1369,-84.83C1369,-101.2 1369,-122.8 1369,-122.8 1369,-122.8 1099.97,-122.8 1099.97,-122.8"/>
<polygon fill="black" stroke="black" points="1099.97,-119.3 1089.97,-122.8 1099.97,-126.3 1099.97,-119.3"/>
</g>
</g>
</svg>
