<?xml version="1.0" encoding="UTF-8" standalone="no"?>
<!DOCTYPE svg PUBLIC "-//W3C//DTD SVG 1.1//EN"
 "http://www.w3.org/Graphics/SVG/1.1/DTD/svg11.dtd">
<!-- Generated by graphviz version 2.47.3 (20210619.1520)
 -->
<!-- Title: dependencies Pages: 1 -->
<svg width="1225pt" height="247pt"
 viewBox="0.00 0.00 1225.00 246.80" xmlns="http://www.w3.org/2000/svg" xmlns:xlink="http://www.w3.org/1999/xlink">
<g id="graph0" class="graph" transform="scale(1 1) rotate(0) translate(4 242.8)">
<title>dependencies</title>
<polygon fill="white" stroke="transparent" points="-4,4 -4,-242.8 1221,-242.8 1221,4 -4,4"/>
<text text-anchor="middle" x="608.5" y="-8.2" font-family="sans-serif" font-size="14.00">dependencies</text>
<g id="clust1" class="cluster">
<title>cluster_AppModule</title>
<polygon fill="none" stroke="black" stroke-dasharray="1,5" points="8,-32.8 8,-230.8 1209,-230.8 1209,-32.8 8,-32.8"/>
</g>
<g id="clust2" class="cluster">
<title>cluster_AppModule_declarations</title>
<polygon fill="none" stroke="black" points="651,-40.8 651,-92.8 1201,-92.8 1201,-40.8 651,-40.8"/>
</g>
<g id="clust9" class="cluster">
<title>cluster_AppModule_bootstrap</title>
<polygon fill="none" stroke="black" points="581,-170.8 581,-222.8 705,-222.8 705,-170.8 581,-170.8"/>
</g>
<g id="clust7" class="cluster">
<title>cluster_AppModule_imports</title>
<polygon fill="none" stroke="black" points="374,-40.8 374,-92.8 643,-92.8 643,-40.8 374,-40.8"/>
</g>
<g id="clust10" class="cluster">
<title>cluster_AppModule_providers</title>
<polygon fill="none" stroke="black" points="16,-40.8 16,-92.8 366,-92.8 366,-40.8 16,-40.8"/>
</g>
<!-- AppComponent -->
<g id="node1" class="node">
<title>AppComponent</title>
<polygon fill="#ffffb3" stroke="black" points="1192.94,-84.8 1087.06,-84.8 1087.06,-48.8 1192.94,-48.8 1192.94,-84.8"/>
<text text-anchor="middle" x="1140" y="-62.6" font-family="Times,serif" font-size="14.00">AppComponent</text>
</g>
<!-- AppModule -->
<g id="node5" class="node">
<title>AppModule</title>
<polygon fill="#8dd3c7" stroke="black" points="684.66,-149.8 681.66,-153.8 660.66,-153.8 657.66,-149.8 601.34,-149.8 601.34,-113.8 684.66,-113.8 684.66,-149.8"/>
<text text-anchor="middle" x="643" y="-127.6" font-family="Times,serif" font-size="14.00">AppModule</text>
</g>
<!-- AppComponent&#45;&gt;AppModule -->
<g id="edge1" class="edge">
<title>AppComponent&#45;&gt;AppModule</title>
<path fill="none" stroke="black" d="M1140,-85.09C1140,-107.01 1140,-140.8 1140,-140.8 1140,-140.8 694.95,-140.8 694.95,-140.8"/>
<polygon fill="black" stroke="black" points="694.95,-137.3 684.95,-140.8 694.95,-144.3 694.95,-137.3"/>
</g>
<!-- FrameComponent -->
<g id="node2" class="node">
<title>FrameComponent</title>
<polygon fill="#ffffb3" stroke="black" points="1069.6,-84.8 952.4,-84.8 952.4,-48.8 1069.6,-48.8 1069.6,-84.8"/>
<text text-anchor="middle" x="1011" y="-62.6" font-family="Times,serif" font-size="14.00">FrameComponent</text>
</g>
<!-- FrameComponent&#45;&gt;AppModule -->
<g id="edge2" class="edge">
<title>FrameComponent&#45;&gt;AppModule</title>
<path fill="none" stroke="black" d="M1011,-84.91C1011,-104.14 1011,-131.8 1011,-131.8 1011,-131.8 694.86,-131.8 694.86,-131.8"/>
<polygon fill="black" stroke="black" points="694.86,-128.3 684.86,-131.8 694.86,-135.3 694.86,-128.3"/>
</g>
<!-- LangSelectorDirective -->
<g id="node3" class="node">
<title>LangSelectorDirective</title>
<polygon fill="#ffffb3" stroke="black" points="934.22,-84.8 791.78,-84.8 791.78,-48.8 934.22,-48.8 934.22,-84.8"/>
<text text-anchor="middle" x="863" y="-62.6" font-family="Times,serif" font-size="14.00">LangSelectorDirective</text>
</g>
<!-- LangSelectorDirective&#45;&gt;AppModule -->
<g id="edge3" class="edge">
<title>LangSelectorDirective&#45;&gt;AppModule</title>
<path fill="none" stroke="black" d="M863,-84.83C863,-101.2 863,-122.8 863,-122.8 863,-122.8 694.9,-122.8 694.9,-122.8"/>
<polygon fill="black" stroke="black" points="694.9,-119.3 684.9,-122.8 694.9,-126.3 694.9,-119.3"/>
</g>
<!-- LoginComponent -->
<g id="node4" class="node">
<title>LoginComponent</title>
<polygon fill="#ffffb3" stroke="black" points="773.28,-84.8 658.72,-84.8 658.72,-48.8 773.28,-48.8 773.28,-84.8"/>
<text text-anchor="middle" x="716" y="-62.6" font-family="Times,serif" font-size="14.00">LoginComponent</text>
</g>
<!-- LoginComponent&#45;&gt;AppModule -->
<g id="edge4" class="edge">
<title>LoginComponent&#45;&gt;AppModule</title>
<path fill="none" stroke="black" d="M671.72,-84.91C671.72,-84.91 671.72,-103.79 671.72,-103.79"/>
<polygon fill="black" stroke="black" points="668.22,-103.79 671.72,-113.79 675.22,-103.79 668.22,-103.79"/>
</g>
<!-- AppComponent  -->
<g id="node8" class="node">
<title>AppComponent </title>
<polygon fill="#80b1d3" stroke="black" points="697.44,-214.8 588.56,-214.8 588.56,-178.8 697.44,-178.8 697.44,-214.8"/>
<text text-anchor="middle" x="643" y="-192.6" font-family="Times,serif" font-size="14.00">AppComponent </text>
</g>
<!-- AppModule&#45;&gt;AppComponent  -->
<g id="edge7" class="edge">
<title>AppModule&#45;&gt;AppComponent </title>
<path fill="none" stroke="black" stroke-dasharray="1,5" d="M643,-149.91C643,-149.91 643,-168.79 643,-168.79"/>
<polygon fill="black" stroke="black" points="639.5,-168.79 643,-178.79 646.5,-168.79 639.5,-168.79"/>
</g>
<!-- AppRoutingModule -->
<g id="node6" class="node">
<title>AppRoutingModule</title>
<polygon fill="#8dd3c7" stroke="black" points="635.27,-84.8 632.27,-88.8 611.27,-88.8 608.27,-84.8 506.73,-84.8 506.73,-48.8 635.27,-48.8 635.27,-84.8"/>
<text text-anchor="middle" x="571" y="-62.6" font-family="Times,serif" font-size="14.00">AppRoutingModule</text>
</g>
<!-- AppRoutingModule&#45;&gt;AppModule -->
<g id="edge5" class="edge">
<title>AppRoutingModule&#45;&gt;AppModule</title>
<path fill="none" stroke="black" d="M618.28,-84.91C618.28,-84.91 618.28,-103.79 618.28,-103.79"/>
<polygon fill="black" stroke="black" points="614.78,-103.79 618.28,-113.79 621.78,-103.79 614.78,-103.79"/>
</g>
<!-- WisdomModule -->
<g id="node7" class="node">
<title>WisdomModule</title>
<polygon fill="#8dd3c7" stroke="black" points="488.49,-84.8 485.49,-88.8 464.49,-88.8 461.49,-84.8 381.51,-84.8 381.51,-48.8 488.49,-48.8 488.49,-84.8"/>
<text text-anchor="middle" x="435" y="-62.6" font-family="Times,serif" font-size="14.00">WisdomModule</text>
</g>
<!-- WisdomModule&#45;&gt;AppModule -->
<g id="edge6" class="edge">
<title>WisdomModule&#45;&gt;AppModule</title>
<path fill="none" stroke="black" d="M435,-84.83C435,-101.2 435,-122.8 435,-122.8 435,-122.8 590.91,-122.8 590.91,-122.8"/>
<polygon fill="black" stroke="black" points="590.91,-126.3 600.91,-122.8 590.91,-119.3 590.91,-126.3"/>
</g>
<!-- AuthInterceptor -->
<g id="node9" class="node">
<title>AuthInterceptor</title>
<ellipse fill="#fdb462" stroke="black" cx="285" cy="-66.8" rx="72.91" ry="18"/>
<text text-anchor="middle" x="285" y="-62.6" font-family="Times,serif" font-size="14.00">AuthInterceptor</text>
</g>
<!-- AuthInterceptor&#45;&gt;AppModule -->
<g id="edge8" class="edge">
<title>AuthInterceptor&#45;&gt;AppModule</title>
<path fill="none" stroke="black" d="M285,-84.91C285,-104.14 285,-131.8 285,-131.8 285,-131.8 591.23,-131.8 591.23,-131.8"/>
<polygon fill="black" stroke="black" points="591.23,-135.3 601.23,-131.8 591.23,-128.3 591.23,-135.3"/>
</g>
<!-- BaseUrlInterceptor -->
<g id="node10" class="node">
<title>BaseUrlInterceptor</title>
<ellipse fill="#fdb462" stroke="black" cx="109" cy="-66.8" rx="85.07" ry="18"/>
<text text-anchor="middle" x="109" y="-62.6" font-family="Times,serif" font-size="14.00">BaseUrlInterceptor</text>
</g>
<!-- BaseUrlInterceptor&#45;&gt;AppModule -->
<g id="edge9" class="edge">
<title>BaseUrlInterceptor&#45;&gt;AppModule</title>
<path fill="none" stroke="black" d="M109,-85.09C109,-107.01 109,-140.8 109,-140.8 109,-140.8 591.1,-140.8 591.1,-140.8"/>
<polygon fill="black" stroke="black" points="591.1,-144.3 601.1,-140.8 591.1,-137.3 591.1,-144.3"/>
</g>
</g>
</svg>
