<?xml version="1.0" encoding="UTF-8" standalone="no"?>
<!DOCTYPE svg PUBLIC "-//W3C//DTD SVG 1.1//EN"
 "http://www.w3.org/Graphics/SVG/1.1/DTD/svg11.dtd">
<!-- Generated by graphviz version 2.47.3 (20210619.1520)
 -->
<!-- Title: dependencies Pages: 1 -->
<svg width="1499pt" height="247pt"
 viewBox="0.00 0.00 1499.00 246.80" xmlns="http://www.w3.org/2000/svg" xmlns:xlink="http://www.w3.org/1999/xlink">
<g id="graph0" class="graph" transform="scale(1 1) rotate(0) translate(4 242.8)">
<title>dependencies</title>
<polygon fill="white" stroke="transparent" points="-4,4 -4,-242.8 1495,-242.8 1495,4 -4,4"/>
<text text-anchor="middle" x="745.5" y="-8.2" font-family="sans-serif" font-size="14.00">dependencies</text>
<g id="clust1" class="cluster">
<title>cluster_AppModule</title>
<polygon fill="none" stroke="black" stroke-dasharray="1,5" points="8,-32.8 8,-230.8 1483,-230.8 1483,-32.8 8,-32.8"/>
</g>
<g id="clust11" class="cluster">
<title>cluster_AppModule_bootstrap</title>
<polygon fill="none" stroke="black" points="654,-170.8 654,-222.8 778,-222.8 778,-170.8 654,-170.8"/>
</g>
<g id="clust12" class="cluster">
<title>cluster_AppModule_providers</title>
<polygon fill="none" stroke="black" points="1125,-40.8 1125,-92.8 1475,-92.8 1475,-40.8 1125,-40.8"/>
</g>
<g id="clust9" class="cluster">
<title>cluster_AppModule_imports</title>
<polygon fill="none" stroke="black" points="848,-40.8 848,-92.8 1117,-92.8 1117,-40.8 848,-40.8"/>
</g>
<g id="clust2" class="cluster">
<title>cluster_AppModule_declarations</title>
<polygon fill="none" stroke="black" points="16,-40.8 16,-92.8 840,-92.8 840,-40.8 16,-40.8"/>
</g>
<!-- AppComponent -->
<g id="node1" class="node">
<title>AppComponent</title>
<polygon fill="#ffffb3" stroke="black" points="831.94,-84.8 726.06,-84.8 726.06,-48.8 831.94,-48.8 831.94,-84.8"/>
<text text-anchor="middle" x="779" y="-62.6" font-family="Times,serif" font-size="14.00">AppComponent</text>
</g>
<!-- AppModule -->
<g id="node7" class="node">
<title>AppModule</title>
<polygon fill="#8dd3c7" stroke="black" points="757.66,-149.8 754.66,-153.8 733.66,-153.8 730.66,-149.8 674.34,-149.8 674.34,-113.8 757.66,-113.8 757.66,-149.8"/>
<text text-anchor="middle" x="716" y="-127.6" font-family="Times,serif" font-size="14.00">AppModule</text>
</g>
<!-- AppComponent&#45;&gt;AppModule -->
<g id="edge1" class="edge">
<title>AppComponent&#45;&gt;AppModule</title>
<path fill="none" stroke="black" d="M742.05,-84.91C742.05,-84.91 742.05,-103.79 742.05,-103.79"/>
<polygon fill="black" stroke="black" points="738.55,-103.79 742.05,-113.79 745.55,-103.79 738.55,-103.79"/>
</g>
<!-- ErrorComponent -->
<g id="node2" class="node">
<title>ErrorComponent</title>
<polygon fill="#ffffb3" stroke="black" points="708.37,-84.8 597.63,-84.8 597.63,-48.8 708.37,-48.8 708.37,-84.8"/>
<text text-anchor="middle" x="653" y="-62.6" font-family="Times,serif" font-size="14.00">ErrorComponent</text>
</g>
<!-- ErrorComponent&#45;&gt;AppModule -->
<g id="edge2" class="edge">
<title>ErrorComponent&#45;&gt;AppModule</title>
<path fill="none" stroke="black" d="M691.3,-84.91C691.3,-84.91 691.3,-103.79 691.3,-103.79"/>
<polygon fill="black" stroke="black" points="687.8,-103.79 691.3,-113.79 694.8,-103.79 687.8,-103.79"/>
</g>
<!-- FrameComponent -->
<g id="node3" class="node">
<title>FrameComponent</title>
<polygon fill="#ffffb3" stroke="black" points="579.6,-84.8 462.4,-84.8 462.4,-48.8 579.6,-48.8 579.6,-84.8"/>
<text text-anchor="middle" x="521" y="-62.6" font-family="Times,serif" font-size="14.00">FrameComponent</text>
</g>
<!-- FrameComponent&#45;&gt;AppModule -->
<g id="edge3" class="edge">
<title>FrameComponent&#45;&gt;AppModule</title>
<path fill="none" stroke="black" d="M521,-84.81C521,-100.85 521,-121.8 521,-121.8 521,-121.8 664.17,-121.8 664.17,-121.8"/>
<polygon fill="black" stroke="black" points="664.17,-125.3 674.17,-121.8 664.17,-118.3 664.17,-125.3"/>
</g>
<!-- LangSelectorDirective -->
<g id="node4" class="node">
<title>LangSelectorDirective</title>
<polygon fill="#ffffb3" stroke="black" points="444.22,-84.8 301.78,-84.8 301.78,-48.8 444.22,-48.8 444.22,-84.8"/>
<text text-anchor="middle" x="373" y="-62.6" font-family="Times,serif" font-size="14.00">LangSelectorDirective</text>
</g>
<!-- LangSelectorDirective&#45;&gt;AppModule -->
<g id="edge4" class="edge">
<title>LangSelectorDirective&#45;&gt;AppModule</title>
<path fill="none" stroke="black" d="M373,-85.07C373,-103.36 373,-128.8 373,-128.8 373,-128.8 664.28,-128.8 664.28,-128.8"/>
<polygon fill="black" stroke="black" points="664.28,-132.3 674.28,-128.8 664.28,-125.3 664.28,-132.3"/>
</g>
<!-- LoginComponent -->
<g id="node5" class="node">
<title>LoginComponent</title>
<polygon fill="#ffffb3" stroke="black" points="283.28,-84.8 168.72,-84.8 168.72,-48.8 283.28,-48.8 283.28,-84.8"/>
<text text-anchor="middle" x="226" y="-62.6" font-family="Times,serif" font-size="14.00">LoginComponent</text>
</g>
<!-- LoginComponent&#45;&gt;AppModule -->
<g id="edge5" class="edge">
<title>LoginComponent&#45;&gt;AppModule</title>
<path fill="none" stroke="black" d="M226,-84.93C226,-105.37 226,-135.8 226,-135.8 226,-135.8 664.22,-135.8 664.22,-135.8"/>
<polygon fill="black" stroke="black" points="664.22,-139.3 674.22,-135.8 664.22,-132.3 664.22,-139.3"/>
</g>
<!-- SideBarComponent -->
<g id="node6" class="node">
<title>SideBarComponent</title>
<polygon fill="#ffffb3" stroke="black" points="150.43,-84.8 23.57,-84.8 23.57,-48.8 150.43,-48.8 150.43,-84.8"/>
<text text-anchor="middle" x="87" y="-62.6" font-family="Times,serif" font-size="14.00">SideBarComponent</text>
</g>
<!-- SideBarComponent&#45;&gt;AppModule -->
<g id="edge6" class="edge">
<title>SideBarComponent&#45;&gt;AppModule</title>
<path fill="none" stroke="black" d="M87,-84.81C87,-107.29 87,-142.8 87,-142.8 87,-142.8 664.24,-142.8 664.24,-142.8"/>
<polygon fill="black" stroke="black" points="664.24,-146.3 674.24,-142.8 664.24,-139.3 664.24,-146.3"/>
</g>
<!-- AppComponent  -->
<g id="node10" class="node">
<title>AppComponent </title>
<polygon fill="#80b1d3" stroke="black" points="770.44,-214.8 661.56,-214.8 661.56,-178.8 770.44,-178.8 770.44,-214.8"/>
<text text-anchor="middle" x="716" y="-192.6" font-family="Times,serif" font-size="14.00">AppComponent </text>
</g>
<!-- AppModule&#45;&gt;AppComponent  -->
<g id="edge9" class="edge">
<title>AppModule&#45;&gt;AppComponent </title>
<path fill="none" stroke="black" stroke-dasharray="1,5" d="M716,-149.91C716,-149.91 716,-168.79 716,-168.79"/>
<polygon fill="black" stroke="black" points="712.5,-168.79 716,-178.79 719.5,-168.79 712.5,-168.79"/>
</g>
<!-- AppRoutingModule -->
<g id="node8" class="node">
<title>AppRoutingModule</title>
<polygon fill="#8dd3c7" stroke="black" points="1109.27,-84.8 1106.27,-88.8 1085.27,-88.8 1082.27,-84.8 980.73,-84.8 980.73,-48.8 1109.27,-48.8 1109.27,-84.8"/>
<text text-anchor="middle" x="1045" y="-62.6" font-family="Times,serif" font-size="14.00">AppRoutingModule</text>
</g>
<!-- AppRoutingModule&#45;&gt;AppModule -->
<g id="edge7" class="edge">
<title>AppRoutingModule&#45;&gt;AppModule</title>
<path fill="none" stroke="black" d="M1045,-85.07C1045,-103.36 1045,-128.8 1045,-128.8 1045,-128.8 767.67,-128.8 767.67,-128.8"/>
<polygon fill="black" stroke="black" points="767.67,-125.3 757.67,-128.8 767.67,-132.3 767.67,-125.3"/>
</g>
<!-- WisdomModule -->
<g id="node9" class="node">
<title>WisdomModule</title>
<polygon fill="#8dd3c7" stroke="black" points="962.49,-84.8 959.49,-88.8 938.49,-88.8 935.49,-84.8 855.51,-84.8 855.51,-48.8 962.49,-48.8 962.49,-84.8"/>
<text text-anchor="middle" x="909" y="-62.6" font-family="Times,serif" font-size="14.00">WisdomModule</text>
</g>
<!-- WisdomModule&#45;&gt;AppModule -->
<g id="edge8" class="edge">
<title>WisdomModule&#45;&gt;AppModule</title>
<path fill="none" stroke="black" d="M909,-84.81C909,-100.85 909,-121.8 909,-121.8 909,-121.8 767.88,-121.8 767.88,-121.8"/>
<polygon fill="black" stroke="black" points="767.88,-118.3 757.88,-121.8 767.88,-125.3 767.88,-118.3"/>
</g>
<!-- AuthInterceptor -->
<g id="node11" class="node">
<title>AuthInterceptor</title>
<ellipse fill="#fdb462" stroke="black" cx="1394" cy="-66.8" rx="72.91" ry="18"/>
<text text-anchor="middle" x="1394" y="-62.6" font-family="Times,serif" font-size="14.00">AuthInterceptor</text>
</g>
<!-- AuthInterceptor&#45;&gt;AppModule -->
<g id="edge10" class="edge">
<title>AuthInterceptor&#45;&gt;AppModule</title>
<path fill="none" stroke="black" d="M1394,-84.81C1394,-107.29 1394,-142.8 1394,-142.8 1394,-142.8 767.9,-142.8 767.9,-142.8"/>
<polygon fill="black" stroke="black" points="767.9,-139.3 757.9,-142.8 767.9,-146.3 767.9,-139.3"/>
</g>
<!-- BaseUrlInterceptor -->
<g id="node12" class="node">
<title>BaseUrlInterceptor</title>
<ellipse fill="#fdb462" stroke="black" cx="1218" cy="-66.8" rx="85.07" ry="18"/>
<text text-anchor="middle" x="1218" y="-62.6" font-family="Times,serif" font-size="14.00">BaseUrlInterceptor</text>
</g>
<!-- BaseUrlInterceptor&#45;&gt;AppModule -->
<g id="edge11" class="edge">
<title>BaseUrlInterceptor&#45;&gt;AppModule</title>
<path fill="none" stroke="black" d="M1218,-84.93C1218,-105.37 1218,-135.8 1218,-135.8 1218,-135.8 767.94,-135.8 767.94,-135.8"/>
<polygon fill="black" stroke="black" points="767.94,-132.3 757.94,-135.8 767.94,-139.3 767.94,-132.3"/>
</g>
</g>
</svg>
