<?xml version="1.0" encoding="UTF-8" standalone="no"?>
<!DOCTYPE svg PUBLIC "-//W3C//DTD SVG 1.1//EN"
 "http://www.w3.org/Graphics/SVG/1.1/DTD/svg11.dtd">
<!-- Generated by graphviz version 2.47.3 (20210619.1520)
 -->
<!-- Title: dependencies Pages: 1 -->
<svg width="2112pt" height="253pt"
 viewBox="0.00 0.00 2112.00 252.80" xmlns="http://www.w3.org/2000/svg" xmlns:xlink="http://www.w3.org/1999/xlink">
<g id="graph0" class="graph" transform="scale(1 1) rotate(0) translate(4 248.8)">
<title>dependencies</title>
<polygon fill="white" stroke="transparent" points="-4,4 -4,-248.8 2108,-248.8 2108,4 -4,4"/>
<text text-anchor="middle" x="1052" y="-8.2" font-family="sans-serif" font-size="14.00">dependencies</text>
<g id="clust1" class="cluster">
<title>cluster_AppModule</title>
<polygon fill="none" stroke="black" stroke-dasharray="1,5" points="8,-32.8 8,-236.8 1209,-236.8 1209,-32.8 8,-32.8"/>
</g>
<g id="clust2" class="cluster">
<title>cluster_AppModule_declarations</title>
<polygon fill="none" stroke="black" points="374,-40.8 374,-92.8 924,-92.8 924,-40.8 374,-40.8"/>
</g>
<g id="clust7" class="cluster">
<title>cluster_AppModule_imports</title>
<polygon fill="none" stroke="black" points="932,-40.8 932,-92.8 1201,-92.8 1201,-40.8 932,-40.8"/>
</g>
<g id="clust9" class="cluster">
<title>cluster_AppModule_bootstrap</title>
<polygon fill="none" stroke="black" points="598,-176.8 598,-228.8 722,-228.8 722,-176.8 598,-176.8"/>
</g>
<g id="clust10" class="cluster">
<title>cluster_AppModule_providers</title>
<polygon fill="none" stroke="black" points="16,-40.8 16,-92.8 366,-92.8 366,-40.8 16,-40.8"/>
</g>
<g id="clust17" class="cluster">
<title>cluster_ExampleModule</title>
<polygon fill="none" stroke="black" stroke-dasharray="1,5" points="1930,-32.8 1930,-236.8 2096,-236.8 2096,-32.8 1930,-32.8"/>
</g>
<g id="clust18" class="cluster">
<title>cluster_ExampleModule_declarations</title>
<polygon fill="none" stroke="black" points="1938,-40.8 1938,-92.8 2086,-92.8 2086,-40.8 1938,-40.8"/>
</g>
<g id="clust21" class="cluster">
<title>cluster_ExampleModule_exports</title>
<polygon fill="none" stroke="black" points="1938,-176.8 1938,-228.8 2088,-228.8 2088,-176.8 1938,-176.8"/>
</g>
<g id="clust24" class="cluster">
<title>cluster_WisdomModule</title>
<polygon fill="none" stroke="black" stroke-dasharray="1,5" points="1217,-100.8 1217,-168.8 1922,-168.8 1922,-100.8 1217,-100.8"/>
</g>
<g id="clust25" class="cluster">
<title>cluster_WisdomModule_declarations</title>
<polygon fill="none" stroke="black" points="1577,-108.8 1577,-160.8 1914,-160.8 1914,-108.8 1577,-108.8"/>
</g>
<g id="clust29" class="cluster">
<title>cluster_WisdomModule_exports</title>
<polygon fill="none" stroke="black" points="1225,-108.8 1225,-160.8 1569,-160.8 1569,-108.8 1225,-108.8"/>
</g>
<!-- AppComponent -->
<g id="node1" class="node">
<title>AppComponent</title>
<polygon fill="#ffffb3" stroke="black" points="915.94,-84.8 810.06,-84.8 810.06,-48.8 915.94,-48.8 915.94,-84.8"/>
<text text-anchor="middle" x="863" y="-62.6" font-family="Times,serif" font-size="14.00">AppComponent</text>
</g>
<!-- AppModule -->
<g id="node5" class="node">
<title>AppModule</title>
<polygon fill="#8dd3c7" stroke="black" points="701.66,-152.8 698.66,-156.8 677.66,-156.8 674.66,-152.8 618.34,-152.8 618.34,-116.8 701.66,-116.8 701.66,-152.8"/>
<text text-anchor="middle" x="660" y="-130.6" font-family="Times,serif" font-size="14.00">AppModule</text>
</g>
<!-- AppComponent&#45;&gt;AppModule -->
<g id="edge1" class="edge">
<title>AppComponent&#45;&gt;AppModule</title>
<path fill="none" stroke="black" d="M863,-84.83C863,-101.86 863,-124.8 863,-124.8 863,-124.8 712.06,-124.8 712.06,-124.8"/>
<polygon fill="black" stroke="black" points="712.06,-121.3 702.06,-124.8 712.06,-128.3 712.06,-121.3"/>
</g>
<!-- FrameComponent -->
<g id="node2" class="node">
<title>FrameComponent</title>
<polygon fill="#ffffb3" stroke="black" points="792.6,-84.8 675.4,-84.8 675.4,-48.8 792.6,-48.8 792.6,-84.8"/>
<text text-anchor="middle" x="734" y="-62.6" font-family="Times,serif" font-size="14.00">FrameComponent</text>
</g>
<!-- FrameComponent&#45;&gt;AppModule -->
<g id="edge2" class="edge">
<title>FrameComponent&#45;&gt;AppModule</title>
<path fill="none" stroke="black" d="M688.64,-85.02C688.64,-85.02 688.64,-106.53 688.64,-106.53"/>
<polygon fill="black" stroke="black" points="685.14,-106.53 688.64,-116.53 692.14,-106.53 685.14,-106.53"/>
</g>
<!-- LangSelectorDirective -->
<g id="node3" class="node">
<title>LangSelectorDirective</title>
<polygon fill="#ffffb3" stroke="black" points="657.22,-84.8 514.78,-84.8 514.78,-48.8 657.22,-48.8 657.22,-84.8"/>
<text text-anchor="middle" x="586" y="-62.6" font-family="Times,serif" font-size="14.00">LangSelectorDirective</text>
</g>
<!-- LangSelectorDirective&#45;&gt;AppModule -->
<g id="edge3" class="edge">
<title>LangSelectorDirective&#45;&gt;AppModule</title>
<path fill="none" stroke="black" d="M637.77,-85.02C637.77,-85.02 637.77,-106.53 637.77,-106.53"/>
<polygon fill="black" stroke="black" points="634.27,-106.53 637.77,-116.53 641.27,-106.53 634.27,-106.53"/>
</g>
<!-- LoginComponent -->
<g id="node4" class="node">
<title>LoginComponent</title>
<polygon fill="#ffffb3" stroke="black" points="496.28,-84.8 381.72,-84.8 381.72,-48.8 496.28,-48.8 496.28,-84.8"/>
<text text-anchor="middle" x="439" y="-62.6" font-family="Times,serif" font-size="14.00">LoginComponent</text>
</g>
<!-- LoginComponent&#45;&gt;AppModule -->
<g id="edge4" class="edge">
<title>LoginComponent&#45;&gt;AppModule</title>
<path fill="none" stroke="black" d="M439,-84.82C439,-102.17 439,-125.8 439,-125.8 439,-125.8 608.17,-125.8 608.17,-125.8"/>
<polygon fill="black" stroke="black" points="608.17,-129.3 618.17,-125.8 608.17,-122.3 608.17,-129.3"/>
</g>
<!-- AppComponent  -->
<g id="node8" class="node">
<title>AppComponent </title>
<polygon fill="#80b1d3" stroke="black" points="714.44,-220.8 605.56,-220.8 605.56,-184.8 714.44,-184.8 714.44,-220.8"/>
<text text-anchor="middle" x="660" y="-198.6" font-family="Times,serif" font-size="14.00">AppComponent </text>
</g>
<!-- AppModule&#45;&gt;AppComponent  -->
<g id="edge7" class="edge">
<title>AppModule&#45;&gt;AppComponent </title>
<path fill="none" stroke="black" stroke-dasharray="1,5" d="M660,-153.02C660,-153.02 660,-174.53 660,-174.53"/>
<polygon fill="black" stroke="black" points="656.5,-174.53 660,-184.53 663.5,-174.53 656.5,-174.53"/>
</g>
<!-- AppRoutingModule -->
<g id="node6" class="node">
<title>AppRoutingModule</title>
<polygon fill="#8dd3c7" stroke="black" points="1068.27,-84.8 1065.27,-88.8 1044.27,-88.8 1041.27,-84.8 939.73,-84.8 939.73,-48.8 1068.27,-48.8 1068.27,-84.8"/>
<text text-anchor="middle" x="1004" y="-62.6" font-family="Times,serif" font-size="14.00">AppRoutingModule</text>
</g>
<!-- AppRoutingModule&#45;&gt;AppModule -->
<g id="edge5" class="edge">
<title>AppRoutingModule&#45;&gt;AppModule</title>
<path fill="none" stroke="black" d="M1004,-84.91C1004,-104.14 1004,-131.8 1004,-131.8 1004,-131.8 711.84,-131.8 711.84,-131.8"/>
<polygon fill="black" stroke="black" points="711.84,-128.3 701.84,-131.8 711.84,-135.3 711.84,-128.3"/>
</g>
<!-- WisdomModule -->
<g id="node7" class="node">
<title>WisdomModule</title>
<polygon fill="#8dd3c7" stroke="black" points="1193.49,-84.8 1190.49,-88.8 1169.49,-88.8 1166.49,-84.8 1086.51,-84.8 1086.51,-48.8 1193.49,-48.8 1193.49,-84.8"/>
<text text-anchor="middle" x="1140" y="-62.6" font-family="Times,serif" font-size="14.00">WisdomModule</text>
</g>
<!-- WisdomModule&#45;&gt;AppModule -->
<g id="edge6" class="edge">
<title>WisdomModule&#45;&gt;AppModule</title>
<path fill="none" stroke="black" d="M1122.17,-84.97C1122.17,-106.3 1122.17,-138.8 1122.17,-138.8 1122.17,-138.8 711.83,-138.8 711.83,-138.8"/>
<polygon fill="black" stroke="black" points="711.83,-135.3 701.83,-138.8 711.83,-142.3 711.83,-135.3"/>
</g>
<!-- ExampleModule -->
<g id="node12" class="node">
<title>ExampleModule</title>
<polygon fill="#8dd3c7" stroke="black" points="2066.81,-152.8 2063.81,-156.8 2042.81,-156.8 2039.81,-152.8 1957.19,-152.8 1957.19,-116.8 2066.81,-116.8 2066.81,-152.8"/>
<text text-anchor="middle" x="2012" y="-130.6" font-family="Times,serif" font-size="14.00">ExampleModule</text>
</g>
<!-- WisdomModule&#45;&gt;ExampleModule -->
<g id="edge11" class="edge">
<title>WisdomModule&#45;&gt;ExampleModule</title>
<path fill="none" stroke="black" d="M1193.71,-56.8C1370.95,-56.8 1925.98,-56.8 1925.98,-56.8 1925.98,-56.8 1925.98,-134.8 1925.98,-134.8 1925.98,-134.8 1947.03,-134.8 1947.03,-134.8"/>
<polygon fill="black" stroke="black" points="1947.03,-138.3 1957.03,-134.8 1947.03,-131.3 1947.03,-138.3"/>
</g>
<!-- BulmaIsToggleableDirective  -->
<g id="node16" class="node">
<title>BulmaIsToggleableDirective </title>
<polygon fill="#fb8072" stroke="black" points="1561,-152.8 1379,-152.8 1379,-116.8 1561,-116.8 1561,-152.8"/>
<text text-anchor="middle" x="1470" y="-130.6" font-family="Times,serif" font-size="14.00">BulmaIsToggleableDirective </text>
</g>
<!-- WisdomModule&#45;&gt;BulmaIsToggleableDirective  -->
<g id="edge15" class="edge">
<title>WisdomModule&#45;&gt;BulmaIsToggleableDirective </title>
<path fill="none" stroke="black" stroke-dasharray="5,2" d="M1193.75,-77.8C1287.26,-77.8 1470,-77.8 1470,-77.8 1470,-77.8 1470,-106.76 1470,-106.76"/>
<polygon fill="black" stroke="black" points="1466.5,-106.76 1470,-116.76 1473.5,-106.76 1466.5,-106.76"/>
</g>
<!-- IonIconComponent  -->
<g id="node17" class="node">
<title>IonIconComponent </title>
<polygon fill="#fb8072" stroke="black" points="1361.37,-152.8 1232.63,-152.8 1232.63,-116.8 1361.37,-116.8 1361.37,-152.8"/>
<text text-anchor="middle" x="1297" y="-130.6" font-family="Times,serif" font-size="14.00">IonIconComponent </text>
</g>
<!-- WisdomModule&#45;&gt;IonIconComponent  -->
<g id="edge16" class="edge">
<title>WisdomModule&#45;&gt;IonIconComponent </title>
<path fill="none" stroke="black" stroke-dasharray="5,2" d="M1157.83,-85.12C1157.83,-108.46 1157.83,-145.8 1157.83,-145.8 1157.83,-145.8 1222.71,-145.8 1222.71,-145.8"/>
<polygon fill="black" stroke="black" points="1222.71,-149.3 1232.71,-145.8 1222.71,-142.3 1222.71,-149.3"/>
</g>
<!-- AuthInterceptor -->
<g id="node9" class="node">
<title>AuthInterceptor</title>
<ellipse fill="#fdb462" stroke="black" cx="285" cy="-66.8" rx="72.91" ry="18"/>
<text text-anchor="middle" x="285" y="-62.6" font-family="Times,serif" font-size="14.00">AuthInterceptor</text>
</g>
<!-- AuthInterceptor&#45;&gt;AppModule -->
<g id="edge8" class="edge">
<title>AuthInterceptor&#45;&gt;AppModule</title>
<path fill="none" stroke="black" d="M285,-85.02C285,-105.17 285,-134.8 285,-134.8 285,-134.8 608.07,-134.8 608.07,-134.8"/>
<polygon fill="black" stroke="black" points="608.07,-138.3 618.07,-134.8 608.07,-131.3 608.07,-138.3"/>
</g>
<!-- BaseUrlInterceptor -->
<g id="node10" class="node">
<title>BaseUrlInterceptor</title>
<ellipse fill="#fdb462" stroke="black" cx="109" cy="-66.8" rx="85.07" ry="18"/>
<text text-anchor="middle" x="109" y="-62.6" font-family="Times,serif" font-size="14.00">BaseUrlInterceptor</text>
</g>
<!-- BaseUrlInterceptor&#45;&gt;AppModule -->
<g id="edge9" class="edge">
<title>BaseUrlInterceptor&#45;&gt;AppModule</title>
<path fill="none" stroke="black" d="M109,-85.05C109,-107.82 109,-143.8 109,-143.8 109,-143.8 608.13,-143.8 608.13,-143.8"/>
<polygon fill="black" stroke="black" points="608.13,-147.3 618.13,-143.8 608.13,-140.3 608.13,-147.3"/>
</g>
<!-- ExampleComponent -->
<g id="node11" class="node">
<title>ExampleComponent</title>
<polygon fill="#ffffb3" stroke="black" points="2077.6,-84.8 1946.4,-84.8 1946.4,-48.8 2077.6,-48.8 2077.6,-84.8"/>
<text text-anchor="middle" x="2012" y="-62.6" font-family="Times,serif" font-size="14.00">ExampleComponent</text>
</g>
<!-- ExampleComponent&#45;&gt;ExampleModule -->
<g id="edge10" class="edge">
<title>ExampleComponent&#45;&gt;ExampleModule</title>
<path fill="none" stroke="black" d="M2012,-85.02C2012,-85.02 2012,-106.53 2012,-106.53"/>
<polygon fill="black" stroke="black" points="2008.5,-106.53 2012,-116.53 2015.5,-106.53 2008.5,-106.53"/>
</g>
<!-- ExampleComponent  -->
<g id="node13" class="node">
<title>ExampleComponent </title>
<polygon fill="#fb8072" stroke="black" points="2080.1,-220.8 1945.9,-220.8 1945.9,-184.8 2080.1,-184.8 2080.1,-220.8"/>
<text text-anchor="middle" x="2013" y="-198.6" font-family="Times,serif" font-size="14.00">ExampleComponent </text>
</g>
<!-- ExampleModule&#45;&gt;ExampleComponent  -->
<g id="edge12" class="edge">
<title>ExampleModule&#45;&gt;ExampleComponent </title>
<path fill="none" stroke="black" stroke-dasharray="5,2" d="M2012,-153.02C2012,-153.02 2012,-174.53 2012,-174.53"/>
<polygon fill="black" stroke="black" points="2008.5,-174.53 2012,-184.53 2015.5,-174.53 2008.5,-174.53"/>
</g>
<!-- BulmaIsToggleableDirective -->
<g id="node14" class="node">
<title>BulmaIsToggleableDirective</title>
<polygon fill="#ffffb3" stroke="black" points="1906.5,-152.8 1727.5,-152.8 1727.5,-116.8 1906.5,-116.8 1906.5,-152.8"/>
<text text-anchor="middle" x="1817" y="-130.6" font-family="Times,serif" font-size="14.00">BulmaIsToggleableDirective</text>
</g>
<!-- BulmaIsToggleableDirective&#45;&gt;WisdomModule -->
<g id="edge13" class="edge">
<title>BulmaIsToggleableDirective&#45;&gt;WisdomModule</title>
<path fill="none" stroke="black" d="M1817,-116.52C1817,-95.48 1817,-63.8 1817,-63.8 1817,-63.8 1203.69,-63.8 1203.69,-63.8"/>
<polygon fill="black" stroke="black" points="1203.69,-60.3 1193.69,-63.8 1203.69,-67.3 1203.69,-60.3"/>
</g>
<!-- IonIconComponent -->
<g id="node15" class="node">
<title>IonIconComponent</title>
<polygon fill="#ffffb3" stroke="black" points="1709.37,-152.8 1584.63,-152.8 1584.63,-116.8 1709.37,-116.8 1709.37,-152.8"/>
<text text-anchor="middle" x="1647" y="-130.6" font-family="Times,serif" font-size="14.00">IonIconComponent</text>
</g>
<!-- IonIconComponent&#45;&gt;WisdomModule -->
<g id="edge14" class="edge">
<title>IonIconComponent&#45;&gt;WisdomModule</title>
<path fill="none" stroke="black" d="M1647,-116.63C1647,-97.71 1647,-70.8 1647,-70.8 1647,-70.8 1203.78,-70.8 1203.78,-70.8"/>
<polygon fill="black" stroke="black" points="1203.78,-67.3 1193.78,-70.8 1203.78,-74.3 1203.78,-67.3"/>
</g>
</g>
</svg>
