<?xml version="1.0" encoding="UTF-8" standalone="no"?>
<!DOCTYPE svg PUBLIC "-//W3C//DTD SVG 1.1//EN"
 "http://www.w3.org/Graphics/SVG/1.1/DTD/svg11.dtd">
<!-- Generated by graphviz version 2.47.3 (20210619.1520)
 -->
<!-- Title: dependencies Pages: 1 -->
<svg width="3713pt" height="321pt"
 viewBox="0.00 0.00 3713.00 320.80" xmlns="http://www.w3.org/2000/svg" xmlns:xlink="http://www.w3.org/1999/xlink">
<g id="graph0" class="graph" transform="scale(1 1) rotate(0) translate(4 316.8)">
<title>dependencies</title>
<polygon fill="white" stroke="transparent" points="-4,4 -4,-316.8 3709,-316.8 3709,4 -4,4"/>
<text text-anchor="middle" x="1852.5" y="-8.2" font-family="sans-serif" font-size="14.00">dependencies</text>
<g id="clust1" class="cluster">
<title>cluster_AppModule</title>
<polygon fill="none" stroke="black" stroke-dasharray="1,5" points="1086,-100.8 1086,-304.8 2561,-304.8 2561,-100.8 1086,-100.8"/>
</g>
<g id="clust2" class="cluster">
<title>cluster_AppModule_declarations</title>
<polygon fill="none" stroke="black" points="1729,-108.8 1729,-160.8 2553,-160.8 2553,-108.8 1729,-108.8"/>
</g>
<g id="clust9" class="cluster">
<title>cluster_AppModule_imports</title>
<polygon fill="none" stroke="black" points="1094,-108.8 1094,-160.8 1363,-160.8 1363,-108.8 1094,-108.8"/>
</g>
<g id="clust11" class="cluster">
<title>cluster_AppModule_bootstrap</title>
<polygon fill="none" stroke="black" points="1807,-244.8 1807,-296.8 1931,-296.8 1931,-244.8 1807,-244.8"/>
</g>
<g id="clust12" class="cluster">
<title>cluster_AppModule_providers</title>
<polygon fill="none" stroke="black" points="1371,-108.8 1371,-160.8 1721,-160.8 1721,-108.8 1371,-108.8"/>
</g>
<g id="clust19" class="cluster">
<title>cluster_ChartModule</title>
<polygon fill="none" stroke="black" stroke-dasharray="1,5" points="3369,-32.8 3369,-236.8 3697,-236.8 3697,-32.8 3369,-32.8"/>
</g>
<g id="clust20" class="cluster">
<title>cluster_ChartModule_declarations</title>
<polygon fill="none" stroke="black" points="3378,-40.8 3378,-92.8 3682,-92.8 3682,-40.8 3378,-40.8"/>
</g>
<g id="clust24" class="cluster">
<title>cluster_ChartModule_exports</title>
<polygon fill="none" stroke="black" points="3377,-176.8 3377,-228.8 3689,-228.8 3689,-176.8 3377,-176.8"/>
</g>
<g id="clust27" class="cluster">
<title>cluster_ExampleModule</title>
<polygon fill="none" stroke="black" stroke-dasharray="1,5" points="2569,-100.8 2569,-304.8 2735,-304.8 2735,-100.8 2569,-100.8"/>
</g>
<g id="clust28" class="cluster">
<title>cluster_ExampleModule_declarations</title>
<polygon fill="none" stroke="black" points="2577,-108.8 2577,-160.8 2725,-160.8 2725,-108.8 2577,-108.8"/>
</g>
<g id="clust31" class="cluster">
<title>cluster_ExampleModule_exports</title>
<polygon fill="none" stroke="black" points="2577,-244.8 2577,-296.8 2727,-296.8 2727,-244.8 2577,-244.8"/>
</g>
<g id="clust34" class="cluster">
<title>cluster_WaterUsageForecastsModule</title>
<polygon fill="none" stroke="black" stroke-dasharray="1,5" points="2743,-100.8 2743,-304.8 3361,-304.8 3361,-100.8 2743,-100.8"/>
</g>
<g id="clust35" class="cluster">
<title>cluster_WaterUsageForecastsModule_declarations</title>
<polygon fill="none" stroke="black" points="2751,-108.8 2751,-160.8 3353,-160.8 3353,-108.8 2751,-108.8"/>
</g>
<g id="clust40" class="cluster">
<title>cluster_WaterUsageForecastsModule_exports</title>
<polygon fill="none" stroke="black" points="2957,-244.8 2957,-296.8 3179,-296.8 3179,-244.8 2957,-244.8"/>
</g>
<g id="clust43" class="cluster">
<title>cluster_WisdomModule</title>
<polygon fill="none" stroke="black" stroke-dasharray="1,5" points="8,-168.8 8,-236.8 1078,-236.8 1078,-168.8 8,-168.8"/>
</g>
<g id="clust44" class="cluster">
<title>cluster_WisdomModule_declarations</title>
<polygon fill="none" stroke="black" points="608,-176.8 608,-228.8 1070,-228.8 1070,-176.8 608,-176.8"/>
</g>
<g id="clust49" class="cluster">
<title>cluster_WisdomModule_exports</title>
<polygon fill="none" stroke="black" points="16,-176.8 16,-228.8 600,-228.8 600,-176.8 16,-176.8"/>
</g>
<!-- AppComponent -->
<g id="node1" class="node">
<title>AppComponent</title>
<polygon fill="#ffffb3" stroke="black" points="2544.94,-152.8 2439.06,-152.8 2439.06,-116.8 2544.94,-116.8 2544.94,-152.8"/>
<text text-anchor="middle" x="2492" y="-130.6" font-family="Times,serif" font-size="14.00">AppComponent</text>
</g>
<!-- AppModule -->
<g id="node7" class="node">
<title>AppModule</title>
<polygon fill="#8dd3c7" stroke="black" points="1910.66,-220.8 1907.66,-224.8 1886.66,-224.8 1883.66,-220.8 1827.34,-220.8 1827.34,-184.8 1910.66,-184.8 1910.66,-220.8"/>
<text text-anchor="middle" x="1869" y="-198.6" font-family="Times,serif" font-size="14.00">AppModule</text>
</g>
<!-- AppComponent&#45;&gt;AppModule -->
<g id="edge1" class="edge">
<title>AppComponent&#45;&gt;AppModule</title>
<path fill="none" stroke="black" d="M2492,-153.12C2492,-176.46 2492,-213.8 2492,-213.8 2492,-213.8 1920.84,-213.8 1920.84,-213.8"/>
<polygon fill="black" stroke="black" points="1920.84,-210.3 1910.84,-213.8 1920.84,-217.3 1920.84,-210.3"/>
</g>
<!-- ErrorComponent -->
<g id="node2" class="node">
<title>ErrorComponent</title>
<polygon fill="#ffffb3" stroke="black" points="2421.37,-152.8 2310.63,-152.8 2310.63,-116.8 2421.37,-116.8 2421.37,-152.8"/>
<text text-anchor="middle" x="2366" y="-130.6" font-family="Times,serif" font-size="14.00">ErrorComponent</text>
</g>
<!-- ErrorComponent&#45;&gt;AppModule -->
<g id="edge2" class="edge">
<title>ErrorComponent&#45;&gt;AppModule</title>
<path fill="none" stroke="black" d="M2366,-152.97C2366,-174.3 2366,-206.8 2366,-206.8 2366,-206.8 1920.95,-206.8 1920.95,-206.8"/>
<polygon fill="black" stroke="black" points="1920.95,-203.3 1910.95,-206.8 1920.95,-210.3 1920.95,-203.3"/>
</g>
<!-- FrameComponent -->
<g id="node3" class="node">
<title>FrameComponent</title>
<polygon fill="#ffffb3" stroke="black" points="2292.6,-152.8 2175.4,-152.8 2175.4,-116.8 2292.6,-116.8 2292.6,-152.8"/>
<text text-anchor="middle" x="2234" y="-130.6" font-family="Times,serif" font-size="14.00">FrameComponent</text>
</g>
<!-- FrameComponent&#45;&gt;AppModule -->
<g id="edge3" class="edge">
<title>FrameComponent&#45;&gt;AppModule</title>
<path fill="none" stroke="black" d="M2234,-152.91C2234,-172.14 2234,-199.8 2234,-199.8 2234,-199.8 1920.87,-199.8 1920.87,-199.8"/>
<polygon fill="black" stroke="black" points="1920.87,-196.3 1910.87,-199.8 1920.87,-203.3 1920.87,-196.3"/>
</g>
<!-- LangSelectorDirective -->
<g id="node4" class="node">
<title>LangSelectorDirective</title>
<polygon fill="#ffffb3" stroke="black" points="2157.22,-152.8 2014.78,-152.8 2014.78,-116.8 2157.22,-116.8 2157.22,-152.8"/>
<text text-anchor="middle" x="2086" y="-130.6" font-family="Times,serif" font-size="14.00">LangSelectorDirective</text>
</g>
<!-- LangSelectorDirective&#45;&gt;AppModule -->
<g id="edge4" class="edge">
<title>LangSelectorDirective&#45;&gt;AppModule</title>
<path fill="none" stroke="black" d="M2086,-152.83C2086,-169.86 2086,-192.8 2086,-192.8 2086,-192.8 1920.84,-192.8 1920.84,-192.8"/>
<polygon fill="black" stroke="black" points="1920.84,-189.3 1910.84,-192.8 1920.84,-196.3 1920.84,-189.3"/>
</g>
<!-- LoginComponent -->
<g id="node5" class="node">
<title>LoginComponent</title>
<polygon fill="#ffffb3" stroke="black" points="1996.28,-152.8 1881.72,-152.8 1881.72,-116.8 1996.28,-116.8 1996.28,-152.8"/>
<text text-anchor="middle" x="1939" y="-130.6" font-family="Times,serif" font-size="14.00">LoginComponent</text>
</g>
<!-- LoginComponent&#45;&gt;AppModule -->
<g id="edge5" class="edge">
<title>LoginComponent&#45;&gt;AppModule</title>
<path fill="none" stroke="black" d="M1896.22,-153.02C1896.22,-153.02 1896.22,-174.53 1896.22,-174.53"/>
<polygon fill="black" stroke="black" points="1892.72,-174.53 1896.22,-184.53 1899.72,-174.53 1892.72,-174.53"/>
</g>
<!-- SideBarComponent -->
<g id="node6" class="node">
<title>SideBarComponent</title>
<polygon fill="#ffffb3" stroke="black" points="1863.43,-152.8 1736.57,-152.8 1736.57,-116.8 1863.43,-116.8 1863.43,-152.8"/>
<text text-anchor="middle" x="1800" y="-130.6" font-family="Times,serif" font-size="14.00">SideBarComponent</text>
</g>
<!-- SideBarComponent&#45;&gt;AppModule -->
<g id="edge6" class="edge">
<title>SideBarComponent&#45;&gt;AppModule</title>
<path fill="none" stroke="black" d="M1845.19,-153.02C1845.19,-153.02 1845.19,-174.53 1845.19,-174.53"/>
<polygon fill="black" stroke="black" points="1841.69,-174.53 1845.19,-184.53 1848.69,-174.53 1841.69,-174.53"/>
</g>
<!-- AppComponent  -->
<g id="node10" class="node">
<title>AppComponent </title>
<polygon fill="#80b1d3" stroke="black" points="1923.44,-288.8 1814.56,-288.8 1814.56,-252.8 1923.44,-252.8 1923.44,-288.8"/>
<text text-anchor="middle" x="1869" y="-266.6" font-family="Times,serif" font-size="14.00">AppComponent </text>
</g>
<!-- AppModule&#45;&gt;AppComponent  -->
<g id="edge9" class="edge">
<title>AppModule&#45;&gt;AppComponent </title>
<path fill="none" stroke="black" stroke-dasharray="1,5" d="M1869,-221.02C1869,-221.02 1869,-242.53 1869,-242.53"/>
<polygon fill="black" stroke="black" points="1865.5,-242.53 1869,-252.53 1872.5,-242.53 1865.5,-242.53"/>
</g>
<!-- AppRoutingModule -->
<g id="node8" class="node">
<title>AppRoutingModule</title>
<polygon fill="#8dd3c7" stroke="black" points="1355.27,-152.8 1352.27,-156.8 1331.27,-156.8 1328.27,-152.8 1226.73,-152.8 1226.73,-116.8 1355.27,-116.8 1355.27,-152.8"/>
<text text-anchor="middle" x="1291" y="-130.6" font-family="Times,serif" font-size="14.00">AppRoutingModule</text>
</g>
<!-- AppRoutingModule&#45;&gt;AppModule -->
<g id="edge7" class="edge">
<title>AppRoutingModule&#45;&gt;AppModule</title>
<path fill="none" stroke="black" d="M1291,-153.02C1291,-173.17 1291,-202.8 1291,-202.8 1291,-202.8 1816.97,-202.8 1816.97,-202.8"/>
<polygon fill="black" stroke="black" points="1816.97,-206.3 1826.97,-202.8 1816.97,-199.3 1816.97,-206.3"/>
</g>
<!-- WisdomModule -->
<g id="node9" class="node">
<title>WisdomModule</title>
<polygon fill="#8dd3c7" stroke="black" points="1208.49,-152.8 1205.49,-156.8 1184.49,-156.8 1181.49,-152.8 1101.51,-152.8 1101.51,-116.8 1208.49,-116.8 1208.49,-152.8"/>
<text text-anchor="middle" x="1155" y="-130.6" font-family="Times,serif" font-size="14.00">WisdomModule</text>
</g>
<!-- WisdomModule&#45;&gt;AppModule -->
<g id="edge8" class="edge">
<title>WisdomModule&#45;&gt;AppModule</title>
<path fill="none" stroke="black" d="M1187.1,-153.09C1187.1,-175.01 1187.1,-208.8 1187.1,-208.8 1187.1,-208.8 1817.11,-208.8 1817.11,-208.8"/>
<polygon fill="black" stroke="black" points="1817.11,-212.3 1827.11,-208.8 1817.11,-205.3 1817.11,-212.3"/>
</g>
<!-- ExampleModule -->
<g id="node19" class="node">
<title>ExampleModule</title>
<polygon fill="#8dd3c7" stroke="black" points="2705.81,-220.8 2702.81,-224.8 2681.81,-224.8 2678.81,-220.8 2596.19,-220.8 2596.19,-184.8 2705.81,-184.8 2705.81,-220.8"/>
<text text-anchor="middle" x="2651" y="-198.6" font-family="Times,serif" font-size="14.00">ExampleModule</text>
</g>
<!-- WisdomModule&#45;&gt;ExampleModule -->
<g id="edge17" class="edge">
<title>WisdomModule&#45;&gt;ExampleModule</title>
<path fill="none" stroke="black" d="M1122.9,-152.93C1122.9,-163.51 1122.9,-174.8 1122.9,-174.8 1122.9,-174.8 2632.78,-174.8 2632.78,-174.8 2632.78,-174.8 2632.78,-175.78 2632.78,-175.78"/>
<polygon fill="black" stroke="black" points="2629.28,-174.59 2632.78,-184.59 2636.28,-174.59 2629.28,-174.59"/>
</g>
<!-- WaterUsageForecastsModule -->
<g id="node24" class="node">
<title>WaterUsageForecastsModule</title>
<polygon fill="#8dd3c7" stroke="black" points="3158.59,-220.8 3155.59,-224.8 3134.59,-224.8 3131.59,-220.8 2977.41,-220.8 2977.41,-184.8 3158.59,-184.8 3158.59,-220.8"/>
<text text-anchor="middle" x="3068" y="-198.6" font-family="Times,serif" font-size="14.00">WaterUsageForecastsModule</text>
</g>
<!-- WisdomModule&#45;&gt;WaterUsageForecastsModule -->
<g id="edge23" class="edge">
<title>WisdomModule&#45;&gt;WaterUsageForecastsModule</title>
<path fill="none" stroke="black" d="M1144.3,-153C1144.3,-158.83 1144.3,-163.8 1144.3,-163.8 1144.3,-163.8 3039.02,-163.8 3039.02,-163.8 3039.02,-163.8 3039.02,-174.67 3039.02,-174.67"/>
<polygon fill="black" stroke="black" points="3035.52,-174.67 3039.02,-184.67 3042.52,-174.67 3035.52,-174.67"/>
</g>
<!-- BulmaIsToggleableDirective  -->
<g id="node29" class="node">
<title>BulmaIsToggleableDirective </title>
<polygon fill="#fb8072" stroke="black" points="592,-220.8 410,-220.8 410,-184.8 592,-184.8 592,-220.8"/>
<text text-anchor="middle" x="501" y="-198.6" font-family="Times,serif" font-size="14.00">BulmaIsToggleableDirective </text>
</g>
<!-- WisdomModule&#45;&gt;BulmaIsToggleableDirective  -->
<g id="edge28" class="edge">
<title>WisdomModule&#45;&gt;BulmaIsToggleableDirective </title>
<path fill="none" stroke="black" stroke-dasharray="5,2" d="M1101.48,-137.8C945.29,-137.8 501,-137.8 501,-137.8 501,-137.8 501,-174.69 501,-174.69"/>
<polygon fill="black" stroke="black" points="497.5,-174.69 501,-184.69 504.5,-174.69 497.5,-174.69"/>
</g>
<!-- ChartModule  -->
<g id="node30" class="node">
<title>ChartModule </title>
<polygon fill="#fb8072" stroke="black" points="392.15,-220.8 297.85,-220.8 297.85,-184.8 392.15,-184.8 392.15,-220.8"/>
<text text-anchor="middle" x="345" y="-198.6" font-family="Times,serif" font-size="14.00">ChartModule </text>
</g>
<!-- WisdomModule&#45;&gt;ChartModule  -->
<g id="edge29" class="edge">
<title>WisdomModule&#45;&gt;ChartModule </title>
<path fill="none" stroke="black" stroke-dasharray="5,2" d="M1101.23,-132.8C920.32,-132.8 345,-132.8 345,-132.8 345,-132.8 345,-174.77 345,-174.77"/>
<polygon fill="black" stroke="black" points="341.5,-174.77 345,-184.77 348.5,-174.77 341.5,-174.77"/>
</g>
<!-- IonIconComponent  -->
<g id="node31" class="node">
<title>IonIconComponent </title>
<polygon fill="#fb8072" stroke="black" points="280.37,-220.8 151.63,-220.8 151.63,-184.8 280.37,-184.8 280.37,-220.8"/>
<text text-anchor="middle" x="216" y="-198.6" font-family="Times,serif" font-size="14.00">IonIconComponent </text>
</g>
<!-- WisdomModule&#45;&gt;IonIconComponent  -->
<g id="edge30" class="edge">
<title>WisdomModule&#45;&gt;IonIconComponent </title>
<path fill="none" stroke="black" stroke-dasharray="5,2" d="M1101.48,-127.8C902.4,-127.8 216,-127.8 216,-127.8 216,-127.8 216,-174.64 216,-174.64"/>
<polygon fill="black" stroke="black" points="212.5,-174.64 216,-184.64 219.5,-174.64 212.5,-174.64"/>
</g>
<!-- MapComponent  -->
<g id="node32" class="node">
<title>MapComponent </title>
<polygon fill="#fb8072" stroke="black" points="134.49,-220.8 23.51,-220.8 23.51,-184.8 134.49,-184.8 134.49,-220.8"/>
<text text-anchor="middle" x="79" y="-198.6" font-family="Times,serif" font-size="14.00">MapComponent </text>
</g>
<!-- WisdomModule&#45;&gt;MapComponent  -->
<g id="edge31" class="edge">
<title>WisdomModule&#45;&gt;MapComponent </title>
<path fill="none" stroke="black" stroke-dasharray="5,2" d="M1101.27,-122.8C883.62,-122.8 79,-122.8 79,-122.8 79,-122.8 79,-174.65 79,-174.65"/>
<polygon fill="black" stroke="black" points="75.5,-174.65 79,-184.65 82.5,-174.65 75.5,-174.65"/>
</g>
<!-- AuthInterceptor -->
<g id="node11" class="node">
<title>AuthInterceptor</title>
<ellipse fill="#fdb462" stroke="black" cx="1640" cy="-134.8" rx="72.91" ry="18"/>
<text text-anchor="middle" x="1640" y="-130.6" font-family="Times,serif" font-size="14.00">AuthInterceptor</text>
</g>
<!-- AuthInterceptor&#45;&gt;AppModule -->
<g id="edge10" class="edge">
<title>AuthInterceptor&#45;&gt;AppModule</title>
<path fill="none" stroke="black" d="M1640,-152.83C1640,-169.2 1640,-190.8 1640,-190.8 1640,-190.8 1817.26,-190.8 1817.26,-190.8"/>
<polygon fill="black" stroke="black" points="1817.26,-194.3 1827.26,-190.8 1817.26,-187.3 1817.26,-194.3"/>
</g>
<!-- BaseUrlInterceptor -->
<g id="node12" class="node">
<title>BaseUrlInterceptor</title>
<ellipse fill="#fdb462" stroke="black" cx="1464" cy="-134.8" rx="85.07" ry="18"/>
<text text-anchor="middle" x="1464" y="-130.6" font-family="Times,serif" font-size="14.00">BaseUrlInterceptor</text>
</g>
<!-- BaseUrlInterceptor&#45;&gt;AppModule -->
<g id="edge11" class="edge">
<title>BaseUrlInterceptor&#45;&gt;AppModule</title>
<path fill="none" stroke="black" d="M1464,-153.07C1464,-171.36 1464,-196.8 1464,-196.8 1464,-196.8 1817.18,-196.8 1817.18,-196.8"/>
<polygon fill="black" stroke="black" points="1817.18,-200.3 1827.18,-196.8 1817.18,-193.3 1817.18,-200.3"/>
</g>
<!-- BarChartComponent -->
<g id="node13" class="node">
<title>BarChartComponent</title>
<polygon fill="#ffffb3" stroke="black" points="3674.15,-84.8 3541.85,-84.8 3541.85,-48.8 3674.15,-48.8 3674.15,-84.8"/>
<text text-anchor="middle" x="3608" y="-62.6" font-family="Times,serif" font-size="14.00">BarChartComponent</text>
</g>
<!-- ChartModule -->
<g id="node15" class="node">
<title>ChartModule</title>
<polygon fill="#8dd3c7" stroke="black" points="3501.15,-152.8 3498.15,-156.8 3477.15,-156.8 3474.15,-152.8 3410.85,-152.8 3410.85,-116.8 3501.15,-116.8 3501.15,-152.8"/>
<text text-anchor="middle" x="3456" y="-130.6" font-family="Times,serif" font-size="14.00">ChartModule</text>
</g>
<!-- BarChartComponent&#45;&gt;ChartModule -->
<g id="edge12" class="edge">
<title>BarChartComponent&#45;&gt;ChartModule</title>
<path fill="none" stroke="black" d="M3631.19,-85.07C3631.19,-103.36 3631.19,-128.8 3631.19,-128.8 3631.19,-128.8 3511.57,-128.8 3511.57,-128.8"/>
<polygon fill="black" stroke="black" points="3511.57,-125.3 3501.57,-128.8 3511.57,-132.3 3511.57,-125.3"/>
</g>
<!-- LineChartComponent -->
<g id="node14" class="node">
<title>LineChartComponent</title>
<polygon fill="#ffffb3" stroke="black" points="3524.09,-84.8 3385.91,-84.8 3385.91,-48.8 3524.09,-48.8 3524.09,-84.8"/>
<text text-anchor="middle" x="3455" y="-62.6" font-family="Times,serif" font-size="14.00">LineChartComponent</text>
</g>
<!-- LineChartComponent&#45;&gt;ChartModule -->
<g id="edge13" class="edge">
<title>LineChartComponent&#45;&gt;ChartModule</title>
<path fill="none" stroke="black" d="M3456,-85.02C3456,-85.02 3456,-106.53 3456,-106.53"/>
<polygon fill="black" stroke="black" points="3452.5,-106.53 3456,-116.53 3459.5,-106.53 3452.5,-106.53"/>
</g>
<!-- BarChartComponent  -->
<g id="node16" class="node">
<title>BarChartComponent </title>
<polygon fill="#fb8072" stroke="black" points="3681.15,-220.8 3544.85,-220.8 3544.85,-184.8 3681.15,-184.8 3681.15,-220.8"/>
<text text-anchor="middle" x="3613" y="-198.6" font-family="Times,serif" font-size="14.00">BarChartComponent </text>
</g>
<!-- ChartModule&#45;&gt;BarChartComponent  -->
<g id="edge14" class="edge">
<title>ChartModule&#45;&gt;BarChartComponent </title>
<path fill="none" stroke="black" stroke-dasharray="5,2" d="M3501.45,-140.8C3539.65,-140.8 3588.06,-140.8 3588.06,-140.8 3588.06,-140.8 3588.06,-174.53 3588.06,-174.53"/>
<polygon fill="black" stroke="black" points="3584.56,-174.53 3588.06,-184.53 3591.56,-174.53 3584.56,-174.53"/>
</g>
<!-- LineChartComponent  -->
<g id="node17" class="node">
<title>LineChartComponent </title>
<polygon fill="#fb8072" stroke="black" points="3526.59,-220.8 3385.41,-220.8 3385.41,-184.8 3526.59,-184.8 3526.59,-220.8"/>
<text text-anchor="middle" x="3456" y="-198.6" font-family="Times,serif" font-size="14.00">LineChartComponent </text>
</g>
<!-- ChartModule&#45;&gt;LineChartComponent  -->
<g id="edge15" class="edge">
<title>ChartModule&#45;&gt;LineChartComponent </title>
<path fill="none" stroke="black" stroke-dasharray="5,2" d="M3456,-153.02C3456,-153.02 3456,-174.53 3456,-174.53"/>
<polygon fill="black" stroke="black" points="3452.5,-174.53 3456,-184.53 3459.5,-174.53 3452.5,-174.53"/>
</g>
<!-- ChartModule&#45;&gt;WaterUsageForecastsModule -->
<g id="edge22" class="edge">
<title>ChartModule&#45;&gt;WaterUsageForecastsModule</title>
<path fill="none" stroke="black" d="M3410.76,-134.8C3387.91,-134.8 3364.98,-134.8 3364.98,-134.8 3364.98,-134.8 3364.98,-208.8 3364.98,-208.8 3364.98,-208.8 3168.72,-208.8 3168.72,-208.8"/>
<polygon fill="black" stroke="black" points="3168.72,-205.3 3158.72,-208.8 3168.72,-212.3 3168.72,-205.3"/>
</g>
<!-- ExampleComponent -->
<g id="node18" class="node">
<title>ExampleComponent</title>
<polygon fill="#ffffb3" stroke="black" points="2716.6,-152.8 2585.4,-152.8 2585.4,-116.8 2716.6,-116.8 2716.6,-152.8"/>
<text text-anchor="middle" x="2651" y="-130.6" font-family="Times,serif" font-size="14.00">ExampleComponent</text>
</g>
<!-- ExampleComponent&#45;&gt;ExampleModule -->
<g id="edge16" class="edge">
<title>ExampleComponent&#45;&gt;ExampleModule</title>
<path fill="none" stroke="black" d="M2669.22,-153.02C2669.22,-153.02 2669.22,-174.53 2669.22,-174.53"/>
<polygon fill="black" stroke="black" points="2665.72,-174.53 2669.22,-184.53 2672.72,-174.53 2665.72,-174.53"/>
</g>
<!-- ExampleComponent  -->
<g id="node20" class="node">
<title>ExampleComponent </title>
<polygon fill="#fb8072" stroke="black" points="2719.1,-288.8 2584.9,-288.8 2584.9,-252.8 2719.1,-252.8 2719.1,-288.8"/>
<text text-anchor="middle" x="2652" y="-266.6" font-family="Times,serif" font-size="14.00">ExampleComponent </text>
</g>
<!-- ExampleModule&#45;&gt;ExampleComponent  -->
<g id="edge18" class="edge">
<title>ExampleModule&#45;&gt;ExampleComponent </title>
<path fill="none" stroke="black" stroke-dasharray="5,2" d="M2651,-221.02C2651,-221.02 2651,-242.53 2651,-242.53"/>
<polygon fill="black" stroke="black" points="2647.5,-242.53 2651,-252.53 2654.5,-242.53 2647.5,-242.53"/>
</g>
<!-- MapSelectViewComponent -->
<g id="node21" class="node">
<title>MapSelectViewComponent</title>
<polygon fill="#ffffb3" stroke="black" points="3344.52,-152.8 3173.48,-152.8 3173.48,-116.8 3344.52,-116.8 3344.52,-152.8"/>
<text text-anchor="middle" x="3259" y="-130.6" font-family="Times,serif" font-size="14.00">MapSelectViewComponent</text>
</g>
<!-- MapSelectViewComponent&#45;&gt;WaterUsageForecastsModule -->
<g id="edge19" class="edge">
<title>MapSelectViewComponent&#45;&gt;WaterUsageForecastsModule</title>
<path fill="none" stroke="black" d="M3259,-153.07C3259,-171.36 3259,-196.8 3259,-196.8 3259,-196.8 3168.75,-196.8 3168.75,-196.8"/>
<polygon fill="black" stroke="black" points="3168.75,-193.3 3158.75,-196.8 3168.75,-200.3 3168.75,-193.3"/>
</g>
<!-- ResultDataViewComponent -->
<g id="node22" class="node">
<title>ResultDataViewComponent</title>
<polygon fill="#ffffb3" stroke="black" points="3154.85,-152.8 2981.15,-152.8 2981.15,-116.8 3154.85,-116.8 3154.85,-152.8"/>
<text text-anchor="middle" x="3068" y="-130.6" font-family="Times,serif" font-size="14.00">ResultDataViewComponent</text>
</g>
<!-- ResultDataViewComponent&#45;&gt;WaterUsageForecastsModule -->
<g id="edge20" class="edge">
<title>ResultDataViewComponent&#45;&gt;WaterUsageForecastsModule</title>
<path fill="none" stroke="black" d="M3096.98,-153.02C3096.98,-153.02 3096.98,-174.53 3096.98,-174.53"/>
<polygon fill="black" stroke="black" points="3093.48,-174.53 3096.98,-184.53 3100.48,-174.53 3093.48,-174.53"/>
</g>
<!-- WaterUsageForecastsComponent -->
<g id="node23" class="node">
<title>WaterUsageForecastsComponent</title>
<polygon fill="#ffffb3" stroke="black" points="2962.87,-152.8 2759.13,-152.8 2759.13,-116.8 2962.87,-116.8 2962.87,-152.8"/>
<text text-anchor="middle" x="2861" y="-130.6" font-family="Times,serif" font-size="14.00">WaterUsageForecastsComponent</text>
</g>
<!-- WaterUsageForecastsComponent&#45;&gt;WaterUsageForecastsModule -->
<g id="edge21" class="edge">
<title>WaterUsageForecastsComponent&#45;&gt;WaterUsageForecastsModule</title>
<path fill="none" stroke="black" d="M2861,-153.02C2861,-173.17 2861,-202.8 2861,-202.8 2861,-202.8 2967.21,-202.8 2967.21,-202.8"/>
<polygon fill="black" stroke="black" points="2967.21,-206.3 2977.21,-202.8 2967.21,-199.3 2967.21,-206.3"/>
</g>
<!-- WaterUsageForecastsComponent  -->
<g id="node25" class="node">
<title>WaterUsageForecastsComponent </title>
<polygon fill="#fb8072" stroke="black" points="3171.37,-288.8 2964.63,-288.8 2964.63,-252.8 3171.37,-252.8 3171.37,-288.8"/>
<text text-anchor="middle" x="3068" y="-266.6" font-family="Times,serif" font-size="14.00">WaterUsageForecastsComponent </text>
</g>
<!-- WaterUsageForecastsModule&#45;&gt;WaterUsageForecastsComponent  -->
<g id="edge24" class="edge">
<title>WaterUsageForecastsModule&#45;&gt;WaterUsageForecastsComponent </title>
<path fill="none" stroke="black" stroke-dasharray="5,2" d="M3068,-221.02C3068,-221.02 3068,-242.53 3068,-242.53"/>
<polygon fill="black" stroke="black" points="3064.5,-242.53 3068,-252.53 3071.5,-242.53 3064.5,-242.53"/>
</g>
<!-- BulmaIsToggleableDirective -->
<g id="node26" class="node">
<title>BulmaIsToggleableDirective</title>
<polygon fill="#ffffb3" stroke="black" points="1062.5,-220.8 883.5,-220.8 883.5,-184.8 1062.5,-184.8 1062.5,-220.8"/>
<text text-anchor="middle" x="973" y="-198.6" font-family="Times,serif" font-size="14.00">BulmaIsToggleableDirective</text>
</g>
<!-- BulmaIsToggleableDirective&#45;&gt;WisdomModule -->
<g id="edge25" class="edge">
<title>BulmaIsToggleableDirective&#45;&gt;WisdomModule</title>
<path fill="none" stroke="black" d="M1062.3,-214.8C1112.7,-214.8 1165.7,-214.8 1165.7,-214.8 1165.7,-214.8 1165.7,-162.95 1165.7,-162.95"/>
<polygon fill="black" stroke="black" points="1169.2,-162.95 1165.7,-152.95 1162.2,-162.95 1169.2,-162.95"/>
</g>
<!-- IonIconComponent -->
<g id="node27" class="node">
<title>IonIconComponent</title>
<polygon fill="#ffffb3" stroke="black" points="865.37,-220.8 740.63,-220.8 740.63,-184.8 865.37,-184.8 865.37,-220.8"/>
<text text-anchor="middle" x="803" y="-198.6" font-family="Times,serif" font-size="14.00">IonIconComponent</text>
</g>
<!-- IonIconComponent&#45;&gt;WisdomModule -->
<g id="edge26" class="edge">
<title>IonIconComponent&#45;&gt;WisdomModule</title>
<path fill="none" stroke="black" d="M803,-184.79C803,-168.75 803,-147.8 803,-147.8 803,-147.8 1091.16,-147.8 1091.16,-147.8"/>
<polygon fill="black" stroke="black" points="1091.16,-151.3 1101.16,-147.8 1091.16,-144.3 1091.16,-151.3"/>
</g>
<!-- MapComponent -->
<g id="node28" class="node">
<title>MapComponent</title>
<polygon fill="#ffffb3" stroke="black" points="722.49,-220.8 615.51,-220.8 615.51,-184.8 722.49,-184.8 722.49,-220.8"/>
<text text-anchor="middle" x="669" y="-198.6" font-family="Times,serif" font-size="14.00">MapComponent</text>
</g>
<!-- MapComponent&#45;&gt;WisdomModule -->
<g id="edge27" class="edge">
<title>MapComponent&#45;&gt;WisdomModule</title>
<path fill="none" stroke="black" d="M669,-184.8C669,-167.12 669,-142.8 669,-142.8 669,-142.8 1091.13,-142.8 1091.13,-142.8"/>
<polygon fill="black" stroke="black" points="1091.13,-146.3 1101.13,-142.8 1091.13,-139.3 1091.13,-146.3"/>
</g>
</g>
</svg>
