<?xml version="1.0" encoding="UTF-8" standalone="no"?>
<!DOCTYPE svg PUBLIC "-//W3C//DTD SVG 1.1//EN"
 "http://www.w3.org/Graphics/SVG/1.1/DTD/svg11.dtd">
<!-- Generated by graphviz version 2.47.3 (20210619.1520)
 -->
<!-- Title: dependencies Pages: 1 -->
<svg width="4653pt" height="253pt"
 viewBox="0.00 0.00 4653.00 252.80" xmlns="http://www.w3.org/2000/svg" xmlns:xlink="http://www.w3.org/1999/xlink">
<g id="graph0" class="graph" transform="scale(1 1) rotate(0) translate(4 248.8)">
<title>dependencies</title>
<polygon fill="white" stroke="transparent" points="-4,4 -4,-248.8 4649,-248.8 4649,4 -4,4"/>
<text text-anchor="middle" x="2322.5" y="-8.2" font-family="sans-serif" font-size="14.00">dependencies</text>
<g id="clust1" class="cluster">
<title>cluster_AppModule</title>
<polygon fill="none" stroke="black" stroke-dasharray="1,5" points="8,-32.8 8,-236.8 2353,-236.8 2353,-32.8 8,-32.8"/>
</g>
<g id="clust2" class="cluster">
<title>cluster_AppModule_declarations</title>
<polygon fill="none" stroke="black" points="1105,-40.8 1105,-92.8 2068,-92.8 2068,-40.8 1105,-40.8"/>
</g>
<g id="clust10" class="cluster">
<title>cluster_AppModule_imports</title>
<polygon fill="none" stroke="black" points="2076,-40.8 2076,-92.8 2345,-92.8 2345,-40.8 2076,-40.8"/>
</g>
<g id="clust12" class="cluster">
<title>cluster_AppModule_bootstrap</title>
<polygon fill="none" stroke="black" points="1232,-176.8 1232,-228.8 1356,-228.8 1356,-176.8 1232,-176.8"/>
</g>
<g id="clust13" class="cluster">
<title>cluster_AppModule_providers</title>
<polygon fill="none" stroke="black" points="16,-40.8 16,-92.8 1097,-92.8 1097,-40.8 16,-40.8"/>
</g>
<g id="clust20" class="cluster">
<title>cluster_ExampleModule</title>
<polygon fill="none" stroke="black" stroke-dasharray="1,5" points="3678,-32.8 3678,-236.8 3844,-236.8 3844,-32.8 3678,-32.8"/>
</g>
<g id="clust21" class="cluster">
<title>cluster_ExampleModule_declarations</title>
<polygon fill="none" stroke="black" points="3686,-40.8 3686,-92.8 3834,-92.8 3834,-40.8 3686,-40.8"/>
</g>
<g id="clust24" class="cluster">
<title>cluster_ExampleModule_exports</title>
<polygon fill="none" stroke="black" points="3686,-176.8 3686,-228.8 3836,-228.8 3836,-176.8 3686,-176.8"/>
</g>
<g id="clust27" class="cluster">
<title>cluster_WaterUsageForecastsModule</title>
<polygon fill="none" stroke="black" stroke-dasharray="1,5" points="3852,-32.8 3852,-160.8 4637,-160.8 4637,-32.8 3852,-32.8"/>
</g>
<g id="clust28" class="cluster">
<title>cluster_WaterUsageForecastsModule_declarations</title>
<polygon fill="none" stroke="black" points="3860,-40.8 3860,-92.8 4629,-92.8 4629,-40.8 3860,-40.8"/>
</g>
<g id="clust37" class="cluster">
<title>cluster_WisdomModule</title>
<polygon fill="none" stroke="black" stroke-dasharray="1,5" points="2361,-100.8 2361,-168.8 3670,-168.8 3670,-100.8 2361,-100.8"/>
</g>
<g id="clust38" class="cluster">
<title>cluster_WisdomModule_declarations</title>
<polygon fill="none" stroke="black" points="3027,-108.8 3027,-160.8 3662,-160.8 3662,-108.8 3027,-108.8"/>
</g>
<g id="clust44" class="cluster">
<title>cluster_WisdomModule_exports</title>
<polygon fill="none" stroke="black" points="2369,-108.8 2369,-160.8 3019,-160.8 3019,-108.8 2369,-108.8"/>
</g>
<!-- AppComponent -->
<g id="node1" class="node">
<title>AppComponent</title>
<polygon fill="#ffffb3" stroke="black" points="1346.94,-84.8 1241.06,-84.8 1241.06,-48.8 1346.94,-48.8 1346.94,-84.8"/>
<text text-anchor="middle" x="1294" y="-62.6" font-family="Times,serif" font-size="14.00">AppComponent</text>
</g>
<!-- AppModule -->
<g id="node8" class="node">
<title>AppModule</title>
<polygon fill="#8dd3c7" stroke="black" points="1335.66,-152.8 1332.66,-156.8 1311.66,-156.8 1308.66,-152.8 1252.34,-152.8 1252.34,-116.8 1335.66,-116.8 1335.66,-152.8"/>
<text text-anchor="middle" x="1294" y="-130.6" font-family="Times,serif" font-size="14.00">AppModule</text>
</g>
<!-- AppComponent&#45;&gt;AppModule -->
<g id="edge1" class="edge">
<title>AppComponent&#45;&gt;AppModule</title>
<path fill="none" stroke="black" d="M1294,-85.02C1294,-85.02 1294,-106.53 1294,-106.53"/>
<polygon fill="black" stroke="black" points="1290.5,-106.53 1294,-116.53 1297.5,-106.53 1290.5,-106.53"/>
</g>
<!-- ErrorComponent -->
<g id="node2" class="node">
<title>ErrorComponent</title>
<polygon fill="#ffffb3" stroke="black" points="1223.37,-84.8 1112.63,-84.8 1112.63,-48.8 1223.37,-48.8 1223.37,-84.8"/>
<text text-anchor="middle" x="1168" y="-62.6" font-family="Times,serif" font-size="14.00">ErrorComponent</text>
</g>
<!-- ErrorComponent&#45;&gt;AppModule -->
<g id="edge2" class="edge">
<title>ErrorComponent&#45;&gt;AppModule</title>
<path fill="none" stroke="black" d="M1168,-84.81C1168,-100.85 1168,-121.8 1168,-121.8 1168,-121.8 1242.04,-121.8 1242.04,-121.8"/>
<polygon fill="black" stroke="black" points="1242.04,-125.3 1252.04,-121.8 1242.04,-118.3 1242.04,-125.3"/>
</g>
<!-- FrameComponent -->
<g id="node3" class="node">
<title>FrameComponent</title>
<polygon fill="#ffffb3" stroke="black" points="2059.6,-84.8 1942.4,-84.8 1942.4,-48.8 2059.6,-48.8 2059.6,-84.8"/>
<text text-anchor="middle" x="2001" y="-62.6" font-family="Times,serif" font-size="14.00">FrameComponent</text>
</g>
<!-- FrameComponent&#45;&gt;AppModule -->
<g id="edge3" class="edge">
<title>FrameComponent&#45;&gt;AppModule</title>
<path fill="none" stroke="black" d="M2001,-85.09C2001,-107.01 2001,-140.8 2001,-140.8 2001,-140.8 1345.85,-140.8 1345.85,-140.8"/>
<polygon fill="black" stroke="black" points="1345.85,-137.3 1335.85,-140.8 1345.85,-144.3 1345.85,-137.3"/>
</g>
<!-- LangSelectorDirective -->
<g id="node4" class="node">
<title>LangSelectorDirective</title>
<polygon fill="#ffffb3" stroke="black" points="1924.22,-84.8 1781.78,-84.8 1781.78,-48.8 1924.22,-48.8 1924.22,-84.8"/>
<text text-anchor="middle" x="1853" y="-62.6" font-family="Times,serif" font-size="14.00">LangSelectorDirective</text>
</g>
<!-- LangSelectorDirective&#45;&gt;AppModule -->
<g id="edge4" class="edge">
<title>LangSelectorDirective&#45;&gt;AppModule</title>
<path fill="none" stroke="black" d="M1853,-84.83C1853,-105.57 1853,-136.8 1853,-136.8 1853,-136.8 1346.02,-136.8 1346.02,-136.8"/>
<polygon fill="black" stroke="black" points="1346.02,-133.3 1336.02,-136.8 1346.02,-140.3 1346.02,-133.3"/>
</g>
<!-- LoaderComponent -->
<g id="node5" class="node">
<title>LoaderComponent</title>
<polygon fill="#ffffb3" stroke="black" points="1763.47,-84.8 1642.53,-84.8 1642.53,-48.8 1763.47,-48.8 1763.47,-84.8"/>
<text text-anchor="middle" x="1703" y="-62.6" font-family="Times,serif" font-size="14.00">LoaderComponent</text>
</g>
<!-- LoaderComponent&#45;&gt;AppModule -->
<g id="edge5" class="edge">
<title>LoaderComponent&#45;&gt;AppModule</title>
<path fill="none" stroke="black" d="M1703,-84.83C1703,-104.38 1703,-132.8 1703,-132.8 1703,-132.8 1345.85,-132.8 1345.85,-132.8"/>
<polygon fill="black" stroke="black" points="1345.85,-129.3 1335.85,-132.8 1345.85,-136.3 1345.85,-129.3"/>
</g>
<!-- LoginComponent -->
<g id="node6" class="node">
<title>LoginComponent</title>
<polygon fill="#ffffb3" stroke="black" points="1624.28,-84.8 1509.72,-84.8 1509.72,-48.8 1624.28,-48.8 1624.28,-84.8"/>
<text text-anchor="middle" x="1567" y="-62.6" font-family="Times,serif" font-size="14.00">LoginComponent</text>
</g>
<!-- LoginComponent&#45;&gt;AppModule -->
<g id="edge6" class="edge">
<title>LoginComponent&#45;&gt;AppModule</title>
<path fill="none" stroke="black" d="M1567,-85.07C1567,-103.36 1567,-128.8 1567,-128.8 1567,-128.8 1345.76,-128.8 1345.76,-128.8"/>
<polygon fill="black" stroke="black" points="1345.76,-125.3 1335.76,-128.8 1345.76,-132.3 1345.76,-125.3"/>
</g>
<!-- SideBarComponent -->
<g id="node7" class="node">
<title>SideBarComponent</title>
<polygon fill="#ffffb3" stroke="black" points="1491.43,-84.8 1364.57,-84.8 1364.57,-48.8 1491.43,-48.8 1491.43,-84.8"/>
<text text-anchor="middle" x="1428" y="-62.6" font-family="Times,serif" font-size="14.00">SideBarComponent</text>
</g>
<!-- SideBarComponent&#45;&gt;AppModule -->
<g id="edge7" class="edge">
<title>SideBarComponent&#45;&gt;AppModule</title>
<path fill="none" stroke="black" d="M1428,-84.83C1428,-101.86 1428,-124.8 1428,-124.8 1428,-124.8 1345.66,-124.8 1345.66,-124.8"/>
<polygon fill="black" stroke="black" points="1345.66,-121.3 1335.66,-124.8 1345.66,-128.3 1345.66,-121.3"/>
</g>
<!-- AppComponent  -->
<g id="node11" class="node">
<title>AppComponent </title>
<polygon fill="#80b1d3" stroke="black" points="1348.44,-220.8 1239.56,-220.8 1239.56,-184.8 1348.44,-184.8 1348.44,-220.8"/>
<text text-anchor="middle" x="1294" y="-198.6" font-family="Times,serif" font-size="14.00">AppComponent </text>
</g>
<!-- AppModule&#45;&gt;AppComponent  -->
<g id="edge10" class="edge">
<title>AppModule&#45;&gt;AppComponent </title>
<path fill="none" stroke="black" stroke-dasharray="1,5" d="M1294,-153.02C1294,-153.02 1294,-174.53 1294,-174.53"/>
<polygon fill="black" stroke="black" points="1290.5,-174.53 1294,-184.53 1297.5,-174.53 1290.5,-174.53"/>
</g>
<!-- AppRoutingModule -->
<g id="node9" class="node">
<title>AppRoutingModule</title>
<polygon fill="#8dd3c7" stroke="black" points="2212.27,-84.8 2209.27,-88.8 2188.27,-88.8 2185.27,-84.8 2083.73,-84.8 2083.73,-48.8 2212.27,-48.8 2212.27,-84.8"/>
<text text-anchor="middle" x="2148" y="-62.6" font-family="Times,serif" font-size="14.00">AppRoutingModule</text>
</g>
<!-- AppRoutingModule&#45;&gt;AppModule -->
<g id="edge8" class="edge">
<title>AppRoutingModule&#45;&gt;AppModule</title>
<path fill="none" stroke="black" d="M2148,-84.89C2148,-107.93 2148,-144.8 2148,-144.8 2148,-144.8 1345.77,-144.8 1345.77,-144.8"/>
<polygon fill="black" stroke="black" points="1345.77,-141.3 1335.77,-144.8 1345.77,-148.3 1345.77,-141.3"/>
</g>
<!-- WisdomModule -->
<g id="node10" class="node">
<title>WisdomModule</title>
<polygon fill="#8dd3c7" stroke="black" points="2337.49,-84.8 2334.49,-88.8 2313.49,-88.8 2310.49,-84.8 2230.51,-84.8 2230.51,-48.8 2337.49,-48.8 2337.49,-84.8"/>
<text text-anchor="middle" x="2284" y="-62.6" font-family="Times,serif" font-size="14.00">WisdomModule</text>
</g>
<!-- WisdomModule&#45;&gt;AppModule -->
<g id="edge9" class="edge">
<title>WisdomModule&#45;&gt;AppModule</title>
<path fill="none" stroke="black" d="M2284,-85C2284,-109.16 2284,-148.8 2284,-148.8 2284,-148.8 1345.91,-148.8 1345.91,-148.8"/>
<polygon fill="black" stroke="black" points="1345.91,-145.3 1335.91,-148.8 1345.91,-152.3 1345.91,-145.3"/>
</g>
<!-- ExampleModule -->
<g id="node19" class="node">
<title>ExampleModule</title>
<polygon fill="#8dd3c7" stroke="black" points="3814.81,-152.8 3811.81,-156.8 3790.81,-156.8 3787.81,-152.8 3705.19,-152.8 3705.19,-116.8 3814.81,-116.8 3814.81,-152.8"/>
<text text-anchor="middle" x="3760" y="-130.6" font-family="Times,serif" font-size="14.00">ExampleModule</text>
</g>
<!-- WisdomModule&#45;&gt;ExampleModule -->
<g id="edge18" class="edge">
<title>WisdomModule&#45;&gt;ExampleModule</title>
<path fill="none" stroke="black" d="M2337.64,-52.8C2593.1,-52.8 3674.07,-52.8 3674.07,-52.8 3674.07,-52.8 3674.07,-134.8 3674.07,-134.8 3674.07,-134.8 3695.09,-134.8 3695.09,-134.8"/>
<polygon fill="black" stroke="black" points="3695.09,-138.3 3705.09,-134.8 3695.09,-131.3 3695.09,-138.3"/>
</g>
<!-- WaterUsageForecastsModule -->
<g id="node25" class="node">
<title>WaterUsageForecastsModule</title>
<polygon fill="#8dd3c7" stroke="black" points="4243.59,-152.8 4240.59,-156.8 4219.59,-156.8 4216.59,-152.8 4062.41,-152.8 4062.41,-116.8 4243.59,-116.8 4243.59,-152.8"/>
<text text-anchor="middle" x="4153" y="-130.6" font-family="Times,serif" font-size="14.00">WaterUsageForecastsModule</text>
</g>
<!-- WisdomModule&#45;&gt;WaterUsageForecastsModule -->
<g id="edge24" class="edge">
<title>WisdomModule&#45;&gt;WaterUsageForecastsModule</title>
<path fill="none" stroke="black" d="M2257.25,-84.99C2257.25,-93.08 2257.25,-100.8 2257.25,-100.8 2257.25,-100.8 4124.02,-100.8 4124.02,-100.8 4124.02,-100.8 4124.02,-106.61 4124.02,-106.61"/>
<polygon fill="black" stroke="black" points="4120.52,-106.61 4124.02,-116.61 4127.52,-106.61 4120.52,-106.61"/>
</g>
<!-- BreadcrumbsComponent  -->
<g id="node30" class="node">
<title>BreadcrumbsComponent </title>
<polygon fill="#fb8072" stroke="black" points="2736.97,-152.8 2577.03,-152.8 2577.03,-116.8 2736.97,-116.8 2736.97,-152.8"/>
<text text-anchor="middle" x="2657" y="-130.6" font-family="Times,serif" font-size="14.00">BreadcrumbsComponent </text>
</g>
<!-- WisdomModule&#45;&gt;BreadcrumbsComponent  -->
<g id="edge29" class="edge">
<title>WisdomModule&#45;&gt;BreadcrumbsComponent </title>
<path fill="none" stroke="black" stroke-dasharray="5,2" d="M2337.84,-80.8C2441.13,-80.8 2657,-80.8 2657,-80.8 2657,-80.8 2657,-106.52 2657,-106.52"/>
<polygon fill="black" stroke="black" points="2653.5,-106.52 2657,-116.52 2660.5,-106.52 2653.5,-106.52"/>
</g>
<!-- BulmaIsToggleableDirective  -->
<g id="node31" class="node">
<title>BulmaIsToggleableDirective </title>
<polygon fill="#fb8072" stroke="black" points="2559,-152.8 2377,-152.8 2377,-116.8 2559,-116.8 2559,-152.8"/>
<text text-anchor="middle" x="2468" y="-130.6" font-family="Times,serif" font-size="14.00">BulmaIsToggleableDirective </text>
</g>
<!-- WisdomModule&#45;&gt;BulmaIsToggleableDirective  -->
<g id="edge30" class="edge">
<title>WisdomModule&#45;&gt;BulmaIsToggleableDirective </title>
<path fill="none" stroke="black" stroke-dasharray="5,2" d="M2310.75,-85.08C2310.75,-100.75 2310.75,-120.8 2310.75,-120.8 2310.75,-120.8 2366.98,-120.8 2366.98,-120.8"/>
<polygon fill="black" stroke="black" points="2366.98,-124.3 2376.98,-120.8 2366.98,-117.3 2366.98,-124.3"/>
</g>
<!-- IonIconComponent  -->
<g id="node32" class="node">
<title>IonIconComponent </title>
<polygon fill="#fb8072" stroke="black" points="3011.37,-152.8 2882.63,-152.8 2882.63,-116.8 3011.37,-116.8 3011.37,-152.8"/>
<text text-anchor="middle" x="2947" y="-130.6" font-family="Times,serif" font-size="14.00">IonIconComponent </text>
</g>
<!-- WisdomModule&#45;&gt;IonIconComponent  -->
<g id="edge31" class="edge">
<title>WisdomModule&#45;&gt;IonIconComponent </title>
<path fill="none" stroke="black" stroke-dasharray="5,2" d="M2337.69,-72.8C2495.53,-72.8 2947,-72.8 2947,-72.8 2947,-72.8 2947,-106.53 2947,-106.53"/>
<polygon fill="black" stroke="black" points="2943.5,-106.53 2947,-116.53 2950.5,-106.53 2943.5,-106.53"/>
</g>
<!-- MapComponent  -->
<g id="node33" class="node">
<title>MapComponent </title>
<polygon fill="#fb8072" stroke="black" points="2865.49,-152.8 2754.51,-152.8 2754.51,-116.8 2865.49,-116.8 2865.49,-152.8"/>
<text text-anchor="middle" x="2810" y="-130.6" font-family="Times,serif" font-size="14.00">MapComponent </text>
</g>
<!-- WisdomModule&#45;&gt;MapComponent  -->
<g id="edge32" class="edge">
<title>WisdomModule&#45;&gt;MapComponent </title>
<path fill="none" stroke="black" stroke-dasharray="5,2" d="M2337.82,-76.8C2471.88,-76.8 2810,-76.8 2810,-76.8 2810,-76.8 2810,-106.77 2810,-106.77"/>
<polygon fill="black" stroke="black" points="2806.5,-106.77 2810,-116.77 2813.5,-106.77 2806.5,-106.77"/>
</g>
<!-- AuthInterceptor -->
<g id="node12" class="node">
<title>AuthInterceptor</title>
<ellipse fill="#fdb462" stroke="black" cx="285" cy="-66.8" rx="72.91" ry="18"/>
<text text-anchor="middle" x="285" y="-62.6" font-family="Times,serif" font-size="14.00">AuthInterceptor</text>
</g>
<!-- AuthInterceptor&#45;&gt;AppModule -->
<g id="edge11" class="edge">
<title>AuthInterceptor&#45;&gt;AppModule</title>
<path fill="none" stroke="black" d="M285,-85.05C285,-107.82 285,-143.8 285,-143.8 285,-143.8 1242.25,-143.8 1242.25,-143.8"/>
<polygon fill="black" stroke="black" points="1242.25,-147.3 1252.25,-143.8 1242.25,-140.3 1242.25,-147.3"/>
</g>
<!-- BaseUrlInterceptor -->
<g id="node13" class="node">
<title>BaseUrlInterceptor</title>
<ellipse fill="#fdb462" stroke="black" cx="109" cy="-66.8" rx="85.07" ry="18"/>
<text text-anchor="middle" x="109" y="-62.6" font-family="Times,serif" font-size="14.00">BaseUrlInterceptor</text>
</g>
<!-- BaseUrlInterceptor&#45;&gt;AppModule -->
<g id="edge12" class="edge">
<title>BaseUrlInterceptor&#45;&gt;AppModule</title>
<path fill="none" stroke="black" d="M109,-85C109,-109.16 109,-148.8 109,-148.8 109,-148.8 1242.17,-148.8 1242.17,-148.8"/>
<polygon fill="black" stroke="black" points="1242.17,-152.3 1252.17,-148.8 1242.17,-145.3 1242.17,-152.3"/>
</g>
<!-- CacheInterceptor -->
<g id="node14" class="node">
<title>CacheInterceptor</title>
<ellipse fill="#fdb462" stroke="black" cx="1011" cy="-66.8" rx="77.55" ry="18"/>
<text text-anchor="middle" x="1011" y="-62.6" font-family="Times,serif" font-size="14.00">CacheInterceptor</text>
</g>
<!-- CacheInterceptor&#45;&gt;AppModule -->
<g id="edge13" class="edge">
<title>CacheInterceptor&#45;&gt;AppModule</title>
<path fill="none" stroke="black" d="M1011,-84.82C1011,-102.17 1011,-125.8 1011,-125.8 1011,-125.8 1242.24,-125.8 1242.24,-125.8"/>
<polygon fill="black" stroke="black" points="1242.24,-129.3 1252.24,-125.8 1242.24,-122.3 1242.24,-129.3"/>
</g>
<!-- ErrorInterceptor -->
<g id="node15" class="node">
<title>ErrorInterceptor</title>
<ellipse fill="#fdb462" stroke="black" cx="842" cy="-66.8" rx="73.53" ry="18"/>
<text text-anchor="middle" x="842" y="-62.6" font-family="Times,serif" font-size="14.00">ErrorInterceptor</text>
</g>
<!-- ErrorInterceptor&#45;&gt;AppModule -->
<g id="edge14" class="edge">
<title>ErrorInterceptor&#45;&gt;AppModule</title>
<path fill="none" stroke="black" d="M842,-84.97C842,-103.89 842,-130.8 842,-130.8 842,-130.8 1242.29,-130.8 1242.29,-130.8"/>
<polygon fill="black" stroke="black" points="1242.29,-134.3 1252.29,-130.8 1242.29,-127.3 1242.29,-134.3"/>
</g>
<!-- LoaderInterceptor -->
<g id="node16" class="node">
<title>LoaderInterceptor</title>
<ellipse fill="#fdb462" stroke="black" cx="669" cy="-66.8" rx="80.98" ry="18"/>
<text text-anchor="middle" x="669" y="-62.6" font-family="Times,serif" font-size="14.00">LoaderInterceptor</text>
</g>
<!-- LoaderInterceptor&#45;&gt;AppModule -->
<g id="edge15" class="edge">
<title>LoaderInterceptor&#45;&gt;AppModule</title>
<path fill="none" stroke="black" d="M669,-85.02C669,-105.17 669,-134.8 669,-134.8 669,-134.8 1242.02,-134.8 1242.02,-134.8"/>
<polygon fill="black" stroke="black" points="1242.02,-138.3 1252.02,-134.8 1242.02,-131.3 1242.02,-138.3"/>
</g>
<!-- SanitizeUrlInterceptor -->
<g id="node17" class="node">
<title>SanitizeUrlInterceptor</title>
<ellipse fill="#fdb462" stroke="black" cx="473" cy="-66.8" rx="97.24" ry="18"/>
<text text-anchor="middle" x="473" y="-62.6" font-family="Times,serif" font-size="14.00">SanitizeUrlInterceptor</text>
</g>
<!-- SanitizeUrlInterceptor&#45;&gt;AppModule -->
<g id="edge16" class="edge">
<title>SanitizeUrlInterceptor&#45;&gt;AppModule</title>
<path fill="none" stroke="black" d="M473,-84.84C473,-106.46 473,-139.8 473,-139.8 473,-139.8 1242.16,-139.8 1242.16,-139.8"/>
<polygon fill="black" stroke="black" points="1242.16,-143.3 1252.16,-139.8 1242.16,-136.3 1242.16,-143.3"/>
</g>
<!-- ExampleComponent -->
<g id="node18" class="node">
<title>ExampleComponent</title>
<polygon fill="#ffffb3" stroke="black" points="3825.6,-84.8 3694.4,-84.8 3694.4,-48.8 3825.6,-48.8 3825.6,-84.8"/>
<text text-anchor="middle" x="3760" y="-62.6" font-family="Times,serif" font-size="14.00">ExampleComponent</text>
</g>
<!-- ExampleComponent&#45;&gt;ExampleModule -->
<g id="edge17" class="edge">
<title>ExampleComponent&#45;&gt;ExampleModule</title>
<path fill="none" stroke="black" d="M3760,-85.02C3760,-85.02 3760,-106.53 3760,-106.53"/>
<polygon fill="black" stroke="black" points="3756.5,-106.53 3760,-116.53 3763.5,-106.53 3756.5,-106.53"/>
</g>
<!-- ExampleComponent  -->
<g id="node20" class="node">
<title>ExampleComponent </title>
<polygon fill="#fb8072" stroke="black" points="3828.1,-220.8 3693.9,-220.8 3693.9,-184.8 3828.1,-184.8 3828.1,-220.8"/>
<text text-anchor="middle" x="3761" y="-198.6" font-family="Times,serif" font-size="14.00">ExampleComponent </text>
</g>
<!-- ExampleModule&#45;&gt;ExampleComponent  -->
<g id="edge19" class="edge">
<title>ExampleModule&#45;&gt;ExampleComponent </title>
<path fill="none" stroke="black" stroke-dasharray="5,2" d="M3760,-153.02C3760,-153.02 3760,-174.53 3760,-174.53"/>
<polygon fill="black" stroke="black" points="3756.5,-174.53 3760,-184.53 3763.5,-174.53 3756.5,-174.53"/>
</g>
<!-- ConsumerDetailComponent -->
<g id="node21" class="node">
<title>ConsumerDetailComponent</title>
<polygon fill="#ffffb3" stroke="black" points="4620.59,-84.8 4447.41,-84.8 4447.41,-48.8 4620.59,-48.8 4620.59,-84.8"/>
<text text-anchor="middle" x="4534" y="-62.6" font-family="Times,serif" font-size="14.00">ConsumerDetailComponent</text>
</g>
<!-- ConsumerDetailComponent&#45;&gt;WaterUsageForecastsModule -->
<g id="edge20" class="edge">
<title>ConsumerDetailComponent&#45;&gt;WaterUsageForecastsModule</title>
<path fill="none" stroke="black" d="M4534,-85.09C4534,-107.01 4534,-140.8 4534,-140.8 4534,-140.8 4253.77,-140.8 4253.77,-140.8"/>
<polygon fill="black" stroke="black" points="4253.77,-137.3 4243.77,-140.8 4253.77,-144.3 4253.77,-137.3"/>
</g>
<!-- MapSelectViewComponent -->
<g id="node22" class="node">
<title>MapSelectViewComponent</title>
<polygon fill="#ffffb3" stroke="black" points="4429.52,-84.8 4258.48,-84.8 4258.48,-48.8 4429.52,-48.8 4429.52,-84.8"/>
<text text-anchor="middle" x="4344" y="-62.6" font-family="Times,serif" font-size="14.00">MapSelectViewComponent</text>
</g>
<!-- MapSelectViewComponent&#45;&gt;WaterUsageForecastsModule -->
<g id="edge21" class="edge">
<title>MapSelectViewComponent&#45;&gt;WaterUsageForecastsModule</title>
<path fill="none" stroke="black" d="M4344,-85.07C4344,-103.36 4344,-128.8 4344,-128.8 4344,-128.8 4253.75,-128.8 4253.75,-128.8"/>
<polygon fill="black" stroke="black" points="4253.75,-125.3 4243.75,-128.8 4253.75,-132.3 4253.75,-125.3"/>
</g>
<!-- ResultDataViewComponent -->
<g id="node23" class="node">
<title>ResultDataViewComponent</title>
<polygon fill="#ffffb3" stroke="black" points="4239.85,-84.8 4066.15,-84.8 4066.15,-48.8 4239.85,-48.8 4239.85,-84.8"/>
<text text-anchor="middle" x="4153" y="-62.6" font-family="Times,serif" font-size="14.00">ResultDataViewComponent</text>
</g>
<!-- ResultDataViewComponent&#45;&gt;WaterUsageForecastsModule -->
<g id="edge22" class="edge">
<title>ResultDataViewComponent&#45;&gt;WaterUsageForecastsModule</title>
<path fill="none" stroke="black" d="M4181.98,-85.02C4181.98,-85.02 4181.98,-106.53 4181.98,-106.53"/>
<polygon fill="black" stroke="black" points="4178.48,-106.53 4181.98,-116.53 4185.48,-106.53 4178.48,-106.53"/>
</g>
<!-- WaterRightDetailComponent -->
<g id="node24" class="node">
<title>WaterRightDetailComponent</title>
<polygon fill="#ffffb3" stroke="black" points="4048.35,-84.8 3867.65,-84.8 3867.65,-48.8 4048.35,-48.8 4048.35,-84.8"/>
<text text-anchor="middle" x="3958" y="-62.6" font-family="Times,serif" font-size="14.00">WaterRightDetailComponent</text>
</g>
<!-- WaterRightDetailComponent&#45;&gt;WaterUsageForecastsModule -->
<g id="edge23" class="edge">
<title>WaterRightDetailComponent&#45;&gt;WaterUsageForecastsModule</title>
<path fill="none" stroke="black" d="M3958,-85.02C3958,-105.17 3958,-134.8 3958,-134.8 3958,-134.8 4052.35,-134.8 4052.35,-134.8"/>
<polygon fill="black" stroke="black" points="4052.35,-138.3 4062.35,-134.8 4052.35,-131.3 4052.35,-138.3"/>
</g>
<!-- BreadcrumbsComponent -->
<g id="node26" class="node">
<title>BreadcrumbsComponent</title>
<polygon fill="#ffffb3" stroke="black" points="3386.97,-152.8 3231.03,-152.8 3231.03,-116.8 3386.97,-116.8 3386.97,-152.8"/>
<text text-anchor="middle" x="3309" y="-130.6" font-family="Times,serif" font-size="14.00">BreadcrumbsComponent</text>
</g>
<!-- BreadcrumbsComponent&#45;&gt;WisdomModule -->
<g id="edge25" class="edge">
<title>BreadcrumbsComponent&#45;&gt;WisdomModule</title>
<path fill="none" stroke="black" d="M3309,-116.77C3309,-96.03 3309,-64.8 3309,-64.8 3309,-64.8 2347.67,-64.8 2347.67,-64.8"/>
<polygon fill="black" stroke="black" points="2347.67,-61.3 2337.67,-64.8 2347.67,-68.3 2347.67,-61.3"/>
</g>
<!-- BulmaIsToggleableDirective -->
<g id="node27" class="node">
<title>BulmaIsToggleableDirective</title>
<polygon fill="#ffffb3" stroke="black" points="3213.5,-152.8 3034.5,-152.8 3034.5,-116.8 3213.5,-116.8 3213.5,-152.8"/>
<text text-anchor="middle" x="3124" y="-130.6" font-family="Times,serif" font-size="14.00">BulmaIsToggleableDirective</text>
</g>
<!-- BulmaIsToggleableDirective&#45;&gt;WisdomModule -->
<g id="edge26" class="edge">
<title>BulmaIsToggleableDirective&#45;&gt;WisdomModule</title>
<path fill="none" stroke="black" d="M3124,-116.77C3124,-97.22 3124,-68.8 3124,-68.8 3124,-68.8 2347.5,-68.8 2347.5,-68.8"/>
<polygon fill="black" stroke="black" points="2347.5,-65.3 2337.5,-68.8 2347.5,-72.3 2347.5,-65.3"/>
</g>
<!-- IonIconComponent -->
<g id="node28" class="node">
<title>IonIconComponent</title>
<polygon fill="#ffffb3" stroke="black" points="3654.37,-152.8 3529.63,-152.8 3529.63,-116.8 3654.37,-116.8 3654.37,-152.8"/>
<text text-anchor="middle" x="3592" y="-130.6" font-family="Times,serif" font-size="14.00">IonIconComponent</text>
</g>
<!-- IonIconComponent&#45;&gt;WisdomModule -->
<g id="edge27" class="edge">
<title>IonIconComponent&#45;&gt;WisdomModule</title>
<path fill="none" stroke="black" d="M3592,-116.71C3592,-93.67 3592,-56.8 3592,-56.8 3592,-56.8 2347.71,-56.8 2347.71,-56.8"/>
<polygon fill="black" stroke="black" points="2347.71,-53.3 2337.71,-56.8 2347.71,-60.3 2347.71,-53.3"/>
</g>
<!-- MapComponent -->
<g id="node29" class="node">
<title>MapComponent</title>
<polygon fill="#ffffb3" stroke="black" points="3511.49,-152.8 3404.51,-152.8 3404.51,-116.8 3511.49,-116.8 3511.49,-152.8"/>
<text text-anchor="middle" x="3458" y="-130.6" font-family="Times,serif" font-size="14.00">MapComponent</text>
</g>
<!-- MapComponent&#45;&gt;WisdomModule -->
<g id="edge28" class="edge">
<title>MapComponent&#45;&gt;WisdomModule</title>
<path fill="none" stroke="black" d="M3458,-116.51C3458,-94.59 3458,-60.8 3458,-60.8 3458,-60.8 2347.5,-60.8 2347.5,-60.8"/>
<polygon fill="black" stroke="black" points="2347.5,-57.3 2337.5,-60.8 2347.49,-64.3 2347.5,-57.3"/>
</g>
</g>
</svg>
