<?xml version="1.0" encoding="UTF-8" standalone="no"?>
<!DOCTYPE svg PUBLIC "-//W3C//DTD SVG 1.1//EN"
 "http://www.w3.org/Graphics/SVG/1.1/DTD/svg11.dtd">
<!-- Generated by graphviz version 2.47.0 (20210316.0004)
 -->
<!-- Title: dependencies Pages: 1 -->
<svg width="504pt" height="284pt"
 viewBox="0.00 0.00 504.00 284.00" xmlns="http://www.w3.org/2000/svg" xmlns:xlink="http://www.w3.org/1999/xlink">
<g id="graph0" class="graph" transform="scale(1 1) rotate(0) translate(4 280)">
<title>dependencies</title>
<polygon fill="white" stroke="transparent" points="-4,4 -4,-280 500,-280 500,4 -4,4"/>
<text text-anchor="start" x="227.01" y="-42.4" font-family="Times-12" font-weight="bold" font-size="14.00">Legend</text>
<polygon fill="#ffffb3" stroke="transparent" points="14,-10 14,-30 34,-30 34,-10 14,-10"/>
<text text-anchor="start" x="37.63" y="-15.4" font-family="Times-12" font-size="14.00"> &#160;Declarations</text>
<polygon fill="#8dd3c7" stroke="transparent" points="127,-10 127,-30 147,-30 147,-10 127,-10"/>
<text text-anchor="start" x="150.73" y="-15.4" font-family="Times-12" font-size="14.00"> &#160;Module</text>
<polygon fill="#80b1d3" stroke="transparent" points="213,-10 213,-30 233,-30 233,-10 213,-10"/>
<text text-anchor="start" x="236.78" y="-15.4" font-family="Times-12" font-size="14.00"> &#160;Bootstrap</text>
<polygon fill="#fdb462" stroke="transparent" points="310,-10 310,-30 330,-30 330,-10 310,-10"/>
<text text-anchor="start" x="333.67" y="-15.4" font-family="Times-12" font-size="14.00"> &#160;Providers</text>
<polygon fill="#fb8072" stroke="transparent" points="406,-10 406,-30 426,-30 426,-10 406,-10"/>
<text text-anchor="start" x="429.73" y="-15.4" font-family="Times-12" font-size="14.00"> &#160;Exports</text>
<g id="clust1" class="cluster">
<title>cluster_BeWaterSmartModule</title>
<polygon fill="none" stroke="black" stroke-dasharray="1,5" points="85,-70 85,-268 411,-268 411,-70 85,-70"/>
</g>
<g id="clust2" class="cluster">
<title>cluster_BeWaterSmartModule_declarations</title>
<polygon fill="none" stroke="black" points="223,-78 223,-130 403,-130 403,-78 223,-78"/>
</g>
<g id="clust4" class="cluster">
<title>cluster_BeWaterSmartModule_imports</title>
<polygon fill="none" stroke="black" points="93,-78 93,-130 215,-130 215,-78 93,-78"/>
</g>
<g id="clust5" class="cluster">
<title>cluster_BeWaterSmartModule_exports</title>
<polygon fill="none" stroke="black" points="156,-208 156,-260 340,-260 340,-208 156,-208"/>
</g>
<!-- BeWaterSmartComponent -->
<g id="node1" class="node">
<title>BeWaterSmartComponent</title>
<polygon fill="#ffffb3" stroke="black" points="395.02,-122 230.98,-122 230.98,-86 395.02,-86 395.02,-122"/>
<text text-anchor="middle" x="313" y="-99.8" font-family="Times,serif" font-size="14.00">BeWaterSmartComponent</text>
</g>
<!-- BeWaterSmartModule -->
<g id="node2" class="node">
<title>BeWaterSmartModule</title>
<polygon fill="#8dd3c7" stroke="black" points="319.24,-187 316.24,-191 295.24,-191 292.24,-187 176.76,-187 176.76,-151 319.24,-151 319.24,-187"/>
<text text-anchor="middle" x="248" y="-164.8" font-family="Times,serif" font-size="14.00">BeWaterSmartModule</text>
</g>
<!-- BeWaterSmartComponent&#45;&gt;BeWaterSmartModule -->
<g id="edge1" class="edge">
<title>BeWaterSmartComponent&#45;&gt;BeWaterSmartModule</title>
<path fill="none" stroke="black" d="M275.05,-122.11C275.05,-122.11 275.05,-140.99 275.05,-140.99"/>
<polygon fill="black" stroke="black" points="271.55,-140.99 275.05,-150.99 278.55,-140.99 271.55,-140.99"/>
</g>
<!-- BeWaterSmartComponent  -->
<g id="node4" class="node">
<title>BeWaterSmartComponent </title>
<polygon fill="#fb8072" stroke="black" points="332.02,-252 163.98,-252 163.98,-216 332.02,-216 332.02,-252"/>
<text text-anchor="middle" x="248" y="-229.8" font-family="Times,serif" font-size="14.00">BeWaterSmartComponent </text>
</g>
<!-- BeWaterSmartModule&#45;&gt;BeWaterSmartComponent  -->
<g id="edge3" class="edge">
<title>BeWaterSmartModule&#45;&gt;BeWaterSmartComponent </title>
<path fill="none" stroke="black" stroke-dasharray="5,2" d="M248,-187.11C248,-187.11 248,-205.99 248,-205.99"/>
<polygon fill="black" stroke="black" points="244.5,-205.99 248,-215.99 251.5,-205.99 244.5,-205.99"/>
</g>
<!-- WisdomModule -->
<g id="node3" class="node">
<title>WisdomModule</title>
<polygon fill="#8dd3c7" stroke="black" points="207.49,-122 204.49,-126 183.49,-126 180.49,-122 100.51,-122 100.51,-86 207.49,-86 207.49,-122"/>
<text text-anchor="middle" x="154" y="-99.8" font-family="Times,serif" font-size="14.00">WisdomModule</text>
</g>
<!-- WisdomModule&#45;&gt;BeWaterSmartModule -->
<g id="edge2" class="edge">
<title>WisdomModule&#45;&gt;BeWaterSmartModule</title>
<path fill="none" stroke="black" d="M192.06,-122.11C192.06,-122.11 192.06,-140.99 192.06,-140.99"/>
<polygon fill="black" stroke="black" points="188.56,-140.99 192.06,-150.99 195.56,-140.99 188.56,-140.99"/>
</g>
</g>
</svg>
