<?xml version="1.0" encoding="UTF-8" standalone="no"?>
<!DOCTYPE svg PUBLIC "-//W3C//DTD SVG 1.1//EN"
 "http://www.w3.org/Graphics/SVG/1.1/DTD/svg11.dtd">
<!-- Generated by graphviz version 2.47.0 (20210316.0004)
 -->
<!-- Title: dependencies Pages: 1 -->
<svg width="504pt" height="284pt"
 viewBox="0.00 0.00 504.00 284.00" xmlns="http://www.w3.org/2000/svg" xmlns:xlink="http://www.w3.org/1999/xlink">
<g id="graph0" class="graph" transform="scale(1 1) rotate(0) translate(4 280)">
<title>dependencies</title>
<polygon fill="white" stroke="transparent" points="-4,4 -4,-280 500,-280 500,4 -4,4"/>
<text text-anchor="start" x="227.01" y="-42.4" font-family="Times-12" font-weight="bold" font-size="14.00">Legend</text>
<polygon fill="#ffffb3" stroke="transparent" points="14,-10 14,-30 34,-30 34,-10 14,-10"/>
<text text-anchor="start" x="37.63" y="-15.4" font-family="Times-12" font-size="14.00"> &#160;Declarations</text>
<polygon fill="#8dd3c7" stroke="transparent" points="127,-10 127,-30 147,-30 147,-10 127,-10"/>
<text text-anchor="start" x="150.73" y="-15.4" font-family="Times-12" font-size="14.00"> &#160;Module</text>
<polygon fill="#80b1d3" stroke="transparent" points="213,-10 213,-30 233,-30 233,-10 213,-10"/>
<text text-anchor="start" x="236.78" y="-15.4" font-family="Times-12" font-size="14.00"> &#160;Bootstrap</text>
<polygon fill="#fdb462" stroke="transparent" points="310,-10 310,-30 330,-30 330,-10 310,-10"/>
<text text-anchor="start" x="333.67" y="-15.4" font-family="Times-12" font-size="14.00"> &#160;Providers</text>
<polygon fill="#fb8072" stroke="transparent" points="406,-10 406,-30 426,-30 426,-10 406,-10"/>
<text text-anchor="start" x="429.73" y="-15.4" font-family="Times-12" font-size="14.00"> &#160;Exports</text>
<g id="clust1" class="cluster">
<title>cluster_PumpModelModule</title>
<polygon fill="none" stroke="black" stroke-dasharray="1,5" points="92,-70 92,-268 404,-268 404,-70 92,-70"/>
</g>
<g id="clust4" class="cluster">
<title>cluster_PumpModelModule_imports</title>
<polygon fill="none" stroke="black" points="274,-78 274,-130 396,-130 396,-78 274,-78"/>
</g>
<g id="clust2" class="cluster">
<title>cluster_PumpModelModule_declarations</title>
<polygon fill="none" stroke="black" points="100,-78 100,-130 266,-130 266,-78 100,-78"/>
</g>
<g id="clust5" class="cluster">
<title>cluster_PumpModelModule_exports</title>
<polygon fill="none" stroke="black" points="163,-208 163,-260 333,-260 333,-208 163,-208"/>
</g>
<!-- PumpModelComponent -->
<g id="node1" class="node">
<title>PumpModelComponent</title>
<polygon fill="#ffffb3" stroke="black" points="258.06,-122 107.94,-122 107.94,-86 258.06,-86 258.06,-122"/>
<text text-anchor="middle" x="183" y="-99.8" font-family="Times,serif" font-size="14.00">PumpModelComponent</text>
</g>
<!-- PumpModelModule -->
<g id="node2" class="node">
<title>PumpModelModule</title>
<polygon fill="#8dd3c7" stroke="black" points="312.27,-187 309.27,-191 288.27,-191 285.27,-187 183.73,-187 183.73,-151 312.27,-151 312.27,-187"/>
<text text-anchor="middle" x="248" y="-164.8" font-family="Times,serif" font-size="14.00">PumpModelModule</text>
</g>
<!-- PumpModelComponent&#45;&gt;PumpModelModule -->
<g id="edge1" class="edge">
<title>PumpModelComponent&#45;&gt;PumpModelModule</title>
<path fill="none" stroke="black" d="M220.95,-122.11C220.95,-122.11 220.95,-140.99 220.95,-140.99"/>
<polygon fill="black" stroke="black" points="217.45,-140.99 220.95,-150.99 224.45,-140.99 217.45,-140.99"/>
</g>
<!-- PumpModelComponent  -->
<g id="node4" class="node">
<title>PumpModelComponent </title>
<polygon fill="#fb8072" stroke="black" points="325.06,-252 170.94,-252 170.94,-216 325.06,-216 325.06,-252"/>
<text text-anchor="middle" x="248" y="-229.8" font-family="Times,serif" font-size="14.00">PumpModelComponent </text>
</g>
<!-- PumpModelModule&#45;&gt;PumpModelComponent  -->
<g id="edge3" class="edge">
<title>PumpModelModule&#45;&gt;PumpModelComponent </title>
<path fill="none" stroke="black" stroke-dasharray="5,2" d="M248,-187.11C248,-187.11 248,-205.99 248,-205.99"/>
<polygon fill="black" stroke="black" points="244.5,-205.99 248,-215.99 251.5,-205.99 244.5,-205.99"/>
</g>
<!-- WisdomModule -->
<g id="node3" class="node">
<title>WisdomModule</title>
<polygon fill="#8dd3c7" stroke="black" points="388.49,-122 385.49,-126 364.49,-126 361.49,-122 281.51,-122 281.51,-86 388.49,-86 388.49,-122"/>
<text text-anchor="middle" x="335" y="-99.8" font-family="Times,serif" font-size="14.00">WisdomModule</text>
</g>
<!-- WisdomModule&#45;&gt;PumpModelModule -->
<g id="edge2" class="edge">
<title>WisdomModule&#45;&gt;PumpModelModule</title>
<path fill="none" stroke="black" d="M296.95,-122.11C296.95,-122.11 296.95,-140.99 296.95,-140.99"/>
<polygon fill="black" stroke="black" points="293.45,-140.99 296.95,-150.99 300.45,-140.99 293.45,-140.99"/>
</g>
</g>
</svg>
