<?xml version="1.0" encoding="UTF-8" standalone="no"?>
<!DOCTYPE svg PUBLIC "-//W3C//DTD SVG 1.1//EN"
 "http://www.w3.org/Graphics/SVG/1.1/DTD/svg11.dtd">
<!-- Generated by graphviz version 5.0.0 (20220707.1540)
 -->
<!-- Title: dependencies Pages: 1 -->
<svg width="336pt" height="247pt"
 viewBox="0.00 0.00 336.00 246.80" xmlns="http://www.w3.org/2000/svg" xmlns:xlink="http://www.w3.org/1999/xlink">
<g id="graph0" class="graph" transform="scale(1 1) rotate(0) translate(4 242.8)">
<title>dependencies</title>
<polygon fill="white" stroke="transparent" points="-4,4 -4,-242.8 332,-242.8 332,4 -4,4"/>
<text text-anchor="middle" x="164" y="-8.2" font-family="sans-serif" font-size="14.00">dependencies</text>
<g id="clust1" class="cluster">
<title>cluster_PumpModelModule</title>
<polygon fill="none" stroke="black" stroke-dasharray="1,5" points="8,-32.8 8,-230.8 320,-230.8 320,-32.8 8,-32.8"/>
</g>
<g id="clust2" class="cluster">
<title>cluster_PumpModelModule_declarations</title>
<polygon fill="none" stroke="black" points="146,-40.8 146,-92.8 312,-92.8 312,-40.8 146,-40.8"/>
</g>
<g id="clust5" class="cluster">
<title>cluster_PumpModelModule_exports</title>
<polygon fill="none" stroke="black" points="79,-170.8 79,-222.8 249,-222.8 249,-170.8 79,-170.8"/>
</g>
<g id="clust4" class="cluster">
<title>cluster_PumpModelModule_imports</title>
<polygon fill="none" stroke="black" points="16,-40.8 16,-92.8 138,-92.8 138,-40.8 16,-40.8"/>
</g>
<!-- PumpModelComponent -->
<g id="node1" class="node">
<title>PumpModelComponent</title>
<polygon fill="#ffffb3" stroke="black" points="304.06,-84.8 153.94,-84.8 153.94,-48.8 304.06,-48.8 304.06,-84.8"/>
<text text-anchor="middle" x="229" y="-62.6" font-family="Times,serif" font-size="14.00">PumpModelComponent</text>
</g>
<!-- PumpModelModule -->
<g id="node2" class="node">
<title>PumpModelModule</title>
<polygon fill="#8dd3c7" stroke="black" points="228.28,-149.8 225.28,-153.8 204.28,-153.8 201.28,-149.8 99.72,-149.8 99.72,-113.8 228.28,-113.8 228.28,-149.8"/>
<text text-anchor="middle" x="164" y="-127.6" font-family="Times,serif" font-size="14.00">PumpModelModule</text>
</g>
<!-- PumpModelComponent&#45;&gt;PumpModelModule -->
<g id="edge1" class="edge">
<title>PumpModelComponent&#45;&gt;PumpModelModule</title>
<path fill="none" stroke="black" d="M191.06,-84.91C191.06,-84.91 191.06,-103.79 191.06,-103.79"/>
<polygon fill="black" stroke="black" points="187.56,-103.79 191.06,-113.79 194.56,-103.79 187.56,-103.79"/>
</g>
<!-- PumpModelComponent  -->
<g id="node4" class="node">
<title>PumpModelComponent </title>
<polygon fill="#fb8072" stroke="black" points="241.06,-214.8 86.94,-214.8 86.94,-178.8 241.06,-178.8 241.06,-214.8"/>
<text text-anchor="middle" x="164" y="-192.6" font-family="Times,serif" font-size="14.00">PumpModelComponent </text>
</g>
<!-- PumpModelModule&#45;&gt;PumpModelComponent  -->
<g id="edge3" class="edge">
<title>PumpModelModule&#45;&gt;PumpModelComponent </title>
<path fill="none" stroke="black" stroke-dasharray="5,2" d="M164,-149.91C164,-149.91 164,-168.79 164,-168.79"/>
<polygon fill="black" stroke="black" points="160.5,-168.79 164,-178.79 167.5,-168.79 160.5,-168.79"/>
</g>
<!-- WisdomModule -->
<g id="node3" class="node">
<title>WisdomModule</title>
<polygon fill="#8dd3c7" stroke="black" points="130.49,-84.8 127.49,-88.8 106.49,-88.8 103.49,-84.8 23.51,-84.8 23.51,-48.8 130.49,-48.8 130.49,-84.8"/>
<text text-anchor="middle" x="77" y="-62.6" font-family="Times,serif" font-size="14.00">WisdomModule</text>
</g>
<!-- WisdomModule&#45;&gt;PumpModelModule -->
<g id="edge2" class="edge">
<title>WisdomModule&#45;&gt;PumpModelModule</title>
<path fill="none" stroke="black" d="M115.05,-84.91C115.05,-84.91 115.05,-103.79 115.05,-103.79"/>
<polygon fill="black" stroke="black" points="111.55,-103.79 115.05,-113.79 118.55,-103.79 111.55,-103.79"/>
</g>
</g>
</svg>
