<?xml version="1.0" encoding="UTF-8" standalone="no"?>
<!DOCTYPE svg PUBLIC "-//W3C//DTD SVG 1.1//EN"
 "http://www.w3.org/Graphics/SVG/1.1/DTD/svg11.dtd">
<!-- Generated by graphviz version 2.47.3 (20210619.1520)
 -->
<!-- Title: dependencies Pages: 1 -->
<svg width="352pt" height="247pt"
 viewBox="0.00 0.00 352.00 246.80" xmlns="http://www.w3.org/2000/svg" xmlns:xlink="http://www.w3.org/1999/xlink">
<g id="graph0" class="graph" transform="scale(1 1) rotate(0) translate(4 242.8)">
<title>dependencies</title>
<polygon fill="white" stroke="transparent" points="-4,4 -4,-242.8 348,-242.8 348,4 -4,4"/>
<text text-anchor="middle" x="172" y="-8.2" font-family="sans-serif" font-size="14.00">dependencies</text>
<g id="clust1" class="cluster">
<title>cluster_ChartModule</title>
<polygon fill="none" stroke="black" stroke-dasharray="1,5" points="8,-32.8 8,-230.8 336,-230.8 336,-32.8 8,-32.8"/>
</g>
<g id="clust6" class="cluster">
<title>cluster_ChartModule_exports</title>
<polygon fill="none" stroke="black" points="16,-170.8 16,-222.8 328,-222.8 328,-170.8 16,-170.8"/>
</g>
<g id="clust2" class="cluster">
<title>cluster_ChartModule_declarations</title>
<polygon fill="none" stroke="black" points="20,-40.8 20,-92.8 324,-92.8 324,-40.8 20,-40.8"/>
</g>
<!-- BarChartComponent -->
<g id="node1" class="node">
<title>BarChartComponent</title>
<polygon fill="#ffffb3" stroke="black" points="316.15,-84.8 183.85,-84.8 183.85,-48.8 316.15,-48.8 316.15,-84.8"/>
<text text-anchor="middle" x="250" y="-62.6" font-family="Times,serif" font-size="14.00">BarChartComponent</text>
</g>
<!-- ChartModule -->
<g id="node3" class="node">
<title>ChartModule</title>
<polygon fill="#8dd3c7" stroke="black" points="143.15,-149.8 140.15,-153.8 119.15,-153.8 116.15,-149.8 52.85,-149.8 52.85,-113.8 143.15,-113.8 143.15,-149.8"/>
<text text-anchor="middle" x="98" y="-127.6" font-family="Times,serif" font-size="14.00">ChartModule</text>
</g>
<!-- BarChartComponent&#45;&gt;ChartModule -->
<g id="edge1" class="edge">
<title>BarChartComponent&#45;&gt;ChartModule</title>
<path fill="none" stroke="black" d="M272.19,-84.82C272.19,-102.17 272.19,-125.8 272.19,-125.8 272.19,-125.8 153.31,-125.8 153.31,-125.8"/>
<polygon fill="black" stroke="black" points="153.31,-122.3 143.31,-125.8 153.31,-129.3 153.31,-122.3"/>
</g>
<!-- LineChartComponent -->
<g id="node2" class="node">
<title>LineChartComponent</title>
<polygon fill="#ffffb3" stroke="black" points="166.09,-84.8 27.91,-84.8 27.91,-48.8 166.09,-48.8 166.09,-84.8"/>
<text text-anchor="middle" x="97" y="-62.6" font-family="Times,serif" font-size="14.00">LineChartComponent</text>
</g>
<!-- LineChartComponent&#45;&gt;ChartModule -->
<g id="edge2" class="edge">
<title>LineChartComponent&#45;&gt;ChartModule</title>
<path fill="none" stroke="black" d="M98,-84.91C98,-84.91 98,-103.79 98,-103.79"/>
<polygon fill="black" stroke="black" points="94.5,-103.79 98,-113.79 101.5,-103.79 94.5,-103.79"/>
</g>
<!-- BarChartComponent  -->
<g id="node4" class="node">
<title>BarChartComponent </title>
<polygon fill="#fb8072" stroke="black" points="320.15,-214.8 183.85,-214.8 183.85,-178.8 320.15,-178.8 320.15,-214.8"/>
<text text-anchor="middle" x="252" y="-192.6" font-family="Times,serif" font-size="14.00">BarChartComponent </text>
</g>
<!-- ChartModule&#45;&gt;BarChartComponent  -->
<g id="edge3" class="edge">
<title>ChartModule&#45;&gt;BarChartComponent </title>
<path fill="none" stroke="black" stroke-dasharray="5,2" d="M143.49,-137.8C180.99,-137.8 228.06,-137.8 228.06,-137.8 228.06,-137.8 228.06,-168.78 228.06,-168.78"/>
<polygon fill="black" stroke="black" points="224.56,-168.78 228.06,-178.78 231.56,-168.78 224.56,-168.78"/>
</g>
<!-- LineChartComponent  -->
<g id="node5" class="node">
<title>LineChartComponent </title>
<polygon fill="#fb8072" stroke="black" points="165.59,-214.8 24.41,-214.8 24.41,-178.8 165.59,-178.8 165.59,-214.8"/>
<text text-anchor="middle" x="95" y="-192.6" font-family="Times,serif" font-size="14.00">LineChartComponent </text>
</g>
<!-- ChartModule&#45;&gt;LineChartComponent  -->
<g id="edge4" class="edge">
<title>ChartModule&#45;&gt;LineChartComponent </title>
<path fill="none" stroke="black" stroke-dasharray="5,2" d="M98,-149.91C98,-149.91 98,-168.79 98,-168.79"/>
<polygon fill="black" stroke="black" points="94.5,-168.79 98,-178.79 101.5,-168.79 94.5,-168.79"/>
</g>
</g>
</svg>
