<?xml version="1.0" encoding="UTF-8" standalone="no"?>
<!DOCTYPE svg PUBLIC "-//W3C//DTD SVG 1.1//EN"
 "http://www.w3.org/Graphics/SVG/1.1/DTD/svg11.dtd">
<!-- Generated by graphviz version 2.47.3 (20210619.1520)
 -->
<!-- Title: dependencies Pages: 1 -->
<svg width="318pt" height="247pt"
 viewBox="0.00 0.00 318.00 246.80" xmlns="http://www.w3.org/2000/svg" xmlns:xlink="http://www.w3.org/1999/xlink">
<g id="graph0" class="graph" transform="scale(1 1) rotate(0) translate(4 242.8)">
<title>dependencies</title>
<polygon fill="white" stroke="transparent" points="-4,4 -4,-242.8 314,-242.8 314,4 -4,4"/>
<text text-anchor="middle" x="155" y="-8.2" font-family="sans-serif" font-size="14.00">dependencies</text>
<g id="clust1" class="cluster">
<title>cluster_ExampleModule</title>
<polygon fill="none" stroke="black" stroke-dasharray="1,5" points="8,-32.8 8,-230.8 302,-230.8 302,-32.8 8,-32.8"/>
</g>
<g id="clust2" class="cluster">
<title>cluster_ExampleModule_declarations</title>
<polygon fill="none" stroke="black" points="146,-40.8 146,-92.8 294,-92.8 294,-40.8 146,-40.8"/>
</g>
<g id="clust5" class="cluster">
<title>cluster_ExampleModule_exports</title>
<polygon fill="none" stroke="black" points="80,-170.8 80,-222.8 230,-222.8 230,-170.8 80,-170.8"/>
</g>
<g id="clust4" class="cluster">
<title>cluster_ExampleModule_imports</title>
<polygon fill="none" stroke="black" points="16,-40.8 16,-92.8 138,-92.8 138,-40.8 16,-40.8"/>
</g>
<!-- ExampleComponent -->
<g id="node1" class="node">
<title>ExampleComponent</title>
<polygon fill="#ffffb3" stroke="black" points="285.6,-84.8 154.4,-84.8 154.4,-48.8 285.6,-48.8 285.6,-84.8"/>
<text text-anchor="middle" x="220" y="-62.6" font-family="Times,serif" font-size="14.00">ExampleComponent</text>
</g>
<!-- ExampleModule -->
<g id="node2" class="node">
<title>ExampleModule</title>
<polygon fill="#8dd3c7" stroke="black" points="209.81,-149.8 206.81,-153.8 185.81,-153.8 182.81,-149.8 100.19,-149.8 100.19,-113.8 209.81,-113.8 209.81,-149.8"/>
<text text-anchor="middle" x="155" y="-127.6" font-family="Times,serif" font-size="14.00">ExampleModule</text>
</g>
<!-- ExampleComponent&#45;&gt;ExampleModule -->
<g id="edge1" class="edge">
<title>ExampleComponent&#45;&gt;ExampleModule</title>
<path fill="none" stroke="black" d="M182.05,-84.91C182.05,-84.91 182.05,-103.79 182.05,-103.79"/>
<polygon fill="black" stroke="black" points="178.55,-103.79 182.05,-113.79 185.55,-103.79 178.55,-103.79"/>
</g>
<!-- ExampleComponent  -->
<g id="node4" class="node">
<title>ExampleComponent </title>
<polygon fill="#fb8072" stroke="black" points="222.1,-214.8 87.9,-214.8 87.9,-178.8 222.1,-178.8 222.1,-214.8"/>
<text text-anchor="middle" x="155" y="-192.6" font-family="Times,serif" font-size="14.00">ExampleComponent </text>
</g>
<!-- ExampleModule&#45;&gt;ExampleComponent  -->
<g id="edge3" class="edge">
<title>ExampleModule&#45;&gt;ExampleComponent </title>
<path fill="none" stroke="black" stroke-dasharray="5,2" d="M155,-149.91C155,-149.91 155,-168.79 155,-168.79"/>
<polygon fill="black" stroke="black" points="151.5,-168.79 155,-178.79 158.5,-168.79 151.5,-168.79"/>
</g>
<!-- WisdomModule -->
<g id="node3" class="node">
<title>WisdomModule</title>
<polygon fill="#8dd3c7" stroke="black" points="130.49,-84.8 127.49,-88.8 106.49,-88.8 103.49,-84.8 23.51,-84.8 23.51,-48.8 130.49,-48.8 130.49,-84.8"/>
<text text-anchor="middle" x="77" y="-62.6" font-family="Times,serif" font-size="14.00">WisdomModule</text>
</g>
<!-- WisdomModule&#45;&gt;ExampleModule -->
<g id="edge2" class="edge">
<title>WisdomModule&#45;&gt;ExampleModule</title>
<path fill="none" stroke="black" d="M115.42,-84.91C115.42,-84.91 115.42,-103.79 115.42,-103.79"/>
<polygon fill="black" stroke="black" points="111.92,-103.79 115.42,-113.79 118.92,-103.79 111.92,-103.79"/>
</g>
</g>
</svg>
